<?xml version="1.0" encoding="utf-8"?>
<!-- Generator: Adobe Illustrator 16.0.0, SVG Export Plug-In . SVG Version: 6.00 Build 0)  -->
<!DOCTYPE svg PUBLIC "-//W3C//DTD SVG 1.1//EN" "http://www.w3.org/Graphics/SVG/1.1/DTD/svg11.dtd">
<svg version="1.1" id="圖層_1" xmlns="http://www.w3.org/2000/svg" xmlns:xlink="http://www.w3.org/1999/xlink" x="0px" y="0px"
	 width="50px" height="50px" viewBox="0 0 50 50" enable-background="new 0 0 50 50" xml:space="preserve">
<path fill="#ffffff" d="M43.8,6.8h-3.4V2.4h-2.5v4.5H12.2V2.4H9.7v4.5H6.2C2.8,6.8,0,9.6,0,13.1v28.3c0,3.4,2.8,6.2,6.2,6.2h37.5
	c3.4,0,6.2-2.8,6.2-6.2V13.1C50,9.6,47.2,6.8,43.8,6.8z M6.2,9.3h3.4v4h2.5v-4h25.6v4h2.5v-4h3.4c2.1,0,3.7,1.7,3.7,3.7v6h-45v-6
	C2.5,11,4.2,9.3,6.2,9.3z M43.8,45.1H6.2c-2.1,0-3.7-1.7-3.7-3.7V21.5h45v19.9C47.5,43.5,45.8,45.1,43.8,45.1z"/>
</svg>
