<?xml version="1.0" encoding="utf-8"?>
<!-- Generator: Adobe Illustrator 22.0.1, SVG Export Plug-In . SVG Version: 6.00 Build 0)  -->
<svg version="1.1" id="圖層_1" xmlns="http://www.w3.org/2000/svg" xmlns:xlink="http://www.w3.org/1999/xlink" x="0px" y="0px"
	 width="50px" height="50px" viewBox="0 0 50 50" style="enable-background:new 0 0 50 50;" xml:space="preserve">
<style type="text/css">
	.st0{fill:#FFFFFF;fill-rule:evenodd;clip-rule:evenodd;}
</style>
<g>
	<g>
		<path class="st0" d="M17.6,14.6h29.5c1.6,0,2.9-1.3,2.9-2.9c0-1.6-1.3-2.9-2.9-2.9H17.6c-1.6,0-2.9,1.3-2.9,2.9
			C14.7,13.3,16,14.6,17.6,14.6z M47.1,24.4H17.6c-1.6,0-2.9,1.3-2.9,2.9c0,1.6,1.3,2.9,2.9,2.9h29.5c1.6,0,2.9-1.3,2.9-2.9
			C50.1,25.8,48.8,24.4,47.1,24.4z M47.1,40.2H17.6c-1.6,0-2.9,1.3-2.9,2.9c0,1.6,1.3,2.9,2.9,2.9h29.5c1.6,0,2.9-1.3,2.9-2.9
			C50.1,41.5,48.8,40.2,47.1,40.2z M5.8,24.4c-1.6,0-2.9,1.3-2.9,2.9c0,1.6,1.3,2.9,2.9,2.9c1.6,0,2.9-1.3,2.9-2.9
			C8.8,25.8,7.5,24.4,5.8,24.4z M5.8,40.2c-1.6,0-2.9,1.3-2.9,2.9c0,1.6,1.3,2.9,2.9,2.9c1.6,0,2.9-1.3,2.9-2.9
			C8.8,41.5,7.5,40.2,5.8,40.2z M0.1,8.7l5.8,8.7l8.7-14.5l-8.7,8.7L0.1,8.7z"/>
	</g>
</g>
</svg>
