<?xml version="1.0" encoding="utf-8"?>
<!-- Generator: Adobe Illustrator 22.0.1, SVG Export Plug-In . SVG Version: 6.00 Build 0)  -->
<svg version="1.1" id="圖層_1" xmlns="http://www.w3.org/2000/svg" xmlns:xlink="http://www.w3.org/1999/xlink" x="0px" y="0px"
	 width="50px" height="100px" viewBox="0 0 50 100" style="enable-background:new 0 0 50 100;" xml:space="preserve">
<style type="text/css">
	.st0{fill:#2680E1;}
	.st1{fill:#FF8A8A;}
	.st2{fill:#FF0000;}
</style>
<g>
	<rect x="13" y="8.2" class="st0" width="2.9" height="14.4"/>
	<rect x="27.1" y="8.2" class="st0" width="2.9" height="14.4"/>
	<rect x="20" y="3.4" class="st0" width="2.9" height="19.3"/>
	<rect x="34.1" y="0.4" class="st0" width="2.9" height="22.2"/>
</g>
<g>
	<path class="st1" d="M35.19,29.92h-7.81l4.03-3.7c0.47-0.43,0.5-1.13,0.07-1.6l0,0c-0.43-0.47-1.13-0.5-1.6-0.07l-5.46,5
		l-4.39-3.62c-0.48-0.4-1.2-0.32-1.6,0.16s-0.32,1.2,0.15,1.6l2.73,2.23H14.8c-1.25,0-2.27,1.03-2.27,2.27v14.73
		c0,1.25,1.03,2.27,2.27,2.27h20.4c1.25,0,2.27-1.03,2.27-2.27V32.19C37.46,30.95,36.44,29.92,35.19,29.92z M35.19,46.93H14.8V32.19
		h9.68H35.2v14.73h-0.01C35.19,46.92,35.19,46.93,35.19,46.93z"/>
	<path class="st1" d="M23.99,35.09c-0.45-0.37-1.03-0.57-1.63-0.57c-1.67,0-2.92,1.36-2.92,3.17c0,1.95,1.57,3.29,3.93,5.31
		c0.4,0.34,0.87,0.73,1.34,1.14c0.13,0.12,0.32,0.12,0.45,0c0.48-0.41,0.94-0.81,1.34-1.14c2.36-2.02,3.93-3.36,3.93-5.31
		c0-1.82-1.26-3.17-2.92-3.17c-0.6,0-1.16,0.21-1.63,0.57c-0.4,0.31-0.7,0.7-0.95,1.14C24.71,35.79,24.38,35.39,23.99,35.09z"/>
</g>
<g>
	<rect x="13" y="58.2" class="st2" width="2.9" height="14.4"/>
	<rect x="27.1" y="58.2" class="st2" width="2.9" height="14.4"/>
	<rect x="20" y="53.4" class="st2" width="2.9" height="19.3"/>
	<rect x="34.1" y="50.4" class="st2" width="2.9" height="22.2"/>
</g>
<g>
	<path class="st1" d="M35.19,79.92h-7.81l4.03-3.7c0.47-0.43,0.5-1.13,0.07-1.6l0,0c-0.43-0.47-1.13-0.5-1.6-0.07l-5.46,5
		l-4.39-3.62c-0.48-0.4-1.2-0.32-1.6,0.16s-0.32,1.2,0.15,1.6l2.73,2.23H14.8c-1.25,0-2.27,1.03-2.27,2.27v14.73
		c0,1.25,1.03,2.27,2.27,2.27h20.4c1.25,0,2.27-1.03,2.27-2.27V82.19C37.46,80.95,36.44,79.92,35.19,79.92z M35.19,96.93H14.8V82.19
		h9.68H35.2v14.73h-0.01C35.19,96.92,35.19,96.93,35.19,96.93z"/>
	<path class="st1" d="M23.99,85.09c-0.45-0.37-1.03-0.57-1.63-0.57c-1.67,0-2.92,1.36-2.92,3.17c0,1.95,1.57,3.29,3.93,5.31
		c0.4,0.34,0.87,0.73,1.34,1.14c0.13,0.12,0.32,0.12,0.45,0c0.48-0.41,0.94-0.81,1.34-1.14c2.36-2.02,3.93-3.36,3.93-5.31
		c0-1.82-1.26-3.17-2.92-3.17c-0.6,0-1.16,0.21-1.63,0.57c-0.4,0.31-0.7,0.7-0.95,1.14C24.71,85.79,24.38,85.39,23.99,85.09z"/>
</g>
</svg>
