<?xml version="1.0" encoding="utf-8"?>
<!-- Generator: Adobe Illustrator 22.0.1, SVG Export Plug-In . SVG Version: 6.00 Build 0)  -->
<svg version="1.1" id="圖層_1" xmlns="http://www.w3.org/2000/svg" xmlns:xlink="http://www.w3.org/1999/xlink" x="0px" y="0px"
	 width="50px" height="50px" viewBox="0 0 50 50" style="enable-background:new 0 0 50 50;" xml:space="preserve">
<style type="text/css">
	.st0{fill:#FF8A8A;}
</style>
<g>
	<path class="st0" d="M37.21,16.84h-9.36l4.84-4.43c0.56-0.51,0.6-1.35,0.09-1.92l0,0c-0.51-0.56-1.35-0.6-1.92-0.09l-6.54,6
		l-5.26-4.34c-0.58-0.47-1.44-0.39-1.92,0.19c-0.48,0.58-0.39,1.44,0.18,1.92l3.27,2.67h-7.83c-1.49,0-2.73,1.23-2.73,2.73v17.66
		c0,1.49,1.23,2.73,2.73,2.73h24.47c1.49,0,2.73-1.23,2.73-2.73V19.57C39.94,18.07,38.71,16.84,37.21,16.84z M37.21,37.23H12.77
		V19.57h11.61h12.86v17.66C37.24,37.23,37.21,37.23,37.21,37.23z"/>
	<path class="st0" d="M23.8,23.03c-0.55-0.44-1.23-0.69-1.95-0.69c-2.01,0-3.5,1.64-3.5,3.8c0,2.34,1.88,3.94,4.71,6.37
		c0.47,0.4,1.04,0.88,1.6,1.37c0.16,0.14,0.39,0.14,0.55,0c0.58-0.49,1.13-0.97,1.6-1.37c2.83-2.43,4.71-4.03,4.71-6.37
		c0-2.18-1.51-3.8-3.5-3.8c-0.72,0-1.39,0.25-1.95,0.69c-0.47,0.37-0.84,0.84-1.14,1.37C24.66,23.88,24.25,23.4,23.8,23.03z"/>
</g>
</svg>
