<?xml version="1.0" encoding="utf-8"?>
<!-- Generator: Adobe Illustrator 16.0.0, SVG Export Plug-In . SVG Version: 6.00 Build 0)  -->
<!DOCTYPE svg PUBLIC "-//W3C//DTD SVG 1.1//EN" "http://www.w3.org/Graphics/SVG/1.1/DTD/svg11.dtd">
<svg version="1.1" id="Capa_1" xmlns="http://www.w3.org/2000/svg" xmlns:xlink="http://www.w3.org/1999/xlink" x="0px" y="0px"
	 width="50px" height="50px" viewBox="0 0 50 50" enable-background="new 0 0 50 50" xml:space="preserve">
<path fill="#FFC33A" d="M48.033,18.755c0.008,0.138-0.003,0.278-0.037,0.417l-3.084,12.336c-0.156,0.622-0.713,1.059-1.354,1.063
	l-18.504,0.094c-0.002,0-0.005,0-0.007,0H6.542c-0.644,0-1.205-0.439-1.36-1.063L2.098,19.217c-0.035-0.143-0.046-0.287-0.037-0.428
	C0.868,18.414,0,17.297,0,15.981c0-1.624,1.32-2.944,2.944-2.944s2.944,1.32,2.944,2.944c0,0.914-0.419,1.732-1.075,2.272
	l3.861,3.891c0.976,0.983,2.33,1.547,3.715,1.547c1.638,0,3.2-0.778,4.184-2.081l6.346-8.409c-0.533-0.533-0.863-1.269-0.863-2.08
	c0-1.624,1.32-2.944,2.944-2.944c1.623,0,2.943,1.32,2.943,2.944c0,0.787-0.313,1.502-0.817,2.031
	c0.002,0.002,0.004,0.004,0.006,0.006l6.3,8.431c0.982,1.316,2.551,2.102,4.193,2.102c1.398,0,2.713-0.544,3.701-1.533l3.886-3.886
	c-0.67-0.54-1.1-1.366-1.1-2.291c0-1.624,1.32-2.944,2.944-2.944c1.623,0,2.943,1.32,2.943,2.944
	C50,17.262,49.177,18.351,48.033,18.755z M44.611,37.057c0-0.775-0.629-1.402-1.402-1.402H6.947c-0.774,0-1.402,0.627-1.402,1.402
	v3.363c0,0.775,0.627,1.402,1.402,1.402h36.262c0.773,0,1.402-0.627,1.402-1.402V37.057z"/>
</svg>
