<?xml version="1.0" encoding="utf-8"?>
<!-- Generator: Adobe Illustrator 22.0.1, SVG Export Plug-In . SVG Version: 6.00 Build 0)  -->
<svg version="1.1" id="圖層_1" xmlns="http://www.w3.org/2000/svg" xmlns:xlink="http://www.w3.org/1999/xlink" x="0px" y="0px"
	 width="50px" height="100px" viewBox="0 0 50 100" style="enable-background:new 0 0 50 100;" xml:space="preserve">
<style type="text/css">
	.st0{fill:#FF0000;}
	.st1{fill:#2680E1;}
</style>
<path class="st0" d="M36.6,63.5H13.4c-1.9,0-3.4,1.6-3.4,3.4v13.9c0,1.9,1.6,3.4,3.4,3.4h11.1v3.2h-6.2v1.1h13.4v-1.1h-6.2v-3.2
	h11.1c1.9,0,3.4-1.6,3.4-3.4V67C40.1,65.2,38.5,63.5,36.6,63.5z M38.9,80.9c0,1.2-1,2.2-2.2,2.2H13.4c-1.2,0-2.2-1-2.2-2.2V67
	c0-1.2,1-2.2,2.2-2.2h23.3c1.2,0,2.2,1,2.2,2.2C38.9,67,38.9,80.9,38.9,80.9z"/>
<path class="st1" d="M36.6,13.5H13.4c-1.9,0-3.4,1.6-3.4,3.4v13.9c0,1.9,1.6,3.4,3.4,3.4h11.1v3.2h-6.2v1.1h13.4v-1.1h-6.2v-3.2
	h11.1c1.9,0,3.4-1.6,3.4-3.4V17C40.1,15.2,38.5,13.5,36.6,13.5z M38.9,30.9c0,1.2-1,2.2-2.2,2.2H13.4c-1.2,0-2.2-1-2.2-2.2V17
	c0-1.2,1-2.2,2.2-2.2h23.3c1.2,0,2.2,1,2.2,2.2C38.9,17,38.9,30.9,38.9,30.9z"/>
</svg>
