<?xml version="1.0" encoding="utf-8"?>
<!-- Generator: Adobe Illustrator 24.3.0, SVG Export Plug-In . SVG Version: 6.00 Build 0)  -->
<svg version="1.1" id="圖層_1" xmlns="http://www.w3.org/2000/svg" xmlns:xlink="http://www.w3.org/1999/xlink" x="0px" y="0px"
	 width="50px" height="50px" viewBox="0 0 50 50" style="enable-background:new 0 0 50 50;" xml:space="preserve">
<style type="text/css">
	.st0{fill:#000000;}
</style>
<path class="st0" d="M37.79,21.81h-0.42H37.1l0.01-9.88C37.11,5.35,31.76,0,25.18,0h-0.41c-6.58,0-11.93,5.35-11.93,11.93v9.88
	h-0.25h-0.42c-3.3,0-6,2.7-6,6V44c0,3.3,2.7,6,6,6h25.62c3.3,0,6-2.7,6-6V27.81C43.79,24.51,41.09,21.81,37.79,21.81z M18.34,11.93
	c0-3.54,2.88-6.43,6.43-6.43h0.41c3.55,0,6.43,2.88,6.43,6.43v9.88h-0.45H18.79h-0.45V11.93z M28.17,42.56
	c0.07,0.33-0.18,0.64-0.52,0.64H22.3c-0.34,0-0.59-0.31-0.52-0.64l1.45-6.82c-0.95-0.59-1.59-1.62-1.59-2.81
	c0-1.82,1.45-3.28,3.26-3.32c0.05-0.01,0.1-0.01,0.14,0c1.81,0.04,3.26,1.51,3.26,3.32c0,1.2-0.64,2.23-1.59,2.81L28.17,42.56z"/>
</svg>
