<?xml version="1.0" encoding="utf-8"?>
<!-- Generator: Adobe Illustrator 22.0.1, SVG Export Plug-In . SVG Version: 6.00 Build 0)  -->
<svg version="1.1" id="圖層_1" xmlns="http://www.w3.org/2000/svg" xmlns:xlink="http://www.w3.org/1999/xlink" x="0px" y="0px"
	 width="50px" height="100px" viewBox="0 0 50 100" style="enable-background:new 0 0 50 100;" xml:space="preserve">
<style type="text/css">
	.st0{fill:#FF0000;}
	.st1{fill:#2680E1;}
</style>
<g>
	<path class="st0" d="M7.5,81.8V70.2h2.4v9.8h5.9v1.9H7.5z"/>
	<path class="st0" d="M17.6,81.8V70.1H20v11.8C20,81.8,17.6,81.8,17.6,81.8z"/>
	<path class="st0" d="M25.3,81.8L21,70.1h2.7l3,8.9l3-8.9H32l-4.3,11.8C27.7,81.8,25.3,81.8,25.3,81.8z"/>
	<path class="st0" d="M33.3,70.1h8.9v2.1h-6.5v2.6h5.9v2h-5.9v3.2h6.7v2h-9.2V70.1H33.3z"/>
</g>
<g>
	<path class="st1" d="M7.5,31.8V20.2h2.4V30h5.9v1.9H7.5z"/>
	<path class="st1" d="M17.6,31.8V20H20v11.8C20,31.9,17.6,31.9,17.6,31.8z"/>
	<path class="st1" d="M25.3,31.8L21,20h2.7l3,8.9l3-8.9H32l-4.3,11.8C27.7,31.9,25.3,31.9,25.3,31.8z"/>
	<path class="st1" d="M33.3,20h8.9v2.1h-6.5v2.6h5.9v2h-5.9V30h6.7v2h-9.2V20H33.3z"/>
</g>
</svg>
