<?xml version="1.0" encoding="utf-8"?>
<!-- Generator: Adobe Illustrator 16.0.0, SVG Export Plug-In . SVG Version: 6.00 Build 0)  -->
<!DOCTYPE svg PUBLIC "-//W3C//DTD SVG 1.1//EN" "http://www.w3.org/Graphics/SVG/1.1/DTD/svg11.dtd" [
	<!ENTITY ns_flows "http://ns.adobe.com/Flows/1.0/">
	<!ENTITY ns_extend "http://ns.adobe.com/Extensibility/1.0/">
	<!ENTITY ns_ai "http://ns.adobe.com/AdobeIllustrator/10.0/">
	<!ENTITY ns_graphs "http://ns.adobe.com/Graphs/1.0/">
	<!ENTITY ns_vars "http://ns.adobe.com/Variables/1.0/">
	<!ENTITY ns_imrep "http://ns.adobe.com/ImageReplacement/1.0/">
	<!ENTITY ns_sfw "http://ns.adobe.com/SaveForWeb/1.0/">
	<!ENTITY ns_custom "http://ns.adobe.com/GenericCustomNamespace/1.0/">
	<!ENTITY ns_adobe_xpath "http://ns.adobe.com/XPath/1.0/">
]>
<svg version="1.1" id="圖層_1" xmlns:x="&ns_extend;" xmlns:i="&ns_ai;" xmlns:graph="&ns_graphs;"
	 xmlns="http://www.w3.org/2000/svg" xmlns:xlink="http://www.w3.org/1999/xlink" xmlns:a="http://ns.adobe.com/AdobeSVGViewerExtensions/3.0/"
	 x="0px" y="0px" width="50px" height="50px" viewBox="0 0 50 50" style="enable-background:new 0 0 50 50;" xml:space="preserve">
<style type="text/css">
<![CDATA[
	.st0{fill:#5e5e5e;}
]]>
</style>
<metadata>
	<sfw  xmlns="&ns_sfw;">
		<slices></slices>
		<sliceSourceBounds  height="45.6" width="50" y="2.7" x="-0.5" bottomLeftOrigin="true"></sliceSourceBounds>
	</sfw>
</metadata>
<g>
	<path class="st0" d="M30.9,13.5h-0.8c1-1.2,1.6-2.7,1.6-4.4c0-3.8-3.1-6.9-6.9-6.9S18,5.3,18,9.1c0,1.7,0.6,3.2,1.6,4.4h-0.8
		c-1.6,0-2.9,1.6-2.9,3.6v11c0,2,1.3,3.6,2.9,3.6h0.6v12.5c0,2,1.3,3.6,2.9,3.6h4.9c1.6,0,2.9-1.6,2.9-3.6V31.7h0.6
		c1.6,0,2.9-1.6,2.9-3.6v-11C33.8,15.1,32.5,13.5,30.9,13.5z M24.9,4.6c2.5,0,4.5,2,4.5,4.5c0,2.3-1.7,4.1-3.8,4.4h-1.4
		c-2.2-0.3-3.8-2.2-3.8-4.4C20.4,6.6,22.4,4.6,24.9,4.6z M31.5,28.1c0,0.7-0.5,1.3-1.1,1.3h-1.1h-0.4c-0.5,0-0.9,0.4-1,0.8v13.9
		c0,0.7-0.5,1.3-1.1,1.3h-3.9c-0.6,0-1.1-0.6-1.1-1.3V31.4h0v-1c0-0.5-0.4-1-1-1h-0.4h-1c-0.6,0-1.1-0.6-1.1-1.3V17.3
		c0-0.7,0.5-1.3,1.1-1.3h11c0.6,0,1.1,0.6,1.1,1.3V28.1z"/>
	<path class="st0" d="M47.1,13.5h-0.8c1-1.2,1.6-2.7,1.6-4.4c0-3.8-3.1-6.9-6.9-6.9s-6.9,3.1-6.9,6.9c0,1.7,0.6,3.2,1.6,4.4h-0.8
		c-0.4,0-0.9,0.1-1.3,0.4c0.7,0.4,1.3,1.2,1.5,2.2c0.1,0,0.1,0,0.2,0h11c0.6,0,1.1,0.6,1.1,1.3v10.8c0,0.7-0.5,1.3-1.1,1.3h-1.1
		h-0.4c-0.5,0-0.9,0.4-1,0.8v13.9c0,0.7-0.5,1.3-1.1,1.3h-3.9c-0.6,0-1.1-0.6-1.1-1.3V31.4h0v-1c0-0.5-0.4-1-1-1h-0.4h-1
		c-0.1,0-0.2,0-0.2-0.1c-0.3,0.9-0.8,1.6-1.5,2c0.4,0.2,0.8,0.4,1.3,0.4h0.6v12.5c0,2,1.3,3.6,2.9,3.6h4.9c1.6,0,2.9-1.6,2.9-3.6
		V31.7h0.6c1.6,0,2.9-1.6,2.9-3.6v-11C50,15.1,48.7,13.5,47.1,13.5z M41.8,13.5h-1.4c-2.2-0.3-3.8-2.2-3.8-4.4c0-2.5,2-4.5,4.5-4.5
		c2.5,0,4.5,2,4.5,4.5C45.6,11.3,43.9,13.2,41.8,13.5z"/>
	<path class="st0" d="M14.6,29.4c-0.1,0-0.1,0.1-0.2,0.1h-1H13c-0.5,0-1,0.4-1,1v1h0v12.7c0,0.7-0.5,1.3-1.1,1.3H7
		c-0.6,0-1.1-0.6-1.1-1.3V30.3c-0.1-0.5-0.5-0.8-1-0.8H4.5H3.4c-0.6,0-1.1-0.6-1.1-1.3V17.3c0-0.7,0.5-1.3,1.1-1.3h11
		c0.1,0,0.1,0,0.2,0c0.2-1,0.8-1.7,1.5-2.2c-0.4-0.2-0.8-0.4-1.3-0.4h-0.8c1-1.2,1.6-2.7,1.6-4.4c0-3.8-3.1-6.9-6.9-6.9
		S2.1,5.3,2.1,9.1c0,1.7,0.6,3.2,1.6,4.4H2.9c-1.6,0-2.9,1.6-2.9,3.6v11c0,2,1.3,3.6,2.9,3.6h0.6v12.5c0,2,1.3,3.6,2.9,3.6h4.9
		c1.6,0,2.9-1.6,2.9-3.6V31.7h0.6c0.4,0,0.9-0.1,1.3-0.4C15.5,31,14.9,30.3,14.6,29.4z M8.9,4.6c2.5,0,4.5,2,4.5,4.5
		c0,2.3-1.7,4.1-3.8,4.4H8.2c-2.2-0.3-3.8-2.2-3.8-4.4C4.4,6.6,6.4,4.6,8.9,4.6z"/>
</g>
</svg>
