<?xml version="1.0" encoding="utf-8"?>
<!-- Generator: Adobe Illustrator 16.0.0, SVG Export Plug-In . SVG Version: 6.00 Build 0)  -->
<!DOCTYPE svg PUBLIC "-//W3C//DTD SVG 1.1//EN" "http://www.w3.org/Graphics/SVG/1.1/DTD/svg11.dtd">
<svg version="1.1" id="圖層_1" xmlns="http://www.w3.org/2000/svg" xmlns:xlink="http://www.w3.org/1999/xlink" x="0px" y="0px"
	 width="50px" height="50px" viewBox="0 0 50 50" enable-background="new 0 0 50 50" xml:space="preserve">
<path fill="#5e5e5e" d="M50,18.459V5.946l-4.691,4.502C40.67,3.984,33.14,0,25,0C11.215,0,0,11.215,0,25s11.215,25,25,25
	c8.404,0,16.199-4.19,20.851-11.21c0.61-0.92,0.358-2.161-0.563-2.771c-0.922-0.612-2.162-0.358-2.771,0.563
	C38.607,42.479,32.06,46,25,46C13.42,46,4,36.579,4,25C4,13.42,13.42,4,25,4c7.033,0,13.523,3.544,17.388,9.252l-5.428,5.209
	L50,18.459z"/>
</svg>
