<?xml version="1.0" encoding="utf-8"?>
<!-- Generator: Adobe Illustrator 16.0.0, SVG Export Plug-In . SVG Version: 6.00 Build 0)  -->
<!DOCTYPE svg PUBLIC "-//W3C//DTD SVG 1.1//EN" "http://www.w3.org/Graphics/SVG/1.1/DTD/svg11.dtd">
<svg version="1.1" id="圖層_1" xmlns="http://www.w3.org/2000/svg" xmlns:xlink="http://www.w3.org/1999/xlink" x="0px" y="0px"
	 width="20px" height="20px" viewBox="0 0 20 20" enable-background="new 0 0 20 20" xml:space="preserve">
<g>
	<g>
		<path fill="#FFCE9A" d="M1.72,9.998c0-4.569,3.704-8.273,8.273-8.273c3.725,0,6.873,2.46,7.911,5.844h1.778
			c-0.475-1.911-1.513-3.702-3.11-5.097C12.414-1.161,6.097-0.735,2.462,3.425c-3.521,4.033-3.215,10.085,0.594,13.76l1.133-1.297
			C2.666,14.389,1.72,12.305,1.72,9.998z"/>
		<path fill="#FFCE9A" d="M5.134,16.684l-1.1,1.333c0.439,0.327,0.891,0.62,1.363,0.865l0.719-1.576
			C5.773,17.122,5.447,16.912,5.134,16.684z"/>
		<path fill="#FFCE9A" d="M7.25,17.796l-0.676,1.602c0.512,0.188,1.033,0.325,1.561,0.425l0.236-1.712
			C7.986,18.033,7.613,17.924,7.25,17.796z"/>
		<path fill="#FFCE9A" d="M9.994,18.271c-0.107,0-0.212-0.012-0.318-0.017l-0.174,1.729c0.541,0.028,1.08,0.006,1.615-0.056
			l-0.279-1.7C10.56,18.257,10.279,18.271,9.994,18.271z"/>
		<path fill="#FFCE9A" d="M12.123,17.985l0.343,1.698c0.521-0.135,1.032-0.305,1.528-0.521l-0.77-1.546
			C12.87,17.768,12.5,17.885,12.123,17.985z"/>
		<path fill="#FFCE9A" d="M14.427,16.977l0.841,1.519c0.455-0.282,0.891-0.6,1.303-0.956l-1.209-1.251
			C15.067,16.539,14.755,16.768,14.427,16.977z"/>
	</g>
	<path fill="#FFCE9A" d="M9.754,15H7.841V7.79C7.142,8.444,6.318,8.926,5.37,9.241V7.504c0.499-0.164,1.042-0.474,1.628-0.93
		c0.585-0.456,0.986-0.988,1.205-1.597h1.552V15z"/>
	<path fill="#FFCE9A" d="M12.318,7.889v2.615c0.439-0.514,0.965-0.772,1.576-0.772c0.314,0,0.598,0.059,0.85,0.176
		c0.252,0.115,0.441,0.264,0.57,0.445c0.127,0.181,0.215,0.381,0.262,0.601s0.068,0.562,0.068,1.023V15h-1.361v-2.722
		c0-0.54-0.025-0.883-0.078-1.028c-0.053-0.145-0.143-0.261-0.273-0.347c-0.131-0.085-0.295-0.129-0.492-0.129
		c-0.227,0-0.43,0.055-0.605,0.166c-0.18,0.109-0.311,0.275-0.391,0.497c-0.084,0.222-0.125,0.548-0.125,0.982V15h-1.363V7.889
		H12.318z"/>
	<path fill="#FFCE9A" d="M18.025,15h-1.363V9.849h1.267v0.731c0.216-0.344,0.411-0.572,0.584-0.682
		c0.174-0.109,0.37-0.166,0.591-0.166c0.31,0,0.608,0.086,0.896,0.258l-0.422,1.188c-0.229-0.149-0.443-0.224-0.642-0.224
		c-0.19,0-0.352,0.054-0.483,0.158c-0.134,0.105-0.237,0.295-0.313,0.569c-0.076,0.275-0.114,0.85-0.114,1.727V15z"/>
</g>
</svg>
