<?xml version="1.0" encoding="utf-8"?>
<!-- Generator: Adobe Illustrator 22.0.1, SVG Export Plug-In . SVG Version: 6.00 Build 0)  -->
<svg version="1.1" id="圖層_1" xmlns="http://www.w3.org/2000/svg" xmlns:xlink="http://www.w3.org/1999/xlink" x="0px" y="0px"
	 width="50px" height="100px" viewBox="0 0 50 100" style="enable-background:new 0 0 50 100;" xml:space="preserve">
<style type="text/css">
	.st0{fill:#2680E1;}
	.st1{fill:#FF0000;}
</style>
<g>
	<path class="st0" d="M35.4,26.9H14.6c-1.7,0-3,1.4-3,3v12.4c0,1.7,1.4,3,3,3h9.9v2.9H19v1h12v-1h-5.5v-2.9h9.9c1.7,0,3-1.4,3-3V30
		C38.5,28.4,37.1,26.9,35.4,26.9z M37.4,42.4c0,1.1-0.9,2-2,2H14.6c-1.1,0-2-0.9-2-2V30c0-1.1,0.9-2,2-2h20.8c1.1,0,2,0.9,2,2V42.4z
		"/>
	<g>
		<rect x="13" y="8.2" class="st0" width="2.9" height="14.4"/>
		<rect x="27.1" y="8.2" class="st0" width="2.9" height="14.4"/>
		<rect x="20" y="3.4" class="st0" width="2.9" height="19.3"/>
		<rect x="34.1" y="0.4" class="st0" width="2.9" height="22.2"/>
	</g>
</g>
<g>
	<path class="st1" d="M35.4,76.9H14.6c-1.7,0-3,1.4-3,3v12.4c0,1.7,1.4,3,3,3h9.9v2.9H19v1h12v-1h-5.5v-2.9h9.9c1.7,0,3-1.4,3-3V80
		C38.5,78.4,37.1,76.9,35.4,76.9z M37.4,92.4c0,1.1-0.9,2-2,2H14.6c-1.1,0-2-0.9-2-2V80c0-1.1,0.9-2,2-2h20.8c1.1,0,2,0.9,2,2V92.4z
		"/>
	<g>
		<rect x="13" y="58.2" class="st1" width="2.9" height="14.4"/>
		<rect x="27.1" y="58.2" class="st1" width="2.9" height="14.4"/>
		<rect x="20" y="53.4" class="st1" width="2.9" height="19.3"/>
		<rect x="34.1" y="50.4" class="st1" width="2.9" height="22.2"/>
	</g>
</g>
</svg>
