<?xml version="1.0" encoding="utf-8"?>
<!-- Generator: Adobe Illustrator 16.0.0, SVG Export Plug-In . SVG Version: 6.00 Build 0)  -->
<!DOCTYPE svg PUBLIC "-//W3C//DTD SVG 1.1//EN" "http://www.w3.org/Graphics/SVG/1.1/DTD/svg11.dtd" [
	<!ENTITY ns_flows "http://ns.adobe.com/Flows/1.0/">
	<!ENTITY ns_extend "http://ns.adobe.com/Extensibility/1.0/">
	<!ENTITY ns_ai "http://ns.adobe.com/AdobeIllustrator/10.0/">
	<!ENTITY ns_graphs "http://ns.adobe.com/Graphs/1.0/">
	<!ENTITY ns_vars "http://ns.adobe.com/Variables/1.0/">
	<!ENTITY ns_imrep "http://ns.adobe.com/ImageReplacement/1.0/">
	<!ENTITY ns_sfw "http://ns.adobe.com/SaveForWeb/1.0/">
	<!ENTITY ns_custom "http://ns.adobe.com/GenericCustomNamespace/1.0/">
	<!ENTITY ns_adobe_xpath "http://ns.adobe.com/XPath/1.0/">
]>
<svg version="1.1" id="圖層_1" xmlns:x="&ns_extend;" xmlns:i="&ns_ai;" xmlns:graph="&ns_graphs;"
	 xmlns="http://www.w3.org/2000/svg" xmlns:xlink="http://www.w3.org/1999/xlink" xmlns:a="http://ns.adobe.com/AdobeSVGViewerExtensions/3.0/"
	 x="0px" y="0px" width="50px" height="50px" viewBox="0 0 50 50" style="enable-background:new 0 0 50 50;" xml:space="preserve">
<style type="text/css">
<![CDATA[
	.st0{fill:#ffdf1a;}
]]>
</style>
<metadata>
	<sfw  xmlns="&ns_sfw;">
		<slices></slices>
		<sliceSourceBounds  height="50" width="50" y="0.5" x="-0.5" bottomLeftOrigin="true"></sliceSourceBounds>
	</sfw>
</metadata>
<g>
	<path class="st0" d="M42.6,7.4C37.9,2.6,31.6,0,25,0C18.4,0,12.1,2.6,7.4,7.4C2.6,12.1,0,18.4,0,25c0,6.6,2.6,12.9,7.4,17.6
		c4.7,4.7,11,7.4,17.6,7.4c6.6,0,12.9-2.6,17.6-7.4c4.7-4.7,7.4-11,7.4-17.6C50,18.4,47.4,12.1,42.6,7.4z M25,46.3
		C13.2,46.3,3.7,36.8,3.7,25C3.7,13.2,13.2,3.7,25,3.7c11.8,0,21.3,9.6,21.3,21.3C46.3,36.8,36.8,46.3,25,46.3z"/>
	<path class="st0" d="M30.2,23.2c-1.1-0.6-2.4-1.2-3.9-1.7c-1.4-0.5-2.3-0.9-2.8-1.3c-0.4-0.2-0.4-0.7-0.4-1.1c0-0.6,0.2-1,0.5-1.4
		c0.4-0.4,0.8-0.5,1.5-0.5c1.3,0,2.3,0.9,3,2.8l0.2,0.5l4.6-1.9l-0.1-0.4c-0.9-3.1-2.9-5-5.9-5.5v-2.6h-3.8v2.6
		c-2,0.4-3.5,1.2-4.3,2.4c-1,1.3-1.5,2.9-1.5,4.6c0,1.3,0.3,2.4,0.8,3.4c0.5,0.9,1.2,1.7,2.2,2.3c0.8,0.4,2,1.1,3.6,1.6
		c0.6,0.2,2.5,0.9,3.1,1.4c0.4,0.3,0.6,0.8,0.6,1.3s-0.2,1-0.6,1.5c-0.4,0.4-1.1,0.6-2,0.6c-1.9,0-3-1-3.4-3.2l-0.1-0.5l-5.2,1.3
		l0.1,0.5c0.9,3.8,3.1,6,6.6,6.6v3.3h3.8v-3.3c2-0.3,3.6-1,4.8-2.3c1.2-1.3,1.9-3.1,1.9-5.1c0-1.3-0.3-2.5-0.9-3.5
		C32.1,24.7,31.3,23.9,30.2,23.2z"/>
</g>
</svg>
