<?xml version="1.0" encoding="utf-8"?>
<!-- Generator: Adobe Illustrator 16.0.0, SVG Export Plug-In . SVG Version: 6.00 Build 0)  -->
<!DOCTYPE svg PUBLIC "-//W3C//DTD SVG 1.1//EN" "http://www.w3.org/Graphics/SVG/1.1/DTD/svg11.dtd" [
	<!ENTITY ns_flows "http://ns.adobe.com/Flows/1.0/">
	<!ENTITY ns_extend "http://ns.adobe.com/Extensibility/1.0/">
	<!ENTITY ns_ai "http://ns.adobe.com/AdobeIllustrator/10.0/">
	<!ENTITY ns_graphs "http://ns.adobe.com/Graphs/1.0/">
	<!ENTITY ns_vars "http://ns.adobe.com/Variables/1.0/">
	<!ENTITY ns_imrep "http://ns.adobe.com/ImageReplacement/1.0/">
	<!ENTITY ns_sfw "http://ns.adobe.com/SaveForWeb/1.0/">
	<!ENTITY ns_custom "http://ns.adobe.com/GenericCustomNamespace/1.0/">
	<!ENTITY ns_adobe_xpath "http://ns.adobe.com/XPath/1.0/">
]>
<svg version="1.1" id="圖層_1" xmlns:x="&ns_extend;" xmlns:i="&ns_ai;" xmlns:graph="&ns_graphs;"
	 xmlns="http://www.w3.org/2000/svg" xmlns:xlink="http://www.w3.org/1999/xlink" xmlns:a="http://ns.adobe.com/AdobeSVGViewerExtensions/3.0/"
	 x="0px" y="0px" width="50px" height="50px" viewBox="0 0 50 50" style="enable-background:new 0 0 50 50;" xml:space="preserve">
<style type="text/css">
<![CDATA[
	.st0{fill:#5e5e5e;}
]]>
</style>
<metadata>
	<sfw  xmlns="&ns_sfw;">
		<slices></slices>
		<sliceSourceBounds  height="48.5" width="50" y="1.3" x="-0.5" bottomLeftOrigin="true"></sliceSourceBounds>
	</sfw>
</metadata>
<g>
	<path class="st0" d="M23.1,40.1h4.5l0-4.1c2.8-0.2,4-0.5,5.5-1.8c1.5-1.3,2.5-3.2,2.5-5.2c0-1.6-0.5-2.3-1.3-3.3
		c-1.5-1.5-4-2.5-7.5-3.1c-3.2-0.5-7-1.3-6.6-3.7c0.5-3,3.9-2.8,4.9-2.8c2,0,3.9,0.2,4.8,2.9h4.7c-0.9-4.2-3.3-5.3-7.4-5.8V9.6h-4.2
		l0,3.6c-5.8,0.2-7.7,4-7.7,6c0,1.3,0.4,4.6,7.7,6.2c3.9,1,7.5,1,7.5,4.3c0,1.1-0.9,3.5-4.7,3.7c-2.9,0.2-6.5,0-7-3.9l-4.6,0
		c0.7,4.8,4.1,6.6,8.8,7L23.1,40.1z"/>
	<path class="st0" d="M50,8.2l-10.7-1l0,10.6l4.2-3.8c1.9,3.2,3,7,3,11c0,11.9-9.7,21.6-21.6,21.6c-2.1,0-4.2-0.3-6.2-0.9l-0.9,2.5
		c2.3,0.7,4.7,1.1,7.1,1.1c6.5,0,12.5-2.6,17.1-7.1c4.6-4.6,7.1-10.6,7.1-17.1c0-4.6-1.3-9-3.7-12.8L50,8.2z"/>
	<path class="st0" d="M3.4,25C3.4,13.1,13.1,3.4,25,3.4c3.4,0,6.6,0.8,9.4,2.2l1.2-2.4C32.3,1.6,28.7,0.8,25,0.8
		c-6.5,0-12.5,2.6-17.1,7.1S0.7,18.5,0.7,25c0,4.7,1.4,9.2,3.9,13L0,42.1L10.8,43l0.3-10.6l-4.5,4C4.6,33,3.4,29.1,3.4,25z"/>
</g>
</svg>
