<?xml version="1.0" encoding="utf-8"?>
<!-- Generator: Adobe Illustrator 16.0.0, SVG Export Plug-In . SVG Version: 6.00 Build 0)  -->
<!DOCTYPE svg PUBLIC "-//W3C//DTD SVG 1.1//EN" "http://www.w3.org/Graphics/SVG/1.1/DTD/svg11.dtd" [
	<!ENTITY ns_flows "http://ns.adobe.com/Flows/1.0/">
	<!ENTITY ns_extend "http://ns.adobe.com/Extensibility/1.0/">
	<!ENTITY ns_ai "http://ns.adobe.com/AdobeIllustrator/10.0/">
	<!ENTITY ns_graphs "http://ns.adobe.com/Graphs/1.0/">
	<!ENTITY ns_vars "http://ns.adobe.com/Variables/1.0/">
	<!ENTITY ns_imrep "http://ns.adobe.com/ImageReplacement/1.0/">
	<!ENTITY ns_sfw "http://ns.adobe.com/SaveForWeb/1.0/">
	<!ENTITY ns_custom "http://ns.adobe.com/GenericCustomNamespace/1.0/">
	<!ENTITY ns_adobe_xpath "http://ns.adobe.com/XPath/1.0/">
]>
<svg version="1.1" id="圖層_1" xmlns:x="&ns_extend;" xmlns:i="&ns_ai;" xmlns:graph="&ns_graphs;"
	 xmlns="http://www.w3.org/2000/svg" xmlns:xlink="http://www.w3.org/1999/xlink" xmlns:a="http://ns.adobe.com/AdobeSVGViewerExtensions/3.0/"
	 x="0px" y="0px" width="50px" height="50px" viewBox="0 0 50 50" style="enable-background:new 0 0 50 50;" xml:space="preserve">
<style type="text/css">
<![CDATA[
	.st0{fill:#5e5e5e;}
]]>
</style>
<metadata>
	<sfw  xmlns="&ns_sfw;">
		<slices></slices>
		<sliceSourceBounds  height="50" width="43.7" y="0.5" x="2.6" bottomLeftOrigin="true"></sliceSourceBounds>
	</sfw>
</metadata>
<g>
	<path class="st0" d="M11.4,13.9h27.2c1,0,1.9-0.9,1.9-1.9c0-1-0.9-1.9-1.9-1.9H11.4c-1,0-1.9,0.9-1.9,1.9
		C9.5,13,10.3,13.9,11.4,13.9z"/>
	<path class="st0" d="M11.4,24.4h27.2c1,0,1.9-0.9,1.9-1.9c0-1-0.9-1.9-1.9-1.9H11.4c-1,0-1.9,0.9-1.9,1.9
		C9.5,23.6,10.3,24.4,11.4,24.4z"/>
	<path class="st0" d="M24.7,31.6H11.4c-1,0-1.9,0.9-1.9,1.9c0,1,0.9,1.9,1.9,1.9h13.3c1,0,1.9-0.9,1.9-1.9
		C26.6,32.5,25.8,31.6,24.7,31.6z"/>
	<path class="st0" d="M43.8,0H6.1c-1.7,0-3,1.3-3,3v44c0,1.7,1.3,3,3,3h28.2l12.5-12.5V3C46.8,1.3,45.5,0,43.8,0z M33.9,45.5v-8.5
		h8.5L33.9,45.5z M6.7,3.5h36.7v30.4h-9.6c-1.7,0-3,1.3-3,3v9.6H6.7V3.5z"/>
</g>
</svg>
