<?xml version="1.0" encoding="utf-8"?>
<!-- Generator: Adobe Illustrator 22.0.1, SVG Export Plug-In . SVG Version: 6.00 Build 0)  -->
<svg version="1.1" id="圖層_1" xmlns="http://www.w3.org/2000/svg" xmlns:xlink="http://www.w3.org/1999/xlink" x="0px" y="0px"
	 width="50px" height="100px" viewBox="0 0 50 100" style="enable-background:new 0 0 50 100;" xml:space="preserve">
<style type="text/css">
	.st0{fill:#2680E1;}
	.st1{fill:#FF0000;}
</style>
<g>
	<g>
		<path class="st0" d="M12,44.4v-8.7h1.8V43h4.4v1.4H12z"/>
		<path class="st0" d="M19.5,44.4v-8.8h1.8v8.8H19.5z"/>
		<path class="st0" d="M25.2,44.4L22,35.6h2l2.2,6.6l2.2-6.6h1.8L27,44.4H25.2z"/>
		<path class="st0" d="M31.2,35.6h6.6v1.6H33v2h4.4v1.4H33V43h5v1.4h-6.8V35.6z"/>
	</g>
	<g>
		<rect x="12" y="14.5" class="st0" width="3.2" height="15.5"/>
		<rect x="27.2" y="14.5" class="st0" width="3.2" height="15.5"/>
		<rect x="19.6" y="9.2" class="st0" width="3.2" height="20.8"/>
		<rect x="34.8" y="5.6" class="st0" width="3.2" height="24.4"/>
	</g>
</g>
<g>
	<g>
		<path class="st1" d="M12,94.4v-8.7h1.8V93h4.4v1.4H12z"/>
		<path class="st1" d="M19.5,94.4v-8.8h1.8v8.8H19.5z"/>
		<path class="st1" d="M25.2,94.4L22,85.6h2l2.2,6.6l2.2-6.6h1.8L27,94.4H25.2z"/>
		<path class="st1" d="M31.2,85.6h6.6v1.6H33v2h4.4v1.4H33V93h5v1.4h-6.8V85.6z"/>
	</g>
	<g>
		<rect x="12" y="64.5" class="st1" width="3.2" height="15.5"/>
		<rect x="27.2" y="64.5" class="st1" width="3.2" height="15.5"/>
		<rect x="19.6" y="59.2" class="st1" width="3.2" height="20.8"/>
		<rect x="34.8" y="55.6" class="st1" width="3.2" height="24.4"/>
	</g>
</g>
</svg>
