<?xml version="1.0" encoding="utf-8"?>
<!-- Generator: Adobe Illustrator 22.0.1, SVG Export Plug-In . SVG Version: 6.00 Build 0)  -->
<svg version="1.1" id="圖層_1" xmlns="http://www.w3.org/2000/svg" xmlns:xlink="http://www.w3.org/1999/xlink" x="0px" y="0px"
	 width="50px" height="50px" viewBox="0 0 50 50" style="enable-background:new 0 0 50 50;" xml:space="preserve">
<style type="text/css">
	.st0{fill:#5795EC;}
</style>
<g>
	<path class="st0" d="M31,36.9"/>
	<path class="st0" d="M50,23.9c0-4-1.5-7.8-4.4-10.7c-0.5-0.5-1.4-0.5-1.9,0c-0.5,0.5-0.5,1.4,0,1.9c2.3,2.4,3.6,5.5,3.6,8.8
		c0,3.3-1.3,6.4-3.7,8.7c-0.5,0.5-0.5,1.4,0,1.9c0,0,0,0,0,0c0.5,0.5,1.4,0.5,1.9,0C48.4,31.7,50,27.9,50,23.9L50,23.9z"/>
	<path class="st0" d="M41.7,17C41.7,17,41.7,17,41.7,17c-0.5-0.5-1.4-0.5-1.9,0c-0.5,0.5-0.5,1.4,0,1.9c1.3,1.3,2,3,2,4.9
		c0,1.8-0.7,3.6-2,4.8c-0.5,0.5-0.5,1.4,0,1.9c0,0,0,0,0,0c0.5,0.5,1.4,0.5,1.9,0c1.8-1.8,2.8-4.2,2.9-6.8
		C44.5,21.3,43.5,18.8,41.7,17L41.7,17z M41.7,17"/>
	<path class="st0" d="M29.5,7.4L18,14.3l-11.1,0c-0.8,0-1.4,0.6-1.4,1.4l0,1l-4.1,0C0.6,16.7,0,17.3,0,18l0,10.5
		c0,0.8,0.6,1.4,1.4,1.4l4.1,0l0,1c0,0.8,0.6,1.4,1.4,1.4l1.5,0l0,9.3c0,0.8,0.6,1.4,1.4,1.4l5.7,0c0.8,0,1.4-0.6,1.4-1.4l0-9.3
		l1.1,0l11.5,6.9c1.9,1.2,4.3-0.2,4.3-2.4l0-27.2C33.8,7.5,31.4,6.2,29.5,7.4z M5.5,27.2l-2.8,0l0-7.8l2.8,0L5.5,27.2z M14.1,40.3
		l-2.9,0l0-8l2.9,0L14.1,40.3z M17,29.6c0,0-8.6,0-8.7,0l0-12.6l8.7,0L17,29.6z M31.1,36.9C31.1,36.9,31,37,31.1,36.9
		c-0.1,0-11.3-6.7-11.4-6.7c0-0.2,0-13.6,0-13.8c0,0,11.2-6.7,11.3-6.7c0.1,0,0.1,0,0.1,0.1L31.1,36.9z"/>
</g>
</svg>
