<?xml version="1.0" encoding="utf-8"?>
<!-- Generator: Adobe Illustrator 22.0.1, SVG Export Plug-In . SVG Version: 6.00 Build 0)  -->
<svg version="1.1" id="圖層_1" xmlns="http://www.w3.org/2000/svg" xmlns:xlink="http://www.w3.org/1999/xlink" x="0px" y="0px"
	 width="50px" height="100px" viewBox="0 0 50 100" style="enable-background:new 0 0 50 100;" xml:space="preserve">
<style type="text/css">
	.st0{fill:#318FE7;}
	.st1{fill:#FFFFFF;}
</style>
<g id="组_20" transform="translate(0)">
	<path id="路径_22" class="st0" d="M43.1,66.8c-0.4-0.7-1.1-1.3-2-1.3H30.2l5.7-11.4c0.4-1.1,0-2.4-0.9-2.8
		C34.3,51,34.1,51,33.7,51H20.5c-0.7,0-1.5,0.4-2,1.3L7,75.5c-0.4,1.1,0,2.4,0.9,2.8c0.2,0.2,0.7,0.2,0.9,0.2h11.8l-3.7,17.7
		c-0.2,1.1,0.4,2.4,1.8,2.6c0.9,0.2,1.8-0.2,2.2-0.9L42.6,69C43.3,68.5,43.3,67.6,43.1,66.8z"/>
</g>
<g id="组_20_1_" transform="translate(0)">
	<path id="路径_22_1_" class="st1" d="M43.1,16.8c-0.4-0.7-1.1-1.3-2-1.3H30.2l5.7-11.4c0.4-1.1,0-2.4-0.9-2.8
		C34.3,1,34.1,1,33.7,1H20.5c-0.7,0-1.5,0.4-2,1.3L7,25.5c-0.4,1.1,0,2.4,0.9,2.8c0.2,0.2,0.7,0.2,0.9,0.2h11.8l-3.7,17.7
		c-0.2,1.1,0.4,2.4,1.8,2.6c0.9,0.2,1.8-0.2,2.2-0.9L42.6,19C43.3,18.5,43.3,17.6,43.1,16.8z"/>
</g>
</svg>
