<?xml version="1.0" encoding="utf-8"?>
<!-- Generator: Adobe Illustrator 22.0.1, SVG Export Plug-In . SVG Version: 6.00 Build 0)  -->
<svg version="1.1" id="圖層_1" xmlns="http://www.w3.org/2000/svg" xmlns:xlink="http://www.w3.org/1999/xlink" x="0px" y="0px"
	 width="50px" height="100px" viewBox="0 0 50 100" style="enable-background:new 0 0 50 100;" xml:space="preserve">
<style type="text/css">
	.st0{fill:#FFFFFF;}
</style>
<g>
	<circle class="st0" cx="15.7" cy="24.8" r="2.2"/>
	<circle class="st0" cx="34.4" cy="24.9" r="2.2"/>
</g>
<rect x="-6" y="22.9" transform="matrix(0.7071 -0.7071 0.7071 0.7071 -10.4789 25.3841)" class="st0" width="62.8" height="4.8"/>
<g>
	<path class="st0" d="M49.1,21.5c-0.6-4.3-2.4-8.3-4.9-11.6l-2,2c2.2,2.9,3.6,6.4,4.1,10c0.9,6.4-1.1,12.2-4.6,16.6
		c-0.6,2.4,1,6,3.6,8c-3.9,0-6.4-1.5-7.9-2.8c-0.3-0.2-0.6-0.3-0.9-0.3c-0.3,0-0.6,0.1-0.8,0.3c-3.2,1.9-7,2.9-10.9,2.9
		c-1.4,0-2.8-0.1-4.3-0.4c-3.2-0.7-6.3-2.1-8.7-4l-2,2c2.9,2.3,6.5,3.9,10.1,4.7c1.7,0.3,3.3,0.5,4.9,0.5c4,0,8-1.1,11.5-2.9
		c2.5,2,5.5,2.9,8.8,2.9c1.2,0,2.2-0.8,2.5-1.9c0.4-1.1,0-2.4-0.9-3c-1.9-1.5-2.7-3.5-2.7-4.8C48.2,34.4,50,27.9,49.1,21.5z"/>
	<path class="st0" d="M3.7,36.8l2-2c-1-2-1.8-4.1-2.2-6.3C1.3,15,11.7,3.2,24.9,3.2c0.7,0,1.4,0,2.1,0.1c2.7,0.3,5.4,1.1,7.8,2.4
		l2.1-2.1c-2.9-1.7-6.2-2.7-9.6-3c-0.9-0.1-1.6-0.1-2.4-0.1c-7.2,0-14,3.1-18.5,8.6C1.7,14.6-0.3,21.9,0.9,29
		C1.5,31.8,2.5,34.3,3.7,36.8z"/>
</g>
<g>
	<path class="st0" d="M25,53.2c0.7,0,1.4,0,2.1,0.1c10,0.9,18.2,8.7,19.5,18.7c0.9,6.4-1.1,12.2-4.6,16.7c-0.6,2.4,1,6,3.6,8
		c-3.9,0-6.4-1.5-7.9-2.8c-0.3-0.2-0.6-0.3-0.9-0.3c-0.3,0-0.6,0.1-0.8,0.3c-3.2,1.9-7,2.9-10.9,2.9c-1.4,0-2.8-0.1-4.3-0.4
		c-8.6-1.8-15.7-8.8-17.2-17.7C1.4,65,11.8,53.2,25,53.2 M25,50.5c-7.2,0-14,3.1-18.6,8.6c-4.7,5.5-6.7,12.8-5.5,20
		c1.7,10,9.3,17.9,19.3,19.9c1.7,0.3,3.3,0.5,4.9,0.5c4,0,8-1.1,11.5-2.9c2.5,2,5.5,2.9,8.8,2.9c1.2,0,2.2-0.8,2.5-1.9
		c0.4-1.1,0-2.4-0.9-3c-1.9-1.5-2.7-3.5-2.7-4.8c3.9-5.2,5.7-11.6,4.8-18.2c-1.4-11.2-10.5-20-21.9-21.1
		C26.5,50.5,25.8,50.5,25,50.5L25,50.5z"/>
	<g>
		<circle class="st0" cx="15.7" cy="74.9" r="2.2"/>
		<circle class="st0" cx="25.1" cy="74.9" r="2.2"/>
		<circle class="st0" cx="34.4" cy="75" r="2.2"/>
	</g>
</g>
</svg>
