<?xml version="1.0" encoding="utf-8"?>
<!-- Generator: Adobe Illustrator 16.0.0, SVG Export Plug-In . SVG Version: 6.00 Build 0)  -->
<!DOCTYPE svg PUBLIC "-//W3C//DTD SVG 1.1//EN" "http://www.w3.org/Graphics/SVG/1.1/DTD/svg11.dtd">
<svg version="1.1" id="圖層_1" xmlns="http://www.w3.org/2000/svg" xmlns:xlink="http://www.w3.org/1999/xlink" x="0px" y="0px"
	 width="50px" height="50px" viewBox="0 0 50 50" enable-background="new 0 0 50 50" xml:space="preserve">
<path d="M25,4c11.6,0,21,9.4,21,21c0,11.6-9.4,21-21,21C13.4,46,4,36.6,4,25C4,13.4,13.4,4,25,4 M25,0C11.2,0,0,11.2,0,25
	s11.2,25,25,25s25-11.2,25-25S38.8,0,25,0L25,0z"/>
<ellipse cx="17.1" cy="17.8" rx="4.3" ry="5.4"/>
<ellipse cx="31.9" cy="17.8" rx="4.3" ry="5.4"/>
<path d="M37.7,27.9c-1.9,5.1-6.9,8.8-12.7,8.8S14.2,33,12.3,27.9H8.6C10.7,35,17.2,40.2,25,40.2S39.3,35,41.4,27.9H37.7z"/>
</svg>
