<?xml version="1.0" encoding="utf-8"?>
<!-- Generator: Adobe Illustrator 16.0.0, SVG Export Plug-In . SVG Version: 6.00 Build 0)  -->
<!DOCTYPE svg PUBLIC "-//W3C//DTD SVG 1.1//EN" "http://www.w3.org/Graphics/SVG/1.1/DTD/svg11.dtd">
<svg version="1.1" id="圖層_1" xmlns="http://www.w3.org/2000/svg" xmlns:xlink="http://www.w3.org/1999/xlink" x="0px" y="0px"
	 width="50px" height="50px" viewBox="0 0 50 50" enable-background="new 0 0 50 50" xml:space="preserve">
<g>
	<g>
		<path fill="#FFFFFF" d="M16.2,33.3H13V21.2c-1.2,1.1-2.6,1.9-4.2,2.4v-2.9c0.8-0.3,1.8-0.8,2.7-1.6c1-0.8,1.7-1.7,2-2.7h2.6V33.3z
			"/>
		<path fill="#FFFFFF" d="M35.7,16.4c1.6,0,2.9,0.6,3.8,1.7c1.1,1.4,1.6,3.7,1.6,6.9c0,3.2-0.6,5.5-1.7,6.9
			c-0.9,1.1-2.2,1.7-3.8,1.7c-1.6,0-3-0.6-4-1.9c-1-1.3-1.5-3.5-1.5-6.7c0-3.2,0.6-5.4,1.7-6.8C32.8,17,34.1,16.4,35.7,16.4z
			 M35.7,19.1c-0.4,0-0.7,0.1-1,0.4c-0.3,0.2-0.5,0.7-0.7,1.3c-0.2,0.8-0.3,2.2-0.3,4.2c0,2,0.1,3.3,0.3,4.1
			c0.2,0.7,0.4,1.2,0.8,1.5c0.3,0.2,0.6,0.4,1,0.4s0.7-0.1,1-0.4c0.3-0.2,0.5-0.7,0.7-1.3c0.2-0.8,0.3-2.2,0.3-4.2
			c0-2-0.1-3.3-0.3-4.1c-0.2-0.7-0.5-1.2-0.8-1.5S36.1,19.1,35.7,19.1z"/>
		<g>
			<circle fill="#FFFFFF" cx="23.3" cy="20.3" r="1.4"/>
			<circle fill="#FFFFFF" cx="23.3" cy="30.6" r="1.4"/>
		</g>
	</g>
	<path fill="#FFFFFF" d="M44.7,9.5c0.8,0,1.4,0.6,1.4,1.4v29.1c0,0.8-0.6,1.4-1.4,1.4H5.3c-0.8,0-1.4-0.6-1.4-1.4V10.9
		c0-0.8,0.6-1.4,1.4-1.4H44.7 M44.7,7.2H5.3c-2.1,0-3.8,1.7-3.8,3.8v29.1c0,2.1,1.7,3.8,3.8,3.8h39.5c2.1,0,3.8-1.7,3.8-3.8V10.9
		C48.5,8.9,46.8,7.2,44.7,7.2L44.7,7.2z"/>
</g>
</svg>
