<?xml version="1.0" encoding="utf-8"?>
<!-- Generator: Adobe Illustrator 22.0.1, SVG Export Plug-In . SVG Version: 6.00 Build 0)  -->
<svg version="1.1" id="圖層_1" xmlns="http://www.w3.org/2000/svg" xmlns:xlink="http://www.w3.org/1999/xlink" x="0px" y="0px"
	 width="50px" height="50px" viewBox="0 0 50 50" style="enable-background:new 0 0 50 50;" xml:space="preserve">
<style type="text/css">
	.st0{fill:#FFFFFF;}
</style>
<g>
	<path class="st0" d="M1.6,7.9v9l0,18v9h47v-9l0-18v-9H1.6z M4.1,19.4h6.5l0,13H4L4.1,19.4z M46,32.4h-6.5l0-13H46L46,32.4z
		 M46,16.9h-9l0,18h9v6.5H4v-6.5h9l0-18h-9v-6.5h42V16.9z"/>
	<path class="st0" d="M23.8,32.8v6.1h2.5v-6.1c3.3-0.6,5.8-3.4,5.8-6.9s-2.5-6.3-5.8-6.9v-6.1h-2.5V19c-3.3,0.6-5.8,3.4-5.8,6.9
		S20.5,32.2,23.8,32.8z M25,21.4c2.5,0,4.5,2,4.5,4.5s-2,4.5-4.5,4.5s-4.5-2-4.5-4.5S22.5,21.4,25,21.4z"/>
</g>
</svg>
