<?xml version="1.0" encoding="utf-8"?>
<!-- Generator: Adobe Illustrator 24.3.0, SVG Export Plug-In . SVG Version: 6.00 Build 0)  -->
<svg version="1.1" id="圖層_1" xmlns="http://www.w3.org/2000/svg" xmlns:xlink="http://www.w3.org/1999/xlink" x="0px" y="0px"
	 viewBox="0 0 50 100" style="enable-background:new 0 0 50 100;" xml:space="preserve">
<style type="text/css">
	.st0{fill:#F2B7B7;}
	.st1{fill:#FFFFFF;}
</style>
<g>
	<path class="st0" d="M40.5,64.6H28.6l6.1-5.6c0.7-0.6,0.8-1.7,0.1-2.4l0,0c-0.6-0.7-1.7-0.8-2.4-0.1l-8.3,7.6l-6.7-5.5
		c-0.7-0.6-1.8-0.5-2.4,0.2s-0.5,1.8,0.2,2.4l4.1,3.4H9.5c-1.9,0-3.5,1.5-3.5,3.5v22.4C6,92.4,7.5,94,9.5,94h31.1
		c1.9,0,3.5-1.5,3.5-3.5V68.1C44,66.2,42.4,64.6,40.5,64.6z M40.5,90.5H9.5V68.1h14.7h16.3L40.5,90.5L40.5,90.5z"/>
	<path class="st0" d="M31.5,77.5l-10-5.7c-1.4-0.7-3.2,0.4-3.2,1.8V85c0,1.4,1.8,2.5,3.2,1.8l10-5.7C33,80,33,78.2,31.5,77.5z"/>
</g>
<g>
	<path class="st1" d="M40.5,14.6H28.6L34.8,9c0.7-0.6,0.8-1.7,0.1-2.4l0,0c-0.6-0.7-1.7-0.8-2.4-0.1l-8.3,7.6l-6.7-5.5
		C16.7,8,15.6,8.1,15,8.8c-0.6,0.7-0.5,1.8,0.2,2.4l4.1,3.4H9.5c-1.9,0-3.5,1.5-3.5,3.5v22.4C6,42.4,7.5,44,9.5,44h31.1
		c1.9,0,3.5-1.5,3.5-3.5V18.1C44,16.2,42.4,14.6,40.5,14.6z M40.5,40.5H9.5V18.1h14.7h16.3L40.5,40.5L40.5,40.5z"/>
	<path class="st1" d="M31.6,27.4l-10-5.7c-1.4-0.7-3.2,0.4-3.2,1.8v11.4c0,1.4,1.8,2.5,3.2,1.8l10-5.7C33,29.9,33,28.1,31.6,27.4z"
		/>
</g>
</svg>
