<?xml version="1.0" encoding="utf-8"?>
<!-- Generator: Adobe Illustrator 16.0.0, SVG Export Plug-In . SVG Version: 6.00 Build 0)  -->
<!DOCTYPE svg PUBLIC "-//W3C//DTD SVG 1.1//EN" "http://www.w3.org/Graphics/SVG/1.1/DTD/svg11.dtd">
<svg version="1.1" id="圖層_1" xmlns="http://www.w3.org/2000/svg" xmlns:xlink="http://www.w3.org/1999/xlink" x="0px" y="0px"
	 width="50px" height="50px" viewBox="0 0 50 50" enable-background="new 0 0 50 50" xml:space="preserve">
<circle fill="#8C56D0" cx="25" cy="25" r="25"/>
<g>
	<path fill="#FFFFFF" d="M11,36.2l2.6-0.8L13.5,35c-0.3-1.9-0.8-4.4-1.6-7.5L11.7,27l-2.6,0.8l0.1,0.5c0.7,2.4,1.3,4.9,1.6,7.4
		L11,36.2z"/>
	<path fill="#FFFFFF" d="M41.6,39.5c-2-1.1-4.1-2.1-6.3-3h4.3V22h-6.7c1.6-1.4,2.6-3.1,3-5.2h0.7v2.7c0,0.8,0.3,2.3,2.6,2.3
		c1.3,0,2.8-0.6,2.8-3.6v-0.3l-2.3-1h2.1v-2.5h-3.9v-1H41v-2.4h-3.3V8.4h-2.6v2.6h-0.9c0.2-0.5,0.3-0.9,0.3-1.3l0.1-0.4l-2.4-0.7
		L32.1,9c-0.4,1.4-0.8,2.7-1.5,4v-2.1h-2.9V8.4h-2.7v2.5h-0.7c0.1-0.3,0.2-0.7,0.3-1.1l0.1-0.5l-2.5-0.7l-0.1,0.5
		c-0.3,1.4-0.7,2.8-1.3,4l-0.2,0.5l1.5,0.6H21c-1.2-1.4-2.6-2.8-4-4.2c0.1-0.3,0.2-0.5,0.3-0.8l0.2-0.5l-2.6-1l-0.2,0.5
		c-1.2,3-3.2,6.2-6.1,9.6l-0.3,0.3l1.9,2l0.4-0.3c0.1-0.1,0.2-0.2,0.4-0.4v0.5h2.9v3.2H9.2v2.7h4.5v11c-2.1,0.6-3.9,1.1-5.2,1.5
		L8,38.5l1,2.6L9.5,41c4.2-1.2,8.2-2.5,11.6-3.8l0.4-0.1l-0.4-2.8l-0.6,0.3c-0.3,0.2-0.7,0.3-1,0.4l0.1-0.3c0.5-2,1-4.2,1.3-6.6
		l0.1-0.5l-2.5-0.4l-0.1,0.5c-0.4,2.5-0.9,4.8-1.4,6.6l-0.2,0.6l2.4,0.2c-0.9,0.3-1.7,0.6-2.6,0.9V25.8h4.4v-2.7h-4.4v-3.2h3.3v-2.7
		h-7.2c1.1-1.5,2.1-3.1,3.1-4.7c1,1,2.1,2.2,3.4,3.7l0.4,0.4L21,15v1.8h2.2c-0.3,1.4-1.1,2.8-2.5,4l-0.4,0.4l1.8,1.6l0.3-0.2
		c0.2-0.1,0.3-0.3,0.5-0.4v14.4h3.6c-1.6,1-3.5,2-5.6,2.9l-0.6,0.3l1.8,2.3l0.4-0.2c3-1.4,5.5-2.9,7.6-4.4l0.5-0.3l-0.5-0.6h4.1
		l-1.2,1.8l0.5,0.2c3.1,1.3,5.4,2.4,7,3.3l0.5,0.3l1.3-2.4L41.6,39.5z M23.3,14.2c0.1-0.2,0.2-0.5,0.4-0.8h1.5v0.9L23.3,14.2
		L23.3,14.2z M33.3,13.4h1.8v1h-2.3C33,14,33.1,13.7,33.3,13.4z M39.1,19.2v-2.4h0.3l0,0.7C39.3,18.6,39.2,19,39.1,19.2z M36.8,32.4
		v1.5H25.6v-1.5H36.8z M36.8,28.4v1.5H25.6v-1.5H36.8z M36.8,24.7v1.2H25.6v-1.2H36.8z M31.3,14.3h-0.2v2.5h2.1
		c-0.3,1.5-1.1,2.7-2.4,3.6l-0.5,0.4l1.4,1.2h-4.5l0.2-0.1c1.8-0.8,3.1-1.6,4.1-2.2l0.3-0.2l-0.7-2.2l-0.5,0.3
		c-0.5,0.3-1,0.5-1.3,0.7v-1.6h2v-2.5h-3.3v-0.9h2.7c0,0,0,0,0,0l-0.2,0.5L31.3,14.3z M25.7,16.8h0.7v2.4c0,0.3-0.1,0.5-0.3,0.7
		l-0.3,0.2l0.9,1.9h-3.8C24.4,20.8,25.3,19,25.7,16.8z"/>
</g>
</svg>
