<?xml version="1.0" encoding="utf-8"?>
<!-- Generator: Adobe Illustrator 22.0.1, SVG Export Plug-In . SVG Version: 6.00 Build 0)  -->
<svg version="1.1" id="圖層_1" xmlns="http://www.w3.org/2000/svg" xmlns:xlink="http://www.w3.org/1999/xlink" x="0px" y="0px"
	 width="20px" height="40px" viewBox="0 0 20 40" style="enable-background:new 0 0 20 40;" xml:space="preserve">
<style type="text/css">
	.st0{fill:#FFBA00;}
	.st1{fill:#FFFFFF;}
</style>
<path class="st0" d="M10,0.5l3.3,6 M13.3,6.5L20,7.8l-4.7,5l0.8,6.7L10,16.6l-6.2,2.9l0.8-6.7L0,7.8l6.7-1.3l3.3-6"/>
<path class="st1" d="M9.9,23.2l2.3,4l0.3,0.5l0.6,0.1l4.4,0.9l-3.1,3.3l-0.4,0.4L14,33l0.5,4.4l-4-1.9L10,35.2l-0.6,0.3l-4.1,1.9
	L5.9,33L6,32.4l-0.4-0.4l-3.1-3.3l4.4-0.9l0.6-0.1l0.3-0.5L9.9,23.2 M9.9,20.5l-3.3,6l-6.7,1.3l4.7,5l-0.8,6.7l6.2-2.9l6.1,2.9
	l-0.8-6.7l4.7-5l-6.7-1.3L9.9,20.5L9.9,20.5z"/>
</svg>
