<?xml version="1.0" encoding="utf-8"?>
<!-- Generator: Adobe Illustrator 22.0.1, SVG Export Plug-In . SVG Version: 6.00 Build 0)  -->
<svg version="1.1" id="圖層_1" xmlns="http://www.w3.org/2000/svg" xmlns:xlink="http://www.w3.org/1999/xlink" x="0px" y="0px"
	 width="50px" height="50px" viewBox="0 0 50 50" style="enable-background:new 0 0 50 50;" xml:space="preserve">
<style type="text/css">
	.st0{fill:#5795EC;}
</style>
<g>
	<g>
		<path class="st0" d="M42.2,9.8H7.8c-2.4,0-4.3,1.9-4.3,4.3v23.7c0,2.3,1.9,4.3,4.3,4.3h34.4c2.4,0,4.3-1.9,4.3-4.3V14.1
			C46.5,11.8,44.6,9.8,42.2,9.8z M36.7,36.9c0,1.2-0.9,2.1-2.1,2.1h-26c-1.2,0-2.1-0.9-2.1-2.1V15.1C6.5,14,7.4,13,8.6,13h25.9
			c1.2,0,2.1,0.9,2.1,2.1C36.7,15.1,36.7,36.9,36.7,36.9z M41.5,33.7c-1.5,0-2.8-1.2-2.8-2.8c0-1.5,1.2-2.8,2.8-2.8
			c1.5,0,2.8,1.2,2.8,2.8C44.4,32.5,43,33.7,41.5,33.7z M41.5,23.8c-1.5,0-2.8-1.2-2.8-2.8s1.2-2.8,2.8-2.8c1.5,0,2.8,1.2,2.8,2.8
			C44.4,22.5,43,23.8,41.5,23.8z"/>
		<g>
			<g>
				<path class="st0" d="M21.3,12.3c-0.5,0-1.1-0.3-1.3-0.8l-5.4-8.9c-0.5-0.7-0.2-1.7,0.5-2.3s1.7-0.2,2.3,0.5l5.4,8.9
					c0.5,0.7,0.2,1.7-0.5,2.3C21.8,12.2,21.5,12.3,21.3,12.3z"/>
			</g>
			<g>
				<path class="st0" d="M28.7,12.3c-0.3,0-0.6-0.1-0.8-0.2c-0.7-0.5-1-1.4-0.5-2.3l5.4-8.9c0.5-0.7,1.4-1,2.3-0.5
					c0.7,0.5,1,1.4,0.5,2.3l-5.4,8.8C29.8,12,29.3,12.3,28.7,12.3z"/>
			</g>
		</g>
	</g>
	<path class="st0" d="M25.2,24.9l-6-3.5c-0.8-0.5-1.8,0.1-1.8,1.1v7c0,0.9,1,1.5,1.8,1.1l6-3.5C26,26.5,26,25.4,25.2,24.9z"/>
</g>
</svg>
