<?xml version="1.0" encoding="utf-8"?>
<!-- Generator: Adobe Illustrator 16.0.0, SVG Export Plug-In . SVG Version: 6.00 Build 0)  -->
<!DOCTYPE svg PUBLIC "-//W3C//DTD SVG 1.1//EN" "http://www.w3.org/Graphics/SVG/1.1/DTD/svg11.dtd">
<svg version="1.1" id="圖層_1" xmlns="http://www.w3.org/2000/svg" xmlns:xlink="http://www.w3.org/1999/xlink" x="0px" y="0px"
	 width="20px" height="20px" viewBox="140 140 20 20" enable-background="new 140 140 20 20" xml:space="preserve">
<g>
	<path fill="#75AAA7" d="M155.692,144.308c-2.754-2.754-5.998-4.308-8.496-4.308c-1.168,0-2.173,0.339-2.888,1.055
		c-0.579,0.579-2.674,2.674-3.253,3.252c-2.246,2.246-0.789,7.343,3.253,11.385c2.754,2.754,5.998,4.308,8.496,4.308
		c1.169,0,2.173-0.34,2.889-1.055c0.578-0.579,2.674-2.675,3.253-3.253C161.19,153.446,159.734,148.35,155.692,144.308z
		 M154.514,157.767c-0.376,0.376-0.951,0.566-1.71,0.566c-2.124,0-4.997-1.499-7.317-3.819c-3.515-3.514-4.616-7.665-3.253-9.027
		l1.576-1.576c0,0.011-0.001,0.022-0.001,0.033c0,2.441,1.588,5.546,4.145,8.103c1.889,1.89,4.065,3.254,6.125,3.843
		c0.699,0.199,1.358,0.298,1.961,0.298c0.019,0,0.036-0.002,0.055-0.002L154.514,157.767z M157.767,154.514
		c-0.62,0.62-1.885,0.735-3.383,0.308c-1.882-0.538-3.887-1.802-5.645-3.561c-2.356-2.355-3.82-5.16-3.82-7.317
		c0-0.758,0.191-1.333,0.567-1.709c0.372-0.373,0.977-0.563,1.725-0.563c0.498,0,1.059,0.084,1.657,0.255
		c1.882,0.538,3.887,1.802,5.645,3.561c2.356,2.355,3.819,5.16,3.819,7.317C158.333,153.563,158.143,154.138,157.767,154.514z"/>
</g>
</svg>
