<?xml version="1.0" encoding="utf-8"?>
<!-- Generator: Adobe Illustrator 22.0.1, SVG Export Plug-In . SVG Version: 6.00 Build 0)  -->
<svg version="1.1" id="圖層_1" xmlns="http://www.w3.org/2000/svg" xmlns:xlink="http://www.w3.org/1999/xlink" x="0px" y="0px"
	 width="20px" height="20px" viewBox="0 0 20 20" style="enable-background:new 0 0 20 20;" xml:space="preserve">
<style type="text/css">
	.st0{fill:#AAAAAA;}
</style>
<g>
	<path class="st0" d="M17.7,8.1h-3.2V6c0-0.9-1.1-1.4-1.8-0.7L8.4,9.5C8,9.9,8,10.6,8.4,11l2.4,2.4l-3,3c-0.4,0.4-0.4,1.1,0,1.5
		s1.1,0.4,1.5,0l3.7-3.7c0.4-0.4,0.4-1.1,0-1.5l-2.4-2.4l1.7-1.7v0.6c0,0.6,0.5,1.1,1.1,1.1h4.3c0.6,0,1.1-0.5,1.1-1.1
		C18.8,8.6,18.3,8.1,17.7,8.1z"/>
	<path class="st0" d="M7.8,7.3L10.1,5l0.8,0.6l1-1c0.2-0.2,0.4-0.3,0.6-0.4l-2-1.4c-0.4-0.3-1-0.2-1.3,0.1L6.3,5.8
		c-0.4,0.4-0.4,1.1,0,1.5C6.7,7.7,7.4,7.7,7.8,7.3z"/>
	<path class="st0" d="M7.7,11.8c-0.3-0.3-0.4-0.6-0.5-1l-5.6,5.6c-0.4,0.4-0.4,1.1,0,1.5c0.4,0.4,1.1,0.4,1.5,0l5.4-5.4L7.7,11.8z"
		/>
	<path class="st0" d="M15,5c0.9,0,1.6-0.7,1.6-1.6S15.9,1.8,15,1.8s-1.6,0.7-1.6,1.6S14.1,5,15,5z"/>
</g>
</svg>
