<?xml version="1.0" encoding="utf-8"?>
<!-- Generator: Adobe Illustrator 22.0.1, SVG Export Plug-In . SVG Version: 6.00 Build 0)  -->
<svg version="1.1" id="圖層_1" xmlns="http://www.w3.org/2000/svg" xmlns:xlink="http://www.w3.org/1999/xlink" x="0px" y="0px"
	 width="50px" height="50px" viewBox="0 0 50 50" style="enable-background:new 0 0 50 50;" xml:space="preserve">
<style type="text/css">
	.st0{fill:#5795EC;}
</style>
<g>
	<path class="st0" d="M25,0C11.2,0,0,11.2,0,25s11.2,25,25,25s25-11.2,25-25S38.8,0,25,0z M25,46.5C13.1,46.5,3.5,36.9,3.5,25
		S13.1,3.5,25,3.5S46.5,13.1,46.5,25S36.9,46.5,25,46.5z"/>
	<rect x="22.8" y="37" class="st0" width="4.4" height="4.4"/>
	<path class="st0" d="M25,9.4c-2.9,0-5.2,0.8-7,2.3c-1.8,1.6-2.8,3.8-3.2,6.7l4,0.5c0.3-2.2,1.1-3.8,2.2-4.8s2.5-1.5,4.1-1.5
		c1.7,0,3.1,0.6,4.3,1.7s1.8,2.5,1.8,4c0,0.8-0.2,1.6-0.6,2.3c-0.4,0.7-1.3,1.6-2.6,2.8c-1.3,1.2-2.3,2.1-2.8,2.7
		c-0.7,0.8-1.2,1.7-1.5,2.5C23.2,29.7,23,31,23,32.5c0,0.3,0,0.6,0,1.2h3.7c0-1.5,0.1-2.7,0.3-3.4c0.2-0.7,0.5-1.3,0.9-1.8
		s1.2-1.4,2.5-2.5c1.9-1.7,3.1-3.1,3.8-4.2c0.6-1.2,1-2.4,1-3.8c0-2.4-0.9-4.4-2.8-6.1C30.6,10.2,28.1,9.4,25,9.4z"/>
</g>
</svg>
