<?xml version="1.0" encoding="utf-8"?>
<!-- Generator: Adobe Illustrator 22.0.1, SVG Export Plug-In . SVG Version: 6.00 Build 0)  -->
<svg version="1.1" id="圖層_1" xmlns="http://www.w3.org/2000/svg" xmlns:xlink="http://www.w3.org/1999/xlink" x="0px" y="0px"
	 width="20px" height="20px" viewBox="0 0 20 20" style="enable-background:new 0 0 20 20;" xml:space="preserve">
<style type="text/css">
	.st0{fill:#FFFFFF;}
</style>
<path class="st0" d="M10,0C4.5,0,0,4.5,0,10s4.5,10,10,10s10-4.5,10-10S15.5,0,10,0z M7.3,18.1c-1.9-0.6-3.5-1.9-4.5-3.6v-0.2
	c0,0,0-0.1,0-0.3c0-0.4,0.1-1.3,0.7-2.5c0.7-1.5,2-2.9,3.7-4.2c0.1-0.1,0.1-0.1,0.2-0.2c0.1,0.2,0.2,0.5,0.3,0.7
	C7.8,8.5,7.9,9.2,7.9,10c0,1.3-0.3,2.6-0.5,3.8c-0.2,0.9-0.3,1.8-0.3,2.6C7.1,17.1,7.2,17.7,7.3,18.1z M12,3.4
	c-0.4-0.6-0.6-1.1-0.6-1.5c0-0.1,0-0.2,0-0.3c1.2,0.2,2.3,0.7,3.3,1.3C14.1,3,13.1,3.1,12,3.4z M9,4.7C8.5,5,8,5.3,7.5,5.6
	c0,0-0.1-0.1-0.2-0.2c-0.7-0.7-1.5-1-2.5-1c-0.4,0-0.9,0.1-1.4,0.2c0.8-0.9,1.7-1.7,2.8-2.2C6.6,2.5,7.6,3,9,4.7z M2.3,6.3L2.3,6.3
	c0.1,0,0.4-0.2,0.8-0.5c0.4-0.2,1-0.4,1.7-0.4s1.3,0.2,1.8,0.7c0,0,0,0.1,0.1,0.1C6.5,6.3,6.5,6.4,6.4,6.5c-1.9,1.5-3.2,3-4,4.6
	c-0.2,0.5-0.4,1-0.5,1.4c-0.3-0.8-0.4-1.7-0.4-2.5C1.4,8.7,1.7,7.5,2.3,6.3z M8.5,14C8.8,12.8,9,11.3,9,10c0-0.9-0.1-1.7-0.4-2.4
	c-0.1-0.4-0.3-0.7-0.5-1c0.5-0.3,1-0.7,1.5-0.9c0.3,0.5,0.7,1,1,1.5c1.2,1.9,2.2,3.8,2.8,5.5c0.6,1.6,1,3,1,4.1c0,0.2,0,0.5,0,0.7
	c-1.8,1.1-3.8,1.5-5.9,1.1c-0.1-0.3-0.3-1-0.3-2S8.3,14.9,8.5,14z M14.6,12.2c-0.7-1.7-1.7-3.6-2.9-5.6c-0.3-0.5-0.6-1-0.9-1.4
	c0.3-0.1,0.7-0.3,1-0.4C13.4,6.6,15.1,7.6,16,8c0.4,0.2,1,0.6,1.4,1.1c0.5,0.5,1,1.1,1.2,1.5l0,0c-0.2,2.3-1.2,4.4-2.9,5.9
	C15.6,15.3,15.2,13.8,14.6,12.2z M12.8,4.3C13.9,4,14.8,4,15.3,4c0.2,0,0.4,0,0.5,0H16c1.2,1.3,2,2.8,2.3,4.6
	c-0.1-0.1-0.2-0.3-0.4-0.4c-0.6-0.5-1.2-1-1.7-1.3C15.7,6.6,14.2,5.8,12.8,4.3z M10,1.2v0.2c0.1,0,0.2,0,0.3,0c0,0.1,0,0.3,0,0.4
	c0,0.4,0.1,1.1,0.6,1.9C10.6,3.8,10.3,4,10,4.1C9,3,8.2,2.2,7.5,1.8C8.3,1.6,9.2,1.4,10,1.4V1.2L10,1.2z"/>
</svg>
