<?xml version="1.0" encoding="utf-8"?>
<!-- Generator: Adobe Illustrator 22.0.1, SVG Export Plug-In . SVG Version: 6.00 Build 0)  -->
<svg version="1.1" id="圖層_1" xmlns="http://www.w3.org/2000/svg" xmlns:xlink="http://www.w3.org/1999/xlink" x="0px" y="0px"
	 width="50px" height="50px" viewBox="0 0 50 50" style="enable-background:new 0 0 50 50;" xml:space="preserve">
<style type="text/css">
	.st0{fill:#5795EC;}
</style>
<g>
	<rect x="8.1" y="34.9" class="st0" width="11.2" height="3"/>
	<polygon class="st0" points="12.2,19 15.2,19 15.2,15 19.3,15 19.3,11.9 15.2,11.9 15.2,7.9 12.2,7.9 12.2,11.9 8.1,11.9 8.1,15 
		12.2,15 	"/>
	<polygon class="st0" points="30.8,9.9 34.4,13.5 30.9,17 33,19.2 36.5,15.7 40.1,19.3 42.3,17.1 38.7,13.5 42.4,9.9 40.2,7.7 
		36.5,11.4 32.9,7.8 	"/>
	<rect x="31" y="34.9" class="st0" width="11.2" height="3"/>
	<rect x="35" y="39" class="st0" width="3" height="3"/>
	<rect x="35" y="30.9" class="st0" width="3" height="3"/>
	<path class="st0" d="M40,0H10C4.5,0,0,4.5,0,10v30c0,5.5,4.5,10,10,10h30c5.5,0,10-4.5,10-10V10C50,4.5,45.5,0,40,0z M40,46.5H26.8
		V26.6h19.7V40C46.5,43.6,43.6,46.5,40,46.5z M3.5,40V26.8h19.9v19.7H10C6.4,46.5,3.5,43.6,3.5,40z M10,3.5h13.4v19.9H3.5V10
		C3.5,6.4,6.4,3.5,10,3.5z M46.5,10v13.4H26.6V3.5H40C43.6,3.5,46.5,6.4,46.5,10z"/>
</g>
</svg>
