<?xml version="1.0" encoding="utf-8"?>
<!-- Generator: Adobe Illustrator 22.0.1, SVG Export Plug-In . SVG Version: 6.00 Build 0)  -->
<svg version="1.1" id="圖層_1" xmlns="http://www.w3.org/2000/svg" xmlns:xlink="http://www.w3.org/1999/xlink" x="0px" y="0px"
	 width="50px" height="50px" viewBox="0 0 50 50" style="enable-background:new 0 0 50 50;" xml:space="preserve">
<style type="text/css">
	.st0{fill:#5795EC;}
</style>
<g>
	<path class="st0" d="M28.9,3.1v4.4c2.1,0.5,4,1.3,5.7,2.4l3.1-3.1l5.5,5.5l-3.1,3.1c1.1,1.7,1.9,3.7,2.4,5.7h4.4v7.8h-4.4
		c-0.5,2.1-1.3,4-2.4,5.7l3.1,3.1l-5.5,5.5l-3.1-3.1c-1.7,1.1-3.7,1.9-5.7,2.4v4.4h-7.8v-4.4c-2.1-0.5-4-1.3-5.7-2.4l-3.1,3.1
		l-5.5-5.5l3.1-3.1c-1.1-1.7-1.9-3.7-2.4-5.7H3.1v-7.8h4.4c0.5-2.1,1.3-4,2.4-5.7l-3.1-3.1l5.5-5.5l3.1,3.1c1.7-1.1,3.7-1.9,5.7-2.4
		V3.1H28.9 M32,0H18v5.1c-0.7,0.3-1.4,0.5-2.1,0.9l-3.6-3.6l-9.9,9.9L6,15.9c-0.3,0.7-0.6,1.4-0.9,2.1H0v3.1v7.8V32h5.1
		c0.3,0.7,0.5,1.4,0.9,2.1l-3.6,3.6l9.9,9.9l3.6-3.6c0.7,0.3,1.4,0.6,2.1,0.9V50h14v-5.1c0.7-0.3,1.4-0.5,2.1-0.9l3.6,3.6l9.9-9.9
		L44,34.1c0.3-0.7,0.6-1.4,0.9-2.1H50V18h-5.1c-0.3-0.7-0.5-1.4-0.9-2.1l3.6-3.6l-9.9-9.9L34.1,6c-0.7-0.3-1.4-0.6-2.1-0.9L32,0
		L32,0z"/>
	<path class="st0" d="M25,15.6c5.2,0,9.4,4.2,9.4,9.4s-4.2,9.4-9.4,9.4s-9.4-4.2-9.4-9.4S19.8,15.6,25,15.6 M25,12.5
		c-6.9,0-12.5,5.6-12.5,12.5S18.1,37.5,25,37.5S37.5,31.9,37.5,25S31.9,12.5,25,12.5L25,12.5z"/>
</g>
</svg>
