<?xml version="1.0" encoding="utf-8"?>
<!-- Generator: Adobe Illustrator 16.0.0, SVG Export Plug-In . SVG Version: 6.00 Build 0)  -->
<!DOCTYPE svg PUBLIC "-//W3C//DTD SVG 1.1//EN" "http://www.w3.org/Graphics/SVG/1.1/DTD/svg11.dtd">
<svg version="1.1" id="Capa_1" xmlns="http://www.w3.org/2000/svg" xmlns:xlink="http://www.w3.org/1999/xlink" x="0px" y="0px"
	 width="20px" height="20px" viewBox="15 15 20 20" enable-background="new 15 15 20 20" xml:space="preserve">
<path fill="#BE6262" d="M33.848,21.465c-0.043-0.011-0.089-0.02-0.135-0.024l-0.08-0.007c-1.408-0.126-4.677-0.418-5.241-0.437
	l-0.062-0.161c-1.237-3.164-1.892-4.812-2.017-5.07c-0.178-0.335-0.63-0.727-1.313-0.727c-0.686,0-1.136,0.392-1.329,0.756
	c-0.15,0.314-1.335,3.336-2.057,5.183c-0.583,0.039-3.495,0.298-5.22,0.453l-0.107,0.009c-0.045,0.004-0.09,0.012-0.134,0.024
	C15.597,21.611,15,22.122,15,22.9c0,0.671,0.474,1.108,0.608,1.216l3.93,3.629c-0.1,0.459-0.813,3.418-1.288,5.377l-0.015,0.076
	c-0.057,0.396,0.051,1.176,0.813,1.582c0.226,0.12,0.473,0.18,0.733,0.18c0.561,0,1-0.284,1.079-0.337L25,31.896l4.136,2.725
	c0.117,0.08,0.539,0.34,1.083,0.34c0.262,0,0.509-0.061,0.734-0.181c0.761-0.404,0.868-1.185,0.812-1.585l-0.015-0.073
	c-0.603-2.487-1.23-5.098-1.302-5.363l3.934-3.632C34.526,24.008,35,23.57,35,22.9C35,22.122,34.402,21.611,33.848,21.465z
	 M19.898,33.241c0.796-3.289,1.205-5.001,1.249-5.232c0.111-0.577-0.126-1.077-0.357-1.321l-3.957-3.658
	c1.233-0.11,4.521-0.403,4.927-0.426c0.774-0.043,1.207-0.54,1.338-0.938c0.588-1.508,1.535-3.92,1.902-4.826
	c0.368,0.906,1.313,3.315,1.897,4.813c0.135,0.412,0.567,0.908,1.343,0.952c0.403,0.023,3.717,0.317,4.927,0.426l-3.951,3.65
	c-0.236,0.253-0.474,0.753-0.363,1.329c0.045,0.233,0.47,2.014,1.264,5.293c-0.028-0.011-0.058-0.025-0.075-0.038l-4.32-2.846
	c-0.123-0.087-0.381-0.234-0.721-0.234c-0.339,0-0.592,0.145-0.705,0.225l-4.343,2.861c-0.017,0.011-0.043,0.023-0.069,0.034
	L19.898,33.241z"/>
</svg>
