<?xml version="1.0" encoding="utf-8"?>
<!-- Generator: Adobe Illustrator 22.0.1, SVG Export Plug-In . SVG Version: 6.00 Build 0)  -->
<svg version="1.1" id="圖層_1" xmlns="http://www.w3.org/2000/svg" xmlns:xlink="http://www.w3.org/1999/xlink" x="0px" y="0px"
	 width="50px" height="50px" viewBox="0 0 50 50" style="enable-background:new 0 0 50 50;" xml:space="preserve">
<style type="text/css">
	.st0{fill:#5795EC;}
</style>
<g>
	<path class="st0" d="M15.6,32.3h2.8V17.7h-2.3c-0.3,0.9-0.9,1.7-1.8,2.3c-0.9,0.7-1.6,1.1-2.4,1.4v2.5c1.4-0.5,2.6-1.2,3.6-2.1
		v10.5H15.6z"/>
	<rect x="23.7" y="29.5" class="st0" width="2.8" height="2.8"/>
	<rect x="23.7" y="21.8" class="st0" width="2.8" height="2.8"/>
	<path class="st0" d="M33.7,32.3h2.8V17.7h-2.3c-0.3,0.9-0.9,1.7-1.8,2.3c-0.9,0.7-1.6,1.1-2.4,1.4v2.5c1.4-0.5,2.6-1.2,3.6-2.1
		L33.7,32.3L33.7,32.3z"/>
	<path class="st0" d="M0,10.5v29h50v-29H0z M47.2,36.7H2.8V13.3h44.4V36.7z"/>
</g>
</svg>
