<?xml version="1.0" encoding="utf-8"?>
<!-- Generator: Adobe Illustrator 16.0.0, SVG Export Plug-In . SVG Version: 6.00 Build 0)  -->
<!DOCTYPE svg PUBLIC "-//W3C//DTD SVG 1.1//EN" "http://www.w3.org/Graphics/SVG/1.1/DTD/svg11.dtd">
<svg version="1.1" id="Capa_1" xmlns="http://www.w3.org/2000/svg" xmlns:xlink="http://www.w3.org/1999/xlink" x="0px" y="0px"
	 width="20px" height="20px" viewBox="0 0 20 20" enable-background="new 0 0 20 20" xml:space="preserve">
<g>
	<path fill="#888888" d="M10,1.5c4.687,0,8.5,3.813,8.5,8.5c0,4.687-3.813,8.5-8.5,8.5c-4.687,0-8.5-3.813-8.5-8.5
		C1.5,5.313,5.313,1.5,10,1.5 M10,0C4.477,0,0,4.477,0,10c0,5.523,4.477,10,10,10c5.523,0,10-4.477,10-10C20,4.477,15.523,0,10,0
		L10,0z"/>
</g>
<g>
	<path fill="#888888" d="M10.93,12.671H8.938C8.933,12.384,8.93,12.21,8.93,12.147c0-0.646,0.106-1.178,0.32-1.594
		c0.214-0.417,0.641-0.886,1.281-1.407c0.641-0.521,1.023-0.861,1.148-1.023c0.192-0.255,0.289-0.536,0.289-0.844
		c0-0.427-0.171-0.793-0.512-1.098s-0.801-0.457-1.379-0.457c-0.558,0-1.023,0.159-1.398,0.477C8.305,6.52,8.047,7.004,7.906,7.654
		l-2.016-0.25c0.058-0.932,0.454-1.724,1.191-2.375c0.737-0.65,1.704-0.977,2.902-0.977c1.261,0,2.263,0.33,3.008,0.988
		c0.745,0.659,1.117,1.426,1.117,2.301c0,0.484-0.137,0.943-0.41,1.375c-0.273,0.433-0.858,1.021-1.754,1.766
		c-0.464,0.386-0.751,0.696-0.863,0.931S10.919,12.066,10.93,12.671z M8.938,15.947v-2.195h2.195v2.195H8.938z"/>
</g>
</svg>
