<?xml version="1.0" encoding="utf-8"?>
<!-- Generator: Adobe Illustrator 22.0.1, SVG Export Plug-In . SVG Version: 6.00 Build 0)  -->
<svg version="1.1" id="圖層_1" xmlns="http://www.w3.org/2000/svg" xmlns:xlink="http://www.w3.org/1999/xlink" x="0px" y="0px"
	 width="50px" height="50px" viewBox="0 0 50 50" style="enable-background:new 0 0 50 50;" xml:space="preserve">
<style type="text/css">
	.st0{fill:#5795EC;}
</style>
<g>
	<g>
		<path class="st0" d="M36.5,33.7c0.4,0.4,0.4,1.2,0,1.6s-1.2,0.4-1.6,0L14.7,15.1c-0.4-0.4-0.4-1.2,0-1.6c0.4-0.4,1.2-0.4,1.6,0
			L36.5,33.7 M38.1,32.1L17.9,11.9c-1.3-1.3-3.5-1.3-4.8,0s-1.3,3.5,0,4.8l20.1,20.1c1.3,1.3,3.5,1.3,4.8,0
			C39.4,35.6,39.4,33.4,38.1,32.1L38.1,32.1z"/>
	</g>
	<g>
		<path class="st0" d="M41.2,31.1c1.4-1.6,1.7-3.8,0.7-5.6l-3.2-6.2c0.2-0.3,1-0.8,2.1-1.5c0.9-0.6,2.1-1.4,3.5-2.4
			c2.1-1.7,3.7-3.4,4-3.7c2.4-2.4,2.3-6.2-0.1-8.6l-1.4-1.4c-2.4-2.4-6.1-2.4-8.5-0.1c-0.4,0.4-2.1,1.8-3.7,4
			c-1.1,1.3-2.1,2.8-3,4.3c0,0-0.5,0.9-0.9,1.3L24.3,8c-1.8-0.8-4.1-0.4-5.6,1L16,11.8l1.9,1.9l2.7-2.7c0.6-0.6,1.7-0.8,2.5-0.5
			l6.7,3.5c1.6,0.9,3.1-1.2,3.5-1.8c0,0,0.4-0.5,0.5-0.8c0.5-0.8,1.4-2.4,2.7-4c1.7-2.3,3.4-3.7,3.4-3.7c1.4-1.4,3.4-1.4,4.8,0
			l1.4,1.4c1.4,1.4,1.4,3.4,0,4.8c0,0-1.5,1.7-3.7,3.4c-1.6,1.3-3.2,2.2-4,2.7c-0.4,0.2-0.8,0.5-0.8,0.5c-0.6,0.5-2.7,1.9-1.8,3.5
			l3.5,6.7c0.5,0.8,0.3,1.8-0.4,2.5l-2.7,2.8l1.9,1.9L41.2,31.1z"/>
	</g>
	<g>
		<path class="st0" d="M31.4,38.6 M33.7,35.7L25.4,47c-0.1,0.2-0.3,0.2-0.4,0.2c-0.1,0-0.3,0-0.5-0.2L2.9,25.5
			c-0.2-0.2-0.2-0.3-0.2-0.5c0-0.1,0.1-0.3,0.2-0.4l11.4-8.3l-1.9-1.9l-11,8c-1.7,1.2-1.9,3.6-0.4,5L22.6,49c1.4,1.4,3.9,1.2,5-0.4
			l8-11l0,0L33.7,35.7z"/>
	</g>
	<g>
		<path class="st0" d="M44,6c-0.8-0.8-2.3-0.8-3.1,0c-0.8,0.8-0.8,2.3,0,3.1c0.8,0.8,2.3,0.8,3.1,0S44.9,6.8,44,6z"/>
	</g>
	<g>
		<path class="st0" d="M6.3,31.5c-0.3,0-0.6-0.1-0.8-0.4c-0.4-0.5-0.3-1.2,0.1-1.5l7-5.8c0.5-0.4,1.2-0.3,1.5,0.1
			c0.4,0.5,0.3,1.2-0.1,1.5l-7,5.8C6.8,31.4,6.6,31.5,6.3,31.5z"/>
	</g>
	<g>
		<path class="st0" d="M11.6,36.4c-0.3,0-0.6-0.1-0.8-0.3c-0.4-0.4-0.4-1.1,0-1.6l3.7-3.7c0.4-0.4,1.1-0.4,1.6,0
			c0.4,0.4,0.4,1.1,0,1.6l-3.7,3.7C12.2,36.3,11.9,36.4,11.6,36.4z"/>
	</g>
	<g>
		<path class="st0" d="M17.4,30.7c-0.3,0-0.6-0.1-0.8-0.3c-0.4-0.4-0.4-1.1,0-1.6l1.6-1.6c0.4-0.4,1.1-0.4,1.6,0
			c0.4,0.4,0.4,1.1,0,1.6l-1.6,1.6C17.9,30.5,17.7,30.7,17.4,30.7z"/>
	</g>
	<g>
		<path class="st0" d="M20.4,45.2c-0.2,0-0.4-0.1-0.6-0.2c-0.5-0.4-0.6-1-0.3-1.5l3.2-4.5c0.4-0.5,1-0.6,1.5-0.3
			c0.5,0.4,0.6,1,0.3,1.5l-3.2,4.5C21.1,45,20.8,45.2,20.4,45.2z"/>
	</g>
</g>
</svg>
