<?xml version="1.0" encoding="utf-8"?>
<!-- Generator: Adobe Illustrator 22.0.1, SVG Export Plug-In . SVG Version: 6.00 Build 0)  -->
<svg version="1.1" id="圖層_1" xmlns="http://www.w3.org/2000/svg" xmlns:xlink="http://www.w3.org/1999/xlink" x="0px" y="0px"
	 width="50px" height="50px" viewBox="0 0 50 50" style="enable-background:new 0 0 50 50;" xml:space="preserve">
<style type="text/css">
	.st0{fill:#5795EC;}
</style>
<path class="st0" d="M49.4,7.8c-0.9-1.8-2.1-2.9-3.8-3.3c-0.4-0.1-2-0.4-3,0.1c0-0.7,0-3.9,0-3.9H42H8.1H7.4c0,0,0,3.2,0,3.9
	c-1-0.5-2.6-0.2-3-0.1C2.8,4.9,1.5,6,0.6,7.8c-0.8,1.7-0.9,3.7,0,5.7c1.7,4.2,6.5,7.7,10.4,9.3c1.8,2.6,4.3,4.4,7.7,5.4
	c0.9,0.3,1.6,1.1,1.6,1.9c0,0.4-0.1,1.1-1.1,1.8h-0.6c-2.3,0-4.1,1.9-4.1,4.1c0,0,0,1.2,0.1,1.4H9.9c-2,0-3.6,1.6-3.6,3.6v8.2h37.3
	v-8.2c0-2-1.6-3.6-3.6-3.6h-4.6c0.1-0.3,0.1-1.4,0.1-1.4c0-2.3-1.9-4.1-4.1-4.1h-0.6c-1-0.7-1.1-1.4-1.1-1.8c0-0.8,0.7-1.6,1.6-1.9
	c3.4-1.1,5.9-2.8,7.7-5.4c3.9-1.6,8.7-5.1,10.4-9.3C50.2,11.5,50.2,9.5,49.4,7.8z M3.7,12.3C2.5,9.1,5,6.1,7.5,8.2
	c0.2,4.1,0.6,7.2,1.3,9.7C6.7,16.4,4.6,14.4,3.7,12.3z M40,40.8c0.2,0,0.3,0.1,0.3,0.3V46H9.7v-4.9c0-0.2,0.1-0.3,0.3-0.3H40z
	 M31.4,35.2c0.5,0,0.8,0.4,0.8,0.8v0.6c0,0.5-0.4,0.8-0.8,0.8H18.6c-0.5,0-0.8-0.4-0.8-0.8v-0.6c0-0.5,0.4-0.8,0.8-0.8H31.4z
	 M30.3,25c-2.3,0.7-3.9,2.7-4,5c0,0.5,0.1,1.1,0.3,1.8h-3.3c0.3-0.7,0.3-1.4,0.3-1.8c0-2.3-1.6-4.3-4-5c-8.1-2.5-8.9-9.9-9-21h28.6
	C39.2,15.1,38.4,22.5,30.3,25z M46.3,12.3c-0.9,2.1-3,4.2-5.1,5.6c0.7-2.5,1.1-5.6,1.3-9.7C45,6.1,47.5,9.1,46.3,12.3z"/>
</svg>
