<?xml version="1.0" encoding="utf-8"?>
<!-- Generator: Adobe Illustrator 22.0.1, SVG Export Plug-In . SVG Version: 6.00 Build 0)  -->
<svg version="1.1" id="圖層_1" xmlns="http://www.w3.org/2000/svg" xmlns:xlink="http://www.w3.org/1999/xlink" x="0px" y="0px"
	 width="20px" height="40px" viewBox="0 0 20 40" style="enable-background:new 0 0 20 40;" xml:space="preserve">
<style type="text/css">
	.st0{fill:#FFFFFF;}
	.st1{fill:#FFDF1B;}
</style>
<path class="st0" d="M18,10c-0.1-0.3-0.2-0.4-0.5-0.5c-0.2-0.1-0.5,0.1-0.6,0.1c-0.1,0.1-0.2,0.2-0.4,0.4c-0.3,0.3-0.8,0.6-0.8,0.7
	c-0.6,0.4-1.6,0.7-2.7,0.7c-1.2,0-2.3-0.5-3.4-1.4C8.6,9,8.1,7.7,8.2,6.3c0.1-1.1,0.5-1.9,0.6-2.1c0.3-0.5,0.6-0.8,0.9-1.1
	C9.9,2.9,10,2.6,9.8,2.3C9.7,2.1,9.6,2,9.4,2C9.1,2,8.4,2.1,8.2,2.1c-0.1,0-0.8,0.2-0.9,0.2C6.1,2.8,4.9,3.5,4,4.6
	c-0.9,1-1.5,2.3-1.8,3.6c-0.3,1.3-0.3,2.6,0.1,3.9c0.4,1.4,1.2,2.6,2.3,3.7c1.4,1.4,3.4,2.1,5.4,2.1c0.8,0,1.7-0.1,2.4-0.4
	c0.8-0.3,1.6-0.6,2.2-1.1c1.4-1,2.4-2.5,2.9-4.2C17.8,11.8,18.1,10.6,18,10z M10,16.7c-1.6,0-3.3-0.6-4.5-1.8
	c-4.2-4-1.8-10,2.3-11.3c-0.3,0.5-2.1,4.2,1,7.4c1.5,1.3,3,1.8,4.3,1.8c1.4,0,2.6-0.5,3.5-1C15.6,15,12.8,16.7,10,16.7z"/>
<path class="st1" d="M18,30c-0.1-0.3-0.2-0.4-0.5-0.5c-0.2-0.1-0.5,0.1-0.6,0.1c-0.1,0.1-0.2,0.2-0.4,0.4c-0.3,0.3-0.8,0.6-0.8,0.7
	c-0.6,0.4-1.6,0.7-2.7,0.7c-1.2,0-2.3-0.5-3.4-1.4c-1-1.1-1.5-2.3-1.4-3.7c0.1-1.1,0.5-1.9,0.6-2.1c0.3-0.5,0.6-0.8,0.9-1.1
	c0.2-0.2,0.4-0.5,0.2-0.8C9.7,22.1,9.6,22,9.4,22c-0.2,0-0.9,0.1-1.1,0.1c-0.1,0-0.8,0.2-0.9,0.2c-1.2,0.4-2.4,1.2-3.3,2.2
	c-0.9,1-1.5,2.3-1.8,3.6c-0.3,1.3-0.3,2.6,0.1,3.9c0.4,1.4,1.2,2.6,2.3,3.7c1.4,1.4,3.4,2.1,5.4,2.1c0.8,0,1.7-0.1,2.4-0.4
	c0.8-0.3,1.6-0.6,2.2-1.1c1.4-1,2.4-2.5,2.9-4.2C17.8,31.8,18.1,30.6,18,30z M10,36.7c-1.6,0-3.3-0.6-4.5-1.8
	c-4.2-4-1.8-10,2.3-11.3c-0.3,0.5-2.1,4.2,1,7.4c1.5,1.3,3,1.8,4.3,1.8c1.4,0,2.6-0.5,3.5-1C15.6,35,12.8,36.7,10,36.7z"/>
</svg>
