<?xml version="1.0" encoding="utf-8"?>
<!-- Generator: Adobe Illustrator 16.0.0, SVG Export Plug-In . SVG Version: 6.00 Build 0)  -->
<!DOCTYPE svg PUBLIC "-//W3C//DTD SVG 1.1//EN" "http://www.w3.org/Graphics/SVG/1.1/DTD/svg11.dtd">
<svg version="1.1" id="圖層_1" xmlns="http://www.w3.org/2000/svg" xmlns:xlink="http://www.w3.org/1999/xlink" x="0px" y="0px"
	 width="22px" height="22px" viewBox="0 0 22 22" enable-background="new 0 0 22 22" xml:space="preserve">
<path fill="#FFFFFF" d="M0,0v22h22V0H0z M20.5,10.3h-8.8V1.5h8.8V10.3z M10.3,1.5v8.8H1.5V1.5H10.3z M1.5,11.8h8.8v8.8H1.5V11.8z
	 M11.8,20.5v-8.8h8.8v8.8H11.8z"/>
<rect x="13.4" y="5.1" fill="#FFFFFF" width="5.5" height="1.5"/>
<g>
	<rect x="3.1" y="5.1" fill="#FFFFFF" width="5.5" height="1.5"/>
	<rect x="5.1" y="3.1" fill="#FFFFFF" width="1.5" height="5.5"/>
</g>
<rect x="2.6" y="15.4" transform="matrix(-0.7071 0.7071 -0.7071 -0.7071 21.4314 23.3735)" fill="#FFFFFF" width="6.5" height="1.5"/>
<rect x="2.6" y="15.4" transform="matrix(0.7071 0.7071 -0.7071 0.7071 13.123 0.5683)" fill="#FFFFFF" width="6.5" height="1.5"/>
<g>
	<rect x="13.4" y="14.1" fill="#FFFFFF" width="5.5" height="1.5"/>
	<rect x="13.4" y="16.7" fill="#FFFFFF" width="5.5" height="1.5"/>
</g>
</svg>
