<?xml version="1.0" encoding="utf-8"?>
<!-- Generator: Adobe Illustrator 22.0.1, SVG Export Plug-In . SVG Version: 6.00 Build 0)  -->
<svg version="1.1" id="圖層_1" xmlns="http://www.w3.org/2000/svg" xmlns:xlink="http://www.w3.org/1999/xlink" x="0px" y="0px"
	 width="50px" height="50px" viewBox="0 0 50 50" style="enable-background:new 0 0 50 50;" xml:space="preserve">
<g>
	<g>
		<path d="M26.5,13.9c0-0.8,0.6-1.2,1.2-1.2H31c0.8,0,1.2,0.6,1.2,1.2v3.3c0,0.8-0.6,1.2-1.2,1.2h-3.3c-0.8,0-1.2-0.6-1.2-1.2
			C26.5,17.2,26.5,13.9,26.5,13.9z"/>
	</g>
	<g>
		<path d="M26.5,23.4c0-0.8,0.6-1.2,1.2-1.2H31c0.8,0,1.2,0.6,1.2,1.2v3.3c0,0.8-0.6,1.2-1.2,1.2h-3.3c-0.8,0-1.2-0.6-1.2-1.2
			C26.5,26.7,26.5,23.4,26.5,23.4z"/>
	</g>
	<g>
		<path d="M17.6,13.9c0-0.8,0.6-1.2,1.2-1.2h3.3c0.8,0,1.2,0.6,1.2,1.2v3.3c0,0.8-0.6,1.2-1.2,1.2h-3.3c-0.8,0-1.2-0.6-1.2-1.2V13.9
			z"/>
	</g>
	<g>
		<path d="M17.6,23.4c0-0.8,0.6-1.2,1.2-1.2h3.3c0.8,0,1.2,0.6,1.2,1.2v3.3c0,0.8-0.6,1.2-1.2,1.2h-3.3c-0.8,0-1.2-0.6-1.2-1.2V23.4
			z"/>
	</g>
	<g>
		<path d="M8.8,13.9c0-0.8,0.6-1.2,1.2-1.2h3.3c0.8,0,1.2,0.6,1.2,1.2v3.3c0,0.8-0.6,1.2-1.2,1.2H10c-0.8,0-1.2-0.6-1.2-1.2V13.9z"
			/>
	</g>
	<g>
		<path d="M10,27.9c-0.8,0-1.2-0.6-1.2-1.2v-3.3c0-0.8,0.6-1.2,1.2-1.2h3.3c0.8,0,1.2,0.6,1.2,1.2v3.3c0,0.8-0.6,1.2-1.2,1.2H10z"/>
	</g>
	<g>
		<path d="M36,37.3c0,0.8-0.6,1.2-1.2,1.2H15.2c-0.8,0-1.2-0.6-1.2-1.2V34c0-0.8,0.6-1.2,1.2-1.2h19.6c0.8,0,1.2,0.6,1.2,1.2V37.3z"
			/>
	</g>
	<g>
		<path d="M41.2,26.7c0,0.8-0.6,1.2-1.2,1.2h-3.3c-0.7,0-1.2-0.6-1.2-1.2v-3.3c0-0.8,0.6-1.2,1.2-1.2H40c0.8,0,1.2,0.6,1.2,1.2V26.7
			z"/>
	</g>
	<g>
		<path d="M41.1,17.1c0,0.8-0.6,1.2-1.2,1.2h-3.2c-0.7,0-1.2-0.6-1.2-1.2V14c0-0.8,0.6-1.2,1.2-1.2h3.2c0.8,0,1.2,0.6,1.2,1.2V17.1z
			"/>
	</g>
	<path d="M41.6,6.2c3,0,5.4,2.4,5.4,5.4v26.8c0,3-2.4,5.4-5.4,5.4H8.4c-3,0-5.4-2.4-5.4-5.4V11.6c0-3,2.4-5.4,5.4-5.4L41.6,6.2
		 M41.6,3.2H8.4C3.8,3.2,0,7,0,11.6v26.8c0,4.6,3.8,8.4,8.4,8.4h33.2c4.6,0,8.4-3.8,8.4-8.4V11.6C50,7,46.2,3.2,41.6,3.2L41.6,3.2z"
		/>
</g>
</svg>
