<?xml version="1.0" encoding="utf-8"?>
<!-- Generator: Adobe Illustrator 24.3.0, SVG Export Plug-In . SVG Version: 6.00 Build 0)  -->
<svg version="1.1" id="圖層_1" xmlns="http://www.w3.org/2000/svg" xmlns:xlink="http://www.w3.org/1999/xlink" x="0px" y="0px"
	 viewBox="0 0 50 100" style="enable-background:new 0 0 50 100;" xml:space="preserve">
<style type="text/css">
	.st0{fill:#FFFFFF;}
</style>
<g>
	<path class="st0" d="M31,36.9"/>
	<path class="st0" d="M50,23.9c0-4-1.5-7.8-4.4-10.7c-0.5-0.5-1.4-0.5-1.9,0s-0.5,1.4,0,1.9c2.3,2.4,3.6,5.5,3.6,8.8
		s-1.3,6.4-3.7,8.7c-0.5,0.5-0.5,1.4,0,1.9l0,0c0.5,0.5,1.4,0.5,1.9,0C48.4,31.7,50,27.9,50,23.9L50,23.9z"/>
	<path class="st0" d="M41.7,17L41.7,17c-0.5-0.5-1.4-0.5-1.9,0s-0.5,1.4,0,1.9c1.3,1.3,2,3,2,4.9c0,1.8-0.7,3.6-2,4.8
		c-0.5,0.5-0.5,1.4,0,1.9l0,0c0.5,0.5,1.4,0.5,1.9,0c1.8-1.8,2.8-4.2,2.9-6.8C44.5,21.3,43.5,18.8,41.7,17L41.7,17z"/>
	<path class="st0" d="M29.5,7.4L18,14.3H6.9c-0.8,0-1.4,0.6-1.4,1.4v1H1.4C0.6,16.7,0,17.3,0,18v10.5c0,0.8,0.6,1.4,1.4,1.4h4.1v1
		c0,0.8,0.6,1.4,1.4,1.4h1.5v9.3C8.4,42.4,9,43,9.8,43h5.7c0.8,0,1.4-0.6,1.4-1.4v-9.3H18l11.5,6.9c1.9,1.2,4.3-0.2,4.3-2.4V9.6
		C33.8,7.5,31.4,6.2,29.5,7.4z M5.5,27.2H2.7v-7.8h2.8V27.2z M14.1,40.3h-2.9v-8h2.9V40.3z M17,29.6c0,0-8.6,0-8.7,0V17H17V29.6z
		 M31.1,36.9C31.1,36.9,31,37,31.1,36.9c-0.1,0-11.3-6.7-11.4-6.7c0-0.2,0-13.6,0-13.8c0,0,11.2-6.7,11.3-6.7c0.1,0,0.1,0,0.1,0.1
		V36.9z"/>
</g>
<g>
	<path class="st0" d="M31,86.9"/>
	<path class="st0" d="M50,73.9c0-4-1.5-7.8-4.4-10.7c-0.5-0.5-1.4-0.5-1.9,0s-0.5,1.4,0,1.9c2.3,2.4,3.6,5.5,3.6,8.8
		s-1.3,6.4-3.7,8.7c-0.5,0.5-0.5,1.4,0,1.9l0,0c0.5,0.5,1.4,0.5,1.9,0C48.4,81.7,50,77.9,50,73.9L50,73.9z"/>
	<path class="st0" d="M41.7,67L41.7,67c-0.5-0.5-1.4-0.5-1.9,0s-0.5,1.4,0,1.9c1.3,1.3,2,3,2,4.9c0,1.8-0.7,3.6-2,4.8
		c-0.5,0.5-0.5,1.4,0,1.9l0,0c0.5,0.5,1.4,0.5,1.9,0c1.8-1.8,2.8-4.2,2.9-6.8C44.5,71.3,43.5,68.8,41.7,67L41.7,67z"/>
	<path class="st0" d="M29.5,57.4L18,64.3H6.9c-0.8,0-1.4,0.6-1.4,1.4v1H1.4C0.6,66.7,0,67.3,0,68v10.5c0,0.8,0.6,1.4,1.4,1.4h4.1v1
		c0,0.8,0.6,1.4,1.4,1.4h1.5v9.3C8.4,92.4,9,93,9.8,93h5.7c0.8,0,1.4-0.6,1.4-1.4v-9.3H18l11.5,6.9c1.9,1.2,4.3-0.2,4.3-2.4V59.6
		C33.8,57.5,31.4,56.2,29.5,57.4z M5.5,77.2H2.7v-7.8h2.8V77.2z M14.1,90.3h-2.9v-8h2.9V90.3z M17,79.6c0,0-8.6,0-8.7,0V67H17V79.6z
		 M31.1,86.9C31.1,86.9,31,87,31.1,86.9c-0.1,0-11.3-6.7-11.4-6.7c0-0.2,0-13.6,0-13.8c0,0,11.2-6.7,11.3-6.7c0.1,0,0.1,0,0.1,0.1
		V86.9z"/>
</g>
</svg>
