<?xml version="1.0" encoding="utf-8"?>
<!-- Generator: Adobe Illustrator 16.0.0, SVG Export Plug-In . SVG Version: 6.00 Build 0)  -->
<!DOCTYPE svg PUBLIC "-//W3C//DTD SVG 1.1//EN" "http://www.w3.org/Graphics/SVG/1.1/DTD/svg11.dtd">
<svg version="1.1" id="圖層_1" xmlns="http://www.w3.org/2000/svg" xmlns:xlink="http://www.w3.org/1999/xlink" x="0px" y="0px"
	 width="50px" height="100px" viewBox="0 0 50 100" enable-background="new 0 0 50 100" xml:space="preserve">
<path fill="#FFFFFF" d="M30.7,38.7L29.6,37.6l10.9-14.3l1.8,1.8c0.8,0.8,2,0.8,2.8,0l4.4-4.4c0.8-0.8,0.8-2,0-2.8L32.1,0.6
	c-0.8-0.8-2-0.8-2.8,0L24.9,5c-0.8,0.8-0.8,2,0,2.8l1.8,1.8L12.4,20.4l-1.1-1.1c-0.8-0.8-2-0.8-2.8,0l-4.4,4.4c-0.8,0.8-0.8,2,0,2.8
	l8.3,8.3L0.6,46.7c-0.8,0.8-0.8,2,0,2.7c0.8,0.8,2,0.8,2.7,0l11.9-11.9l8.3,8.3c0.8,0.8,2,0.8,2.8,0l4.4-4.4
	C31.5,40.7,31.5,39.5,30.7,38.7z M29,6.3l1.6-1.6L45.4,19.5L43.8,21L29,6.3z M25.8,36.2l-12-12l16.9-12.9l8,8L25.8,36.2z M24.9,41.8
	L8.2,25.1l1.6-1.6l16.7,16.7L24.9,41.8z"/>
<path fill="#FFDF1B" d="M30.7,88.7L29.6,87.6l10.9-14.3l1.8,1.8c0.8,0.801,2,0.801,2.8,0l4.4-4.399c0.8-0.8,0.8-2,0-2.8L32.1,50.6
	c-0.8-0.8-2-0.8-2.8,0L24.9,55c-0.8,0.8-0.8,2,0,2.8l1.8,1.8L12.4,70.4L11.3,69.3c-0.8-0.8-2-0.8-2.8,0l-4.4,4.4
	c-0.8,0.8-0.8,2,0,2.8l8.3,8.3L0.6,96.7c-0.8,0.8-0.8,2,0,2.7c0.8,0.8,2,0.8,2.7,0l11.9-11.9l8.3,8.3c0.8,0.8,2,0.8,2.8,0l4.4-4.399
	C31.5,90.7,31.5,89.5,30.7,88.7z M29,56.3l1.6-1.6L45.4,69.5L43.8,71L29,56.3z M25.8,86.2l-12-12l16.9-12.9l8,8L25.8,86.2z
	 M24.9,91.8L8.2,75.1l1.6-1.6l16.7,16.7L24.9,91.8z"/>
</svg>
