<?xml version="1.0" encoding="utf-8"?>
<!-- Generator: Adobe Illustrator 16.0.0, SVG Export Plug-In . SVG Version: 6.00 Build 0)  -->
<!DOCTYPE svg PUBLIC "-//W3C//DTD SVG 1.1//EN" "http://www.w3.org/Graphics/SVG/1.1/DTD/svg11.dtd">
<svg version="1.1" id="book" xmlns="http://www.w3.org/2000/svg" xmlns:xlink="http://www.w3.org/1999/xlink" x="0px" y="0px"
	 width="50px" height="100px" viewBox="0 -25 50 100" enable-background="new 0 -25 50 100" xml:space="preserve">
<g id="组_26" transform="translate(0 0)">
	<path id="路径_45" fill="#fdbf8f" d="M49-14.863h-3.3v-1.2c0-0.4-0.3-0.8-0.7-1c-2.3-0.6-4.6-0.9-7-0.9
		c-4.8-0.2-9.5,1.5-13.1,4.8c-3.5-3.3-8.2-5.1-13.1-4.9c-2.4,0-4.7,0.3-7,0.9c-0.4,0.1-0.7,0.5-0.7,1v1.2H1c-0.5,0-1,0.4-1,1l0,0v31
		c0,0.5,0.4,1,1,1c0.2,0,0.3,0,0.5-0.1c7.3-3.4,15.6-4.101,23.3-1.9H25c0.1,0,0.2,0,0.2,0c7.8-2.2,16-1.5,23.3,1.9
		c0.5,0.3,1.1,0.1,1.3-0.4c0.2-0.2,0.2-0.4,0.2-0.5v-31C50-14.463,49.6-14.863,49-14.863z M1.9,15.438v-28.4h2.3v24.3
		c0,0.5,0.4,1,1,1c0.1,0,0.1,0,0.2,0c2-0.3,4-0.5,6.1-0.5c2.8,0,5.6,0.4,8.3,1.3C13.7,12.337,7.6,13.137,1.9,15.438z M11.4,9.938
		c-1.8,0-3.5,0.1-5.3,0.3v-25.5c1.9-0.4,3.9-0.6,5.8-0.7c4.5-0.2,8.9,1.5,12.1,4.8v24.101C20.2,10.737,15.8,9.637,11.4,9.938z
		 M26-11.163c3.2-3.2,7.6-5,12.1-4.7c1.9,0,3.9,0.2,5.7,0.6v25.5c-1.7-0.2-3.5-0.3-5.2-0.3c-4.399-0.2-8.8,0.899-12.6,3.1V-11.163z
		 M48.1,15.438c-5.6-2.301-11.8-3.101-17.8-2.4c2.7-0.9,5.5-1.3,8.3-1.3c2,0,4.101,0.2,6.101,0.5c0.5,0.1,1-0.3,1.1-0.8
		c0-0.101,0-0.101,0-0.2v-24.2h2.3V15.438z"/>
</g>
<g id="组_26_1_" transform="translate(0 0)">
	<path id="路径_45_1_" fill="#FFFFFF" d="M49,35.137h-3.3v-1.199c0-0.4-0.3-0.801-0.7-1c-2.3-0.601-4.6-0.9-7-0.9
		c-4.8-0.2-9.5,1.5-13.1,4.8c-3.5-3.3-8.2-5.1-13.1-4.899c-2.4,0-4.7,0.3-7,0.899c-0.4,0.101-0.7,0.5-0.7,1v1.2H1c-0.5,0-1,0.4-1,1
		l0,0v31c0,0.5,0.4,1,1,1c0.2,0,0.3,0,0.5-0.1c7.3-3.4,15.6-4.101,23.3-1.9H25c0.1,0,0.2,0,0.2,0c7.8-2.2,16-1.5,23.3,1.9
		c0.5,0.3,1.1,0.1,1.3-0.4c0.2-0.2,0.2-0.4,0.2-0.5v-31C50,35.537,49.6,35.137,49,35.137z M1.9,65.438v-28.4h2.3v24.3
		c0,0.5,0.4,1,1,1c0.1,0,0.1,0,0.2,0c2-0.3,4-0.5,6.1-0.5c2.8,0,5.6,0.4,8.3,1.3C13.7,62.337,7.6,63.137,1.9,65.438z M11.4,59.938
		c-1.8,0-3.5,0.1-5.3,0.3v-25.5c1.9-0.4,3.9-0.601,5.8-0.7c4.5-0.2,8.9,1.5,12.1,4.8v24.101C20.2,60.737,15.8,59.637,11.4,59.938z
		 M26,38.837c3.2-3.2,7.6-5,12.1-4.7c1.9,0,3.9,0.2,5.7,0.601v25.5c-1.7-0.2-3.5-0.3-5.2-0.3c-4.399-0.2-8.8,0.899-12.6,3.1V38.837z
		 M48.1,65.438c-5.6-2.301-11.8-3.101-17.8-2.4c2.7-0.9,5.5-1.3,8.3-1.3c2,0,4.101,0.2,6.101,0.5c0.5,0.1,1-0.3,1.1-0.8
		c0-0.101,0-0.101,0-0.2v-24.2h2.3V65.438z"/>
</g>
</svg>
