<?xml version="1.0" encoding="utf-8"?>
<!-- Generator: Adobe Illustrator 22.0.1, SVG Export Plug-In . SVG Version: 6.00 Build 0)  -->
<svg version="1.1" id="圖層_1" xmlns="http://www.w3.org/2000/svg" xmlns:xlink="http://www.w3.org/1999/xlink" x="0px" y="0px"
	 width="20px" height="40px" viewBox="0 0 20 40" style="enable-background:new 0 0 20 40;" xml:space="preserve">
<style type="text/css">
	.st0{fill:#FFFFFF;}
	.st1{fill:#FFDF1B;}
</style>
<path class="st0" d="M9.9,0C9.5,0.1,9.2,0.5,9.2,0.9v1.7C9.2,3,9.6,3.4,10,3.4c0.5,0,0.8-0.4,0.8-0.8c0,0,0,0,0,0V0.9
	C10.9,0.4,10.5,0,10,0C10,0,10,0,9.9,0z M3.4,2.7c-0.5,0.1-0.7,0.5-0.7,1C2.8,3.8,2.9,4,3,4.1l1.2,1.2C4.4,5.6,5,5.7,5.3,5.4
	c0.4-0.3,0.4-0.8,0.1-1.2c0,0-0.1-0.1-0.1-0.1L4.2,2.9C4,2.8,3.8,2.7,3.6,2.7C3.5,2.7,3.5,2.7,3.4,2.7C3.5,2.7,3.4,2.7,3.4,2.7z
	 M16.4,2.7c-0.2,0-0.4,0.1-0.5,0.3l-1.2,1.2c-0.4,0.3-0.4,0.8-0.1,1.2c0.3,0.4,0.8,0.4,1.2,0.1c0,0,0.1-0.1,0.1-0.1l1.2-1.2
	c0.3-0.3,0.3-0.8,0-1.2C16.9,2.8,16.7,2.7,16.4,2.7C16.5,2.7,16.4,2.7,16.4,2.7z M10,4.2c-3.2,0-5.8,2.6-5.8,5.8s2.6,5.8,5.8,5.8
	s5.8-2.6,5.8-5.8S13.2,4.2,10,4.2z M10,5.9c2.3,0,4.1,1.9,4.1,4.1s-1.9,4.1-4.1,4.1S5.9,12.3,5.9,10S7.8,5.9,10,5.9z M0.8,9.2
	C0.3,9.2,0,9.6,0,10.1c0,0.5,0.4,0.8,0.9,0.8h1.7c0.5,0,0.8-0.4,0.8-0.8S3.1,9.2,2.6,9.2c0,0,0,0,0,0H0.9C0.9,9.2,0.9,9.2,0.8,9.2
	C0.8,9.2,0.8,9.2,0.8,9.2z M17.3,9.2c-0.5,0-0.8,0.4-0.8,0.9c0,0.5,0.4,0.8,0.9,0.8h1.7c0.5,0,0.8-0.4,0.8-0.8
	c0-0.5-0.4-0.8-0.8-0.8c0,0,0,0,0,0h-1.7C17.5,9.2,17.4,9.2,17.3,9.2C17.4,9.2,17.4,9.2,17.3,9.2z M4.6,14.5c-0.2,0-0.3,0.1-0.5,0.3
	L3,15.9c-0.3,0.3-0.3,0.9,0,1.2c0.3,0.3,0.9,0.3,1.2,0l1.2-1.2c0.3-0.3,0.4-0.8,0-1.2C5.2,14.5,4.9,14.4,4.6,14.5z M15.2,14.5
	c-0.5,0.1-0.7,0.5-0.7,1c0,0.2,0.1,0.3,0.3,0.5l1.2,1.2c0.3,0.3,0.9,0.3,1.2,0c0.3-0.3,0.3-0.9,0-1.2l-1.2-1.1
	C15.7,14.6,15.5,14.5,15.2,14.5C15.2,14.5,15.2,14.5,15.2,14.5z M9.9,16.6c-0.4,0.1-0.7,0.4-0.7,0.8v1.7c0,0.5,0.4,0.8,0.8,0.8
	c0.5,0,0.8-0.4,0.8-0.8c0,0,0,0,0,0v-1.7c0-0.5-0.4-0.8-0.8-0.8C10,16.6,10,16.6,9.9,16.6z"/>
<path class="st1" d="M9.9,20c-0.4,0.1-0.7,0.4-0.7,0.8v1.7c0,0.5,0.4,0.8,0.8,0.8c0.5,0,0.8-0.4,0.8-0.8c0,0,0,0,0,0v-1.7
	c0-0.5-0.4-0.8-0.8-0.8C10,20,10,20,9.9,20z M3.4,22.7c-0.5,0.1-0.7,0.5-0.7,1c0,0.2,0.1,0.3,0.3,0.5l1.2,1.2
	c0.3,0.4,0.8,0.4,1.2,0.1c0.4-0.3,0.4-0.8,0.1-1.2c0,0-0.1-0.1-0.1-0.1l-1.2-1.2c-0.2-0.2-0.4-0.3-0.6-0.3
	C3.5,22.7,3.5,22.7,3.4,22.7C3.5,22.7,3.4,22.7,3.4,22.7z M16.4,22.7c-0.2,0-0.4,0.1-0.5,0.3l-1.2,1.2c-0.4,0.3-0.4,0.8-0.1,1.2
	c0.3,0.4,0.8,0.4,1.2,0.1c0,0,0.1-0.1,0.1-0.1l1.2-1.2c0.3-0.3,0.3-0.8,0-1.2C16.9,22.8,16.7,22.7,16.4,22.7
	C16.5,22.7,16.4,22.7,16.4,22.7z M10,24.2c-3.2,0-5.8,2.6-5.8,5.8s2.6,5.8,5.8,5.8s5.8-2.6,5.8-5.8S13.2,24.2,10,24.2z M10,25.9
	c2.3,0,4.1,1.9,4.1,4.1s-1.9,4.1-4.1,4.1S5.9,32.3,5.9,30S7.8,25.9,10,25.9z M0.8,29.2c-0.5,0-0.8,0.4-0.8,0.9s0.4,0.8,0.9,0.8h1.7
	c0.5,0,0.8-0.4,0.8-0.8c0-0.5-0.4-0.8-0.8-0.8c0,0,0,0,0,0H0.9C0.9,29.2,0.9,29.2,0.8,29.2C0.8,29.2,0.8,29.2,0.8,29.2z M17.3,29.2
	c-0.5,0-0.8,0.4-0.8,0.9c0,0.5,0.4,0.8,0.9,0.8h1.7c0.5,0,0.8-0.4,0.8-0.8c0-0.5-0.4-0.8-0.8-0.8c0,0,0,0,0,0h-1.7
	C17.5,29.2,17.4,29.2,17.3,29.2C17.4,29.2,17.4,29.2,17.3,29.2z M4.6,34.5c-0.2,0-0.3,0.1-0.5,0.3L3,35.9c-0.3,0.3-0.3,0.9,0,1.2
	s0.9,0.3,1.2,0l1.2-1.2c0.3-0.3,0.4-0.8,0-1.2C5.2,34.5,4.9,34.4,4.6,34.5z M15.2,34.5c-0.5,0.1-0.7,0.5-0.7,1
	c0,0.2,0.1,0.3,0.3,0.5l1.2,1.2c0.3,0.3,0.9,0.3,1.2,0s0.3-0.9,0-1.2l-1.2-1.1C15.7,34.6,15.5,34.5,15.2,34.5
	C15.2,34.5,15.2,34.5,15.2,34.5z M9.9,36.6c-0.4,0.1-0.7,0.4-0.7,0.8v1.7c0,0.5,0.4,0.8,0.8,0.8c0.5,0,0.8-0.4,0.8-0.8c0,0,0,0,0,0
	v-1.7c0-0.5-0.4-0.8-0.8-0.8C10,36.6,10,36.6,9.9,36.6z"/>
</svg>
