<?xml version="1.0" encoding="utf-8"?>
<!-- Generator: Adobe Illustrator 24.2.3, SVG Export Plug-In . SVG Version: 6.00 Build 0)  -->
<svg version="1.1" id="圖層_1" xmlns="http://www.w3.org/2000/svg" xmlns:xlink="http://www.w3.org/1999/xlink" x="0px" y="0px"
	 width="50px" height="50px" viewBox="0 0 50 50" style="enable-background:new 0 0 50 50;" xml:space="preserve">
<g>
	<path d="M49.56,14.54L36.03,0.48c-0.44-0.46-1.12-0.61-1.71-0.36c-0.6,0.24-0.98,0.81-0.98,1.45v6.77h-0.53
		c-11.2,0-20.31,9.11-20.31,20.31v3.13c0,0.72,0.51,1.33,1.22,1.49c0.12,0.03,0.22,0.04,0.34,0.04c0.59,0,1.15-0.34,1.43-0.89
		c2.93-5.86,8.82-9.5,15.37-9.5h2.47v6.78c0,0.63,0.39,1.21,0.98,1.45c0.59,0.24,1.27,0.1,1.71-0.36l13.54-14.06
		C50.15,16.1,50.15,15.15,49.56,14.54z"/>
	<path d="M43.75,50H6.25C2.8,50,0,47.2,0,43.75V14.58c0-3.45,2.8-6.25,6.25-6.25h6.25c1.15,0,2.08,0.93,2.08,2.08
		s-0.93,2.09-2.08,2.09H6.25c-1.15,0-2.08,0.94-2.08,2.08v29.17c0,1.15,0.94,2.08,2.08,2.08h37.5c1.15,0,2.08-0.94,2.08-2.08V27.08
		c0-1.15,0.93-2.08,2.08-2.08c1.15,0,2.08,0.93,2.08,2.08v16.67C50,47.2,47.2,50,43.75,50z"/>
</g>
</svg>
