<?xml version="1.0" encoding="utf-8"?>
<!-- Generator: Adobe Illustrator 22.0.1, SVG Export Plug-In . SVG Version: 6.00 Build 0)  -->
<svg version="1.1" id="圖層_1" xmlns="http://www.w3.org/2000/svg" xmlns:xlink="http://www.w3.org/1999/xlink" x="0px" y="0px"
	 viewBox="0 0 50 100" style="enable-background:new 0 0 50 100;" xml:space="preserve">
<style type="text/css">
	.st0{fill:#FFEA01;}
	.st1{fill:#FFFFFF;}
</style>
<g>
	<g>
		<g>
			<path class="st0" d="M5.2,36c2.1,3,5.6,7.2,10,10.3c2.3,1.6,4.4,2.7,7.5,3.1c3,0.4,5.4-0.1,7.9-1.9c0,0,2.3-1.7,2.9-2.3
				c0.2-0.1,0.5-0.4,0.5-0.4c0.3-0.3,0.4-0.5,0.5-0.8c0.1-0.9-0.8-2.5-2.6-4.1c-2.1-1.9-4-2.9-5.1-2.9c0,0,0,0-0.1,0
				c-0.4,0-0.7,0.1-1.3,0.4c-0.1,0.1-1.3,0.8-1.8,1.4l-0.7,0.6c-0.7,0.7-1.7,1.7-2.9,1.8c-2.2,0.2-4.2-1.4-5.4-2.5
				c-2.3-2.1-4.3-4.6-5.9-7.3c-0.6-1-1.9-3.3-1.2-5.6c0.4-1.2,1.4-1.9,2.2-2.4l0.4-0.3c0.5-0.3,1-0.8,1.4-1c0.7-0.5,1.5-1.3,1.6-2.1
				c0.1-1.2-0.5-2.9-1.8-5.1c-0.6-1-2.1-3.5-3.3-3.7c-0.4-0.1-0.8,0.1-1.4,0.5c-0.5,0.3-1.7,1.2-2.6,2l-0.5,0.4
				c-2.2,2.2-3.5,5-3.5,8.4C0.1,27.9,2.6,32.2,5.2,36z"/>
			<path class="st0" d="M3.6,12.7L3.6,12.7L3.6,12.7z"/>
		</g>
		<path class="st0" d="M23.5,21c-0.3,0.4-0.7,0.8-1.3,1.3c-0.5,0.4-1.2,0.9-1.9,1.6c-0.8,0.6-1.6,1.3-2.1,1.8s-1,1-1.3,1.5
			c-0.6,0.9-0.9,2.2-0.9,3.6h11.5V28h-7.3c0.2-0.2,0.5-0.5,0.9-0.8s0.8-0.8,1.5-1.3c0.9-0.8,1.8-1.5,2.4-2.1s1.2-1.2,1.5-1.7
			s0.6-1,0.7-1.6c0.2-0.5,0.2-1.2,0.2-1.8c0-0.7-0.1-1.4-0.3-2c-0.2-0.6-0.6-1.2-1-1.6c-0.4-0.4-1-0.7-1.7-1
			c-0.6-0.2-1.5-0.4-2.3-0.4s-1.6,0.1-2.2,0.4c-0.6,0.3-1.3,0.6-1.8,1.2s-0.8,1-1.2,1.8c-0.3,0.7-0.5,1.5-0.5,2.3h3.1
			c0-0.5,0.1-0.9,0.3-1.3c0.1-0.4,0.3-0.7,0.5-0.9c0.2-0.2,0.4-0.4,0.7-0.5c0.3-0.1,0.6-0.2,0.9-0.2c0.7,0,1.4,0.2,1.8,0.6
			s0.6,0.9,0.6,1.7c0,0.4-0.1,0.8-0.2,1.3C24.1,20.2,23.8,20.6,23.5,21L23.5,21z"/>
		<path class="st0" d="M39,30.7V27h2.1v-2.8H39V13.7h-2.4l-7.4,10.9V27h6.7v3.8L39,30.7L39,30.7z M32.5,24.1l3.3-5v5H32.5z"/>
		<path class="st0" d="M28.1,0.5c-7,0-13.2,3.2-17.2,8.4c0.7,0.5,1.4,1.3,1.9,1.9c3.5-4.7,9-7.7,15.4-7.7c10.7,0,19.2,8.6,19.2,19.2
			c0,7.7-4.6,14.4-11.2,17.5c0.5,0.7,1,1.6,1.4,2.3C45,38.5,50,31.1,50,22.4C49.9,10.2,40.2,0.5,28.1,0.5z"/>
	</g>
</g>
<g>
	<g>
		<g>
			<path class="st1" d="M5.2,86c2.1,3,5.6,7.2,10,10.3c2.3,1.6,4.4,2.7,7.5,3.1c3,0.4,5.4-0.1,7.9-1.9c0,0,2.3-1.7,2.9-2.3
				c0.2-0.1,0.5-0.4,0.5-0.4c0.3-0.3,0.4-0.5,0.5-0.8c0.1-0.9-0.8-2.5-2.6-4.1c-2.1-1.9-4-2.9-5.1-2.9c0,0,0,0-0.1,0
				c-0.4,0-0.7,0.1-1.3,0.4c-0.1,0.1-1.3,0.8-1.8,1.4l-0.7,0.6c-0.7,0.7-1.7,1.7-2.9,1.8c-2.2,0.2-4.2-1.4-5.4-2.5
				c-2.3-2.1-4.3-4.6-5.9-7.3c-0.6-1-1.9-3.3-1.2-5.6c0.4-1.2,1.4-1.9,2.2-2.4l0.4-0.3c0.5-0.3,1-0.8,1.4-1c0.7-0.5,1.5-1.3,1.6-2.1
				c0.1-1.2-0.5-2.9-1.8-5.1c-0.6-1-2.1-3.5-3.3-3.7c-0.4-0.1-0.8,0.1-1.4,0.5c-0.5,0.3-1.7,1.2-2.6,2l-0.5,0.4
				c-2.2,2.2-3.5,5-3.5,8.4C0.1,77.9,2.6,82.2,5.2,86z"/>
			<path class="st1" d="M3.6,62.7L3.6,62.7L3.6,62.7z"/>
		</g>
		<path class="st1" d="M23.5,71c-0.3,0.4-0.7,0.8-1.3,1.3c-0.5,0.4-1.2,0.9-1.9,1.6c-0.8,0.6-1.6,1.3-2.1,1.8s-1,1-1.3,1.5
			c-0.6,0.9-0.9,2.2-0.9,3.6h11.5V78h-7.3c0.2-0.2,0.5-0.5,0.9-0.8c0.4-0.3,0.8-0.8,1.5-1.3c0.9-0.8,1.8-1.5,2.4-2.1
			c0.6-0.6,1.2-1.2,1.5-1.7s0.6-1,0.7-1.6c0.2-0.5,0.2-1.2,0.2-1.8c0-0.7-0.1-1.4-0.3-2c-0.2-0.6-0.6-1.2-1-1.6s-1-0.7-1.7-1
			c-0.6-0.2-1.5-0.4-2.3-0.4s-1.6,0.1-2.2,0.4c-0.6,0.3-1.3,0.6-1.8,1.2c-0.5,0.6-0.8,1-1.2,1.8c-0.3,0.7-0.5,1.5-0.5,2.3h3.1
			c0-0.5,0.1-0.9,0.3-1.3c0.1-0.4,0.3-0.7,0.5-0.9c0.2-0.2,0.4-0.4,0.7-0.5c0.3-0.1,0.6-0.2,0.9-0.2c0.7,0,1.4,0.2,1.8,0.6
			s0.6,0.9,0.6,1.7c0,0.4-0.1,0.8-0.2,1.3C24.1,70.2,23.8,70.6,23.5,71L23.5,71z"/>
		<path class="st1" d="M39,80.7V77h2.1v-2.8H39V63.7h-2.4l-7.4,10.9V77h6.7v3.8L39,80.7L39,80.7z M32.5,74.1l3.3-5v5H32.5z"/>
		<path class="st1" d="M28.1,50.5c-7,0-13.2,3.2-17.2,8.4c0.7,0.5,1.4,1.3,1.9,1.9c3.5-4.7,9-7.7,15.4-7.7
			c10.7,0,19.2,8.6,19.2,19.2c0,7.7-4.6,14.4-11.2,17.5c0.5,0.7,1,1.6,1.4,2.3C45,88.5,50,81.1,50,72.4
			C49.9,60.2,40.2,50.5,28.1,50.5z"/>
	</g>
</g>
</svg>
