<?xml version="1.0" encoding="utf-8"?>
<!-- Generator: Adobe Illustrator 16.0.0, SVG Export Plug-In . SVG Version: 6.00 Build 0)  -->
<!DOCTYPE svg PUBLIC "-//W3C//DTD SVG 1.1//EN" "http://www.w3.org/Graphics/SVG/1.1/DTD/svg11.dtd">
<svg version="1.1" id="圖層_1" xmlns="http://www.w3.org/2000/svg" xmlns:xlink="http://www.w3.org/1999/xlink" x="0px" y="0px"
	 width="20px" height="20px" viewBox="0 0 20 20" enable-background="new 0 0 20 20" xml:space="preserve">
<g>
	<path fill="#A470AC" d="M10,0C4.477,0,0,4.477,0,10c0,5.522,4.477,10,10,10c5.522,0,10-4.478,10-10C20,4.477,15.522,0,10,0z
		 M10,18.484c-4.687,0-8.485-3.798-8.485-8.484S5.313,1.515,10,1.515S18.484,5.313,18.484,10S14.687,18.484,10,18.484z"/>
	<g>
		<ellipse fill="#A470AC" cx="10.002" cy="8.569" rx="1.099" ry="0.793"/>
		<ellipse fill="#A470AC" cx="10.012" cy="5.613" rx="0.931" ry="0.645"/>
		<path fill="#A470AC" d="M10,2.503c-2.757,0-4.992,2.235-4.992,4.992S7.243,12.486,10,12.486s4.991-2.235,4.991-4.992
			S12.757,2.503,10,2.503z M11.771,10.13c-0.808,0.591-2.628,0.746-3.517,0C7.396,9.411,7.337,8.569,7.524,7.914
			c0.17-0.596,0.749-0.956,0.749-0.956S7.856,6.789,7.702,6.022c-0.187-0.926,0.315-2.295,2.354-2.295
			c2.04,0,2.375,1.547,2.266,2.266s-0.621,0.965-0.621,0.965s0.621,0.266,0.788,0.936C12.657,8.564,12.578,9.539,11.771,10.13z"/>
	</g>
</g>
</svg>
