<?xml version="1.0" encoding="utf-8"?>
<!-- Generator: Adobe Illustrator 16.0.0, SVG Export Plug-In . SVG Version: 6.00 Build 0)  -->
<!DOCTYPE svg PUBLIC "-//W3C//DTD SVG 1.1//EN" "http://www.w3.org/Graphics/SVG/1.1/DTD/svg11.dtd">
<svg version="1.1" id="圖層_2" xmlns="http://www.w3.org/2000/svg" xmlns:xlink="http://www.w3.org/1999/xlink" x="0px" y="0px"
	 width="20px" height="20px" viewBox="15 15 20 20" enable-background="new 15 15 20 20" xml:space="preserve">
<path fill="#D56F84" d="M34.686,25.785l-2.511-0.808l-0.807-2.466c-0.046-0.134-0.18-0.269-0.314-0.314l-2.466-0.807l-0.808-2.466
	c-0.045-0.134-0.18-0.269-0.313-0.314L25,17.803l-0.807-2.466c-0.045-0.179-0.225-0.314-0.404-0.314c-0.18,0-0.359,0.09-0.449,0.269
	l-5.785,11.255l-1.345,1.346c-1.614,1.614-1.614,4.26,0,5.874c0.807,0.808,1.838,1.211,2.959,1.211s2.152-0.448,2.96-1.211
	l1.345-1.345l11.3-5.785C34.91,26.547,35,26.367,35,26.188C35,26.009,34.865,25.83,34.686,25.785z M28.408,22.287l2.197,0.717
	l0.673,2.108l-8.924,5.471l-1.121-1.121L28.408,22.287z M24.866,18.745l2.108,0.672l0.717,2.197l-7.13,7.175l-1.121-1.121
	L24.866,18.745z M23.655,16.682l0.449,1.39l-5.381,8.924l-0.179-0.18L23.655,16.682z M21.458,33.094
	c-0.627,0.628-1.435,0.942-2.287,0.942s-1.659-0.314-2.287-0.942c-1.255-1.255-1.255-3.273,0-4.528l1.032-1.031l4.529,4.528
	L21.458,33.094z M23.251,31.436l-0.179-0.18l8.834-5.381l1.39,0.448L23.251,31.436z"/>
</svg>
