<?xml version="1.0" encoding="utf-8"?>
<!-- Generator: Adobe Illustrator 16.0.0, SVG Export Plug-In . SVG Version: 6.00 Build 0)  -->
<!DOCTYPE svg PUBLIC "-//W3C//DTD SVG 1.1//EN" "http://www.w3.org/Graphics/SVG/1.1/DTD/svg11.dtd">
<svg version="1.1" id="圖層_1" xmlns="http://www.w3.org/2000/svg" xmlns:xlink="http://www.w3.org/1999/xlink" x="0px" y="0px"
	 width="20px" height="20px" viewBox="0 0 20 20" enable-background="new 0 0 20 20" xml:space="preserve">
<path fill="#90B270" d="M17.07,2.93C15.262,1.119,12.762,0,10,0S4.738,1.119,2.93,2.93C2.634,3.223,2.357,3.537,2.102,3.867
	C2.091,3.879,2.08,3.893,2.07,3.906C0.771,5.592,0,7.706,0,10c0,2.762,1.119,5.262,2.93,7.07c0.207,0.207,0.422,0.404,0.646,0.593
	c0.012,0.011,0.024,0.021,0.036,0.03C5.344,19.133,7.57,20,9.999,20c2.762,0,5.262-1.119,7.071-2.93C18.879,15.261,20,12.762,20,10
	C20,7.239,18.881,4.739,17.07,2.93z M4.102,13.57c-0.037,0.693-0.131,1.324-0.256,1.888c-0.041,0.187-0.087,0.364-0.134,0.535
	C2.227,14.434,1.313,12.324,1.313,10c0-1.238,0.26-2.415,0.727-3.48c0.213,1.205,0.66,2.262,1.092,3.285
	C3.661,11.063,4.169,12.266,4.102,13.57z M9.234,17.759c0.145,0.328,0.313,0.64,0.498,0.925c-1.853-0.057-3.559-0.691-4.943-1.731
	c0.121-0.364,0.234-0.769,0.334-1.211c0.141-0.634,0.247-1.337,0.287-2.103c0.083-1.602-0.482-2.939-1.074-4.341
	C3.734,7.874,3.105,6.38,3.238,4.546c0.195-0.241,0.402-0.47,0.619-0.688c1.572-1.571,3.744-2.543,6.144-2.543
	s4.569,0.972,6.144,2.543c0.615,0.617,1.141,1.326,1.549,2.104c-0.02,0.316-0.229,0.709-0.623,1.094
	c-0.436,0.424-1.076,0.811-1.92,1.057c-2.115,0.617-3.631,1.562-4.659,2.724c-1.168,1.321-1.696,2.903-1.746,4.593
	C8.721,16.23,8.919,17.04,9.234,17.759z M16.143,16.143c-1.279,1.28-2.957,2.162-4.832,2.446c-0.324-0.344-0.64-0.817-0.875-1.354
	c-0.246-0.559-0.399-1.176-0.383-1.772c0.041-1.394,0.469-2.69,1.418-3.763c0.868-0.982,2.182-1.791,4.043-2.333
	c1.067-0.312,1.895-0.814,2.469-1.375c0.136-0.132,0.257-0.267,0.365-0.405c0.221,0.768,0.34,1.576,0.34,2.414
	C18.688,12.398,17.715,14.57,16.143,16.143z"/>
</svg>
