<?xml version="1.0" encoding="utf-8"?>
<!-- Generator: Adobe Illustrator 16.0.0, SVG Export Plug-In . SVG Version: 6.00 Build 0)  -->
<!DOCTYPE svg PUBLIC "-//W3C//DTD SVG 1.1//EN" "http://www.w3.org/Graphics/SVG/1.1/DTD/svg11.dtd">
<svg version="1.1" id="圖層_1" xmlns="http://www.w3.org/2000/svg" xmlns:xlink="http://www.w3.org/1999/xlink" x="0px" y="0px"
	 width="20px" height="20px" viewBox="0 0 20 20" enable-background="new 0 0 20 20" xml:space="preserve">
<path fill="#AD9E60" d="M19.9,6.7l0-0.2l0,0l0,0c-0.1-1.1-0.9-1.9-2-2l0,0h0c-0.3-0.9-1.1-1.6-2.1-1.6c-0.1,0-0.1,0-0.2,0
	c-0.3-0.8-1.1-1.4-2.1-1.4c-0.1,0-0.1,0-0.2,0c-0.8-0.6-1.7-1-2.6-1.2C8.8-0.2,6.6,0,4.8,0.9C4.7,0.9,4.5,1,4.4,1
	C2.6,2,1.2,3.7,0.5,5.7C0.4,6.1,0.3,6.5,0.2,6.8C-0.5,9.8,0.7,13,3,15c1.4,1.2,3.2,1.9,5.1,1.9c0.9,1.5,2.4,2.6,4,2.9
	c0.4,0.1,0.9,0.2,1.3,0.2c1.3,0,2.5-0.4,3.5-1.2c1.7-1.3,2.9-3.4,2.9-5.3C20,11.6,20,8,19.9,6.7z M5.4,11.7l1.8,3.5
	c-0.5-0.1-1-0.2-1.6-0.5c-0.5-0.5-0.7-1.2-1-1.9l-0.1-0.2c0,0,0,0,0,0C4.7,12.3,5.1,12,5.4,11.7z M6.2,8.9c0-0.4-0.1-0.7-0.1-1.1
	l0-0.1C5.9,7.3,6,7.2,6.5,6.9c0.1-0.1,0.2-0.1,0.3-0.1l0.1,0c0.1,0,0.2-0.1,0.2-0.1C7.4,6.5,7.7,6.4,8,6.2C8.1,6.1,8.3,6,8.4,5.9
	C8.7,5.8,9,5.8,9.1,5.9v3.7C8.5,9,7.7,8.7,6.9,8.7c-0.1,0-0.2,0-0.2,0C6.5,8.8,6.3,8.8,6.2,8.9z M9.8,3.5c0-0.1,0.1-0.2,0.1-0.3
	C9.9,3.1,10,3,10.1,3c0.3-0.1,0.7-0.1,1.1-0.1c0.1,0,0.1,0,0.2,0c0,0,0,0,0,0.1c0,0-0.1,0-0.1,0C10.7,2.9,10.2,3.1,9.8,3.5z
	 M7.6,0.9c0.7-0.1,1.4-0.1,2.2,0C10,1,10.2,1,10.4,1l0.1,0c0.7,0.1,1.3,0.3,1.4,0.9l0,0c-0.2,0-0.5,0.1-0.7,0.1l0,0
	c-0.7,0.1-1.4,0.2-2,0C9,1.9,8.7,1.8,8.4,1.7C8.1,1.5,7.6,1.3,7.6,1.1C7.5,1.1,7.6,1,7.6,0.9z M5.9,1.3C6.4,1.1,6.7,1,6.7,1
	c0,0,0,0,0,0C6.7,1,6.6,1,6.6,1.1C6.4,1.2,6.2,1.2,6,1.3C6,1.3,5.9,1.3,5.9,1.3C5.9,1.3,5.9,1.3,5.9,1.3z M4.5,1.9
	c0.1-0.1,0.3-0.1,0.4-0.2C4.8,1.8,4.8,1.8,4.7,1.9C4.4,2.1,4.2,2.2,4,2.3C4.1,2.2,4.3,2,4.5,1.9z M4.2,3.1c0.2-0.3,0.5-0.5,0.9-0.7
	c0.2-0.1,0.5-0.2,0.8-0.3l0,0C6.2,2.1,6.3,2,6.5,1.9c0.6-0.2,1.2,0.2,1.8,0.5l0.1,0C8.6,2.6,8.8,2.7,9,2.8c0.3,0.3,0.1,0.9-0.1,1.5
	C8.8,4.5,8.7,4.8,8.7,5C8.2,5.2,7.8,5.5,7.3,5.7c-0.5,0.2-1,0.5-1.5,0.7c-0.6,0-1.3-0.3-2.1-0.9C3.7,4.7,3.9,3.9,4.2,3.1z M1.1,10.6
	c0-0.2-0.1-0.4-0.1-0.5C0.9,9.3,0.7,8.5,0.9,7.7c0,0.2,0,0.6,0,0.9c-0.1,0.5,0.1,1,0.2,1.5c0.1,0.4,0.2,0.7,0.2,1.1
	C1.2,11.1,1.2,10.8,1.1,10.6z M1.3,6.9C1.3,6.9,1.3,6.9,1.3,6.9C1.2,6.9,1.1,6.7,1,6.6C1.1,6,1.6,5.1,1.9,4.5
	c0.1-0.2,0.2-0.4,0.4-0.5c0.3-0.4,0.5-0.8,0.9-1C3.3,3,3.3,3,3.3,3c0.1,0.2,0,0.6-0.1,1C3.1,4.3,3,4.6,3,4.9c0,0.6-0.5,1-1,1.4
	C1.8,6.5,1.6,6.6,1.3,6.9C1.3,6.9,1.3,6.9,1.3,6.9z M1.7,7.8c0.2-0.4,0.6-0.8,1-1.1C2.9,6.5,3,6.5,3.1,6.4c0.4-0.3,0.9,0,1.5,0.5
	C4.8,7,5,7.1,5.2,7.2c0.1,0.7,0.2,1.4,0.3,2.1c-0.5,0.5-0.6,1.2-0.4,1.8c-0.1,0.1-0.2,0.2-0.3,0.3c-0.2,0.2-0.5,0.4-0.6,0.5l0,0
	c-0.5,0.1-1-0.3-1.5-0.7c-0.2-0.1-0.4-0.3-0.6-0.4c-0.3-0.7-0.4-1.6-0.4-2.6C1.6,8.1,1.6,7.9,1.7,7.8z M4.6,14.9
	c-0.3,0.2-0.8-0.2-1.1-0.5c-0.2-0.2-0.4-0.4-0.6-0.6c-0.5-0.5-1.1-1.1-1.2-1.8c0-0.1,0.1-0.2,0.1-0.3c0.2-0.1,0.7,0.2,1,0.5
	c0.2,0.1,0.4,0.3,0.6,0.3c0.5,0.3,0.7,1,1,1.6C4.5,14.4,4.6,14.6,4.6,14.9C4.7,14.8,4.6,14.8,4.6,14.9z M5.1,15.4
	c0.1-0.1,0.6,0.1,0.8,0.2c0.2,0.1,0.4,0.1,0.5,0.2C6.8,16,7.2,16,7.7,16l0.1,0.1C6.9,16.1,6,15.8,5.1,15.4L5.1,15.4z M18.5,13.5
	c0,1.4-1,3.1-2.3,4.1c-0.8,0.6-1.7,0.9-2.6,0.9c-0.3,0-0.7,0-1-0.1c-1-0.2-1.9-0.8-2.6-1.6h0c-0.2-0.3-0.4-0.5-0.6-0.9l-2.8-5.4
	c0,0,0-0.1,0-0.1c0,0,0-0.1,0-0.1c0,0,0-0.1,0.1-0.1c0,0,0.1,0,0.1,0c0,0,0.1,0,0.1,0c0.6,0,1.2,0.3,1.6,0.7L9,11.6
	c0.2,0.2,0.4,0.3,0.7,0.3c0.2,0,0.5-0.1,0.6-0.3c0,0,0,0,0,0c0,0,0.1-0.1,0.1-0.1l0,0c0.1-0.2,0.2-0.3,0.2-0.5v0V9.2V7.4v-1V5.1
	c0-0.4,0.3-0.7,0.7-0.7c0.4,0,0.7,0.3,0.7,0.7v2.4v0.8v0.2c0,0.2,0.2,0.4,0.4,0.4c0.2,0,0.4-0.2,0.4-0.4V8.1V7.4V3.8
	c0-0.2,0.1-0.3,0.2-0.4C13,3.2,13,3.2,13.1,3.1c0,0,0,0,0,0C13.3,3,13.4,3,13.5,3c0.1,0,0.2,0,0.3,0.1l0,0c0.1,0,0.2,0.1,0.2,0.1
	c0,0,0,0,0.1,0.1c0,0,0,0,0,0c0.1,0.1,0.1,0.1,0.1,0.2v0c0,0.1,0.1,0.2,0.1,0.3l0,4.3c0,0.2,0.2,0.4,0.4,0.4c0.1,0,0.1,0,0.2-0.1
	c0,0,0,0,0,0C15,8.3,15,8.2,15,8.1V5.4V5.1c0-0.4,0.3-0.7,0.7-0.7c0,0,0,0,0.1,0v0c0.4,0,0.7,0.3,0.7,0.7v0.8v3.3c0,0.1,0,0.1,0,0.1
	c0,0,0,0.1,0.1,0.1c0,0,0,0,0,0c0.1,0.1,0.1,0.1,0.2,0.1l0,0l0,0c0,0,0,0,0,0c0.2,0,0.4-0.2,0.4-0.4V6.6c0-0.3,0.3-0.6,0.6-0.6
	c0,0,0,0,0,0c0.3,0,0.5,0.3,0.6,0.6C18.5,7.8,18.5,11.5,18.5,13.5z"/>
</svg>
