<?xml version="1.0" encoding="utf-8"?>
<!-- Generator: Adobe Illustrator 16.0.0, SVG Export Plug-In . SVG Version: 6.00 Build 0)  -->
<!DOCTYPE svg PUBLIC "-//W3C//DTD SVG 1.1//EN" "http://www.w3.org/Graphics/SVG/1.1/DTD/svg11.dtd">
<svg version="1.1" id="圖層_2" xmlns="http://www.w3.org/2000/svg" xmlns:xlink="http://www.w3.org/1999/xlink" x="0px" y="0px"
	 width="20px" height="20px" viewBox="15 15 20 20" enable-background="new 15 15 20 20" xml:space="preserve">
<g>
	<path fill="#B25332" d="M34.946,17.204c-0.09-1.12-1.03-2.061-2.105-2.151c-0.493-0.044-1.03-0.044-1.523-0.044
		c-0.985,0-2.062,0.044-3.181,0.224l-1.345,0.269c-2.464,0.538-5.152,1.658-7.393,3.808c-0.045,0.045-0.045,0.045-0.045,0.045
		c-2.195,2.285-3.315,4.973-3.853,7.438l-0.269,1.344c-0.269,1.793-0.269,3.45-0.179,4.66c0.09,1.12,1.03,2.061,2.15,2.15
		c0.493,0.045,0.985,0.045,1.523,0.045c0.941,0,2.017-0.045,3.181-0.225l1.299-0.269c2.464-0.537,5.152-1.657,7.393-3.808
		c0.045-0.045,0.045-0.045,0.045-0.045c2.195-2.285,3.315-4.974,3.853-7.438l0.27-1.344C35.036,20.072,35.036,18.414,34.946,17.204z
		 M18.728,33.791c-0.523,0-0.976,0-1.428-0.041c-0.536-0.043-1.007-0.514-1.049-1.043c-0.051-0.686-0.098-1.969,0.059-3.502
		l4.517,4.486C20.172,33.758,19.488,33.791,18.728,33.791z M33.325,22.952c-0.593,2.722-1.786,5.03-3.528,6.845l-0.027,0.028
		c-1.802,1.729-4.096,2.907-6.804,3.498l-0.773,0.159l-5.671-5.671l0.152-0.764c0.594-2.722,1.787-5.031,3.529-6.845l0.027-0.028
		c1.802-1.729,4.095-2.908,6.797-3.497l0.784-0.157l5.667,5.667L33.325,22.952z M29.211,16.307c0.64-0.064,1.324-0.098,2.106-0.098
		c0.48,0,0.977,0,1.424,0.04c0.505,0.042,0.967,0.523,1.009,1.044c0.051,0.685,0.098,1.965-0.059,3.495L29.211,16.307z"/>
</g>
<path fill="#B25332" d="M29.096,23.736l-0.956-0.957l0.925-0.925c0.254-0.254,0.254-0.665,0-0.919s-0.666-0.254-0.92,0l-0.924,0.924
	l-0.955-0.955c-0.234-0.234-0.613-0.234-0.849,0c-0.234,0.234-0.234,0.614,0,0.849l0.955,0.956l-1.406,1.407l-0.956-0.955
	c-0.234-0.234-0.614-0.234-0.849,0c-0.234,0.234-0.234,0.614,0,0.849l0.956,0.955l-1.408,1.408l-0.955-0.956
	c-0.233-0.233-0.613-0.234-0.849,0c-0.234,0.234-0.234,0.614,0,0.848l0.956,0.956l-0.925,0.925c-0.254,0.254-0.254,0.666,0,0.92
	c0.127,0.127,0.293,0.19,0.459,0.19s0.333-0.063,0.459-0.19l0.925-0.926l0.956,0.956c0.117,0.117,0.271,0.176,0.424,0.176
	c0.153,0,0.307-0.059,0.424-0.175c0.234-0.234,0.234-0.614,0-0.849l-0.956-0.956l1.408-1.408l0.957,0.956
	c0.117,0.116,0.271,0.175,0.424,0.175s0.308-0.059,0.425-0.176c0.233-0.234,0.233-0.614-0.001-0.849l-0.956-0.955l1.407-1.407
	l0.955,0.956c0.117,0.117,0.271,0.176,0.425,0.176s0.307-0.059,0.424-0.176C29.329,24.35,29.329,23.97,29.096,23.736z"/>
</svg>
