<?xml version="1.0" encoding="utf-8"?>
<!-- Generator: Adobe Illustrator 16.0.0, SVG Export Plug-In . SVG Version: 6.00 Build 0)  -->
<!DOCTYPE svg PUBLIC "-//W3C//DTD SVG 1.1//EN" "http://www.w3.org/Graphics/SVG/1.1/DTD/svg11.dtd">
<svg version="1.1" id="圖層_1" xmlns="http://www.w3.org/2000/svg" xmlns:xlink="http://www.w3.org/1999/xlink" x="0px" y="0px"
	 width="50px" height="50px" viewBox="0 0 50 50" enable-background="new 0 0 50 50" xml:space="preserve">
<circle fill="#836634" cx="25" cy="25" r="25"/>
<path fill="#FFFFFF" d="M34.5,32.4v-1.5h4.1V16.7h-8.7v-2H41v-2.8h-8.4c0.7-0.5,1.3-1.1,1.9-1.7L35,9.8l-2.6-1.6l-0.3,0.3
	c-0.8,0.8-1.6,1.5-2.6,2.2l-0.6,0.4l1.2,0.8H19.5l1.2-0.7l-0.4-0.4c-0.8-0.9-1.8-1.6-2.8-2.3l-0.3-0.2L14.9,10l0.6,0.4
	c0.6,0.4,1.3,0.9,1.9,1.5H8.6v2.8h11.3c0,0.7,0,1.4-0.1,2h-8.6v14.2h20.3v1.5H8.4v2.8h7.5l-1.3,1.8l0.5,0.3c2.1,1.2,3.9,2.3,5.2,3.5
	l0.4,0.3l1.9-2.3l-0.4-0.3c-1.6-1.3-3.1-2.4-4.7-3.3h14v3.3c0,0.3-0.1,0.4-0.2,0.4c-0.1,0-0.4,0.2-2.5,0.2c-0.9,0-2,0-3.2-0.1
	l-0.8-0.1l1.1,2.9h2.5c1.5,0,2.5,0,3.2-0.1c0.7-0.1,1.4-0.4,1.9-0.8c0.6-0.5,0.8-1.2,0.8-2.1v-3.6h7.1v-2.8H34.5z M35.6,19.5v1.4
	h-5.3c-0.4,0-0.5-0.1-0.5-0.4v-1H35.6z M14.2,22.5v-3.1h5C18.4,20.8,16.8,21.9,14.2,22.5z M14.2,24.9l0.5,0.5l0.3-0.1
	c0.2,0,0.3-0.1,0.5-0.1v2.1h19.2v-2.6H16.8c3-1.1,4.8-2.9,5.5-5.2h4.6v0.9c0,2.1,1.2,3.3,3.3,3.3h5.4v4.4H14.2V24.9z M22.8,16.7
	c0-0.6,0.1-1.2,0.1-2h4.1v2H22.8z"/>
</svg>
