<?xml version="1.0" encoding="utf-8"?>
<!-- Generator: Adobe Illustrator 16.0.0, SVG Export Plug-In . SVG Version: 6.00 Build 0)  -->
<!DOCTYPE svg PUBLIC "-//W3C//DTD SVG 1.1//EN" "http://www.w3.org/Graphics/SVG/1.1/DTD/svg11.dtd">
<svg version="1.1" id="圖層_1" xmlns="http://www.w3.org/2000/svg" xmlns:xlink="http://www.w3.org/1999/xlink" x="0px" y="0px"
	 width="50px" height="50px" viewBox="0 0 50 50" enable-background="new 0 0 50 50" xml:space="preserve">
<circle fill="#E5AC48" cx="25" cy="25" r="25"/>
<g>
	<path fill="#FFFFFF" d="M26.4,27.4h13.2v-2.9H26.4v-4.3h8.2v-1.4c1.4,0.9,3.2,1.8,5.3,2.7l0.4,0.2l1.8-2.6l-0.6-0.2
		c-5.8-2.3-10.7-5.7-14.4-10L27.7,8L24.6,7l-0.2,0.3c-3.7,4.9-9,8.8-15.8,11.5L8,19l1.9,2.6l0.4-0.1c1.6-0.6,3.4-1.6,5.3-2.7v1.5
		h7.9v4.3H10.6v2.9h12.9v9.4H9.9v2.9h30.5v-2.9h-14V27.4z M25.1,11.1c2.2,2.4,4.5,4.5,6.9,6.1H18C20.9,15.3,23.2,13.3,25.1,11.1z"/>
	<path fill="#FFFFFF" d="M17.8,36.3l2.7-1.1l-0.2-0.5c-0.9-2.1-2.2-4.2-3.8-6.3L16.3,28l-2.7,1.2l0.4,0.5c1.8,2.4,3,4.4,3.6,6
		L17.8,36.3z"/>
	<path fill="#FFFFFF" d="M29.9,34.5l-0.4,0.4l2.6,1.6l0.3-0.3c1.3-1.5,2.8-3.6,4.2-6.4l0.2-0.4L34.3,28l-0.2,0.4
		C32.6,31.1,31.2,33.2,29.9,34.5z"/>
</g>
</svg>
