<?xml version="1.0" encoding="utf-8"?>
<!-- Generator: Adobe Illustrator 16.0.0, SVG Export Plug-In . SVG Version: 6.00 Build 0)  -->
<!DOCTYPE svg PUBLIC "-//W3C//DTD SVG 1.1//EN" "http://www.w3.org/Graphics/SVG/1.1/DTD/svg11.dtd">
<svg version="1.1" id="圖層_2" xmlns="http://www.w3.org/2000/svg" xmlns:xlink="http://www.w3.org/1999/xlink" x="0px" y="0px"
	 width="20px" height="20px" viewBox="15 15 20 20" enable-background="new 15 15 20 20" xml:space="preserve">
<path fill="#7894DC" d="M21.679,25c0,0.448-0.358,0.851-0.851,0.851S20.022,25.448,20.022,25s0.358-0.851,0.851-0.851
	S21.679,24.552,21.679,25"/>
<path fill="#7894DC" d="M21.679,28.314c0,0.447-0.358,0.851-0.851,0.851s-0.851-0.358-0.851-0.851c0-0.493,0.358-0.852,0.851-0.852
	S21.679,27.866,21.679,28.314"/>
<path fill="#7894DC" d="M23.336,26.657c0,0.447-0.358,0.851-0.851,0.851s-0.851-0.358-0.851-0.851c0-0.493,0.358-0.852,0.851-0.852
	S23.336,26.209,23.336,26.657"/>
<path fill="#7894DC" d="M20.022,26.657c0,0.447-0.358,0.851-0.851,0.851s-0.851-0.358-0.851-0.851c0-0.493,0.358-0.852,0.851-0.852
	S20.022,26.209,20.022,26.657"/>
<path fill="#7894DC" d="M30.815,25.851h-0.807V25c0-0.448-0.358-0.851-0.851-0.851c-0.448,0-0.851,0.403-0.851,0.851v0.851h-0.807
	c-0.448,0-0.851,0.358-0.851,0.852c0,0.492,0.358,0.806,0.851,0.806h0.807v0.807c0,0.447,0.357,0.851,0.851,0.851
	c0.447,0,0.851-0.358,0.851-0.851v-0.807h0.807c0.447,0,0.851-0.358,0.851-0.851C31.666,26.164,31.263,25.851,30.815,25.851z"/>
<path fill="#7894DC" d="M25.649,21.884v-4.351c0-0.24,0.137-0.411,0.308-0.411s0.343,0.171,0.343,0.411
	c0,0.89,0.719,1.575,1.574,1.575c0.89,0,1.575-0.719,1.575-1.575V15.65c0-0.343-0.273-0.65-0.651-0.65
	c-0.376,0-0.65,0.274-0.65,0.65v1.917c0,0.171-0.137,0.308-0.308,0.308s-0.308-0.137-0.308-0.308c0-0.924-0.72-1.678-1.609-1.678
	s-1.574,0.753-1.574,1.678v4.351c0,0.342,0.273,0.65,0.65,0.65C25.341,22.534,25.649,22.226,25.649,21.884z"/>
<path fill="#7894DC" d="M34.38,24.664c-0.862-3.743-3.904-4.147-5.173-4.147c-0.979,0-2.011,0.232-2.55,0.569
	c-0.147,0.067-0.268,0.127-0.356,0.173h-0.629h-1.344h-0.629c-0.089-0.046-0.209-0.106-0.356-0.173
	c-0.539-0.337-1.57-0.569-2.55-0.569c-1.269,0-4.311,0.404-5.173,4.147c-0.215,1.721-0.604,6.109-0.62,6.296
	c0.015,2.258,1.73,4.04,3.823,4.04c0.939,0,1.801-0.499,2.304-1.335l0.698-1.111c0.306-0.475,0.618-0.627,0.696-0.628h1.807h1.344
	h1.807c0.078,0.001,0.391,0.153,0.696,0.628l0.698,1.111C29.376,34.501,30.237,35,31.177,35c2.093,0,3.809-1.782,3.823-4.04
	C34.983,30.773,34.595,26.385,34.38,24.664z M31.177,33.6c-0.45,0-0.853-0.239-1.111-0.668l-0.709-1.129
	c-0.516-0.8-1.218-1.277-1.878-1.277h-4.957c-0.66,0-1.362,0.478-1.878,1.277l-0.709,1.129c-0.259,0.429-0.661,0.668-1.111,0.668
	c-1.327,0-2.415-1.159-2.426-2.584c0.003-0.005,0.401-4.488,0.6-6.109c0.938-4.046,5.148-2.949,5.611-2.628l0.115,0.064
	c0.261,0.115,0.415,0.206,0.433,0.216l0.167,0.1h3.354l0.167-0.1c0.018-0.01,0.172-0.101,0.433-0.216l0.115-0.064
	c0.463-0.321,4.673-1.418,5.611,2.628c0.198,1.621,0.596,6.104,0.6,6.109C33.592,32.44,32.504,33.6,31.177,33.6z"/>
</svg>
