<?xml version="1.0" encoding="utf-8"?>
<!-- Generator: Adobe Illustrator 22.0.1, SVG Export Plug-In . SVG Version: 6.00 Build 0)  -->
<svg version="1.1" id="圖層_1" xmlns="http://www.w3.org/2000/svg" xmlns:xlink="http://www.w3.org/1999/xlink" x="0px" y="0px"
	 width="20px" height="20px" viewBox="0 0 20 20" style="enable-background:new 0 0 20 20;" xml:space="preserve">
<style type="text/css">
	.st0{fill:#FF7070;}
</style>
<g>
	<path class="st0" d="M20,10.2c-0.1,0.2-0.2,0.5-0.4,0.7c-0.2,0.2-0.4,0.3-0.7,0.4c-0.1,0-0.2,0.1-0.2,0.2c-0.2,0.7-0.4,1.3-0.6,2
		c0.3-0.3,0.8-0.5,1.3-0.5c-0.2,0.8-0.9,1.3-1.7,1.3c-0.1,0-0.2,0-0.2,0.1c-0.4,0.5-0.9,1.1-1.3,1.6c0.4-0.1,0.9-0.2,1.3,0
		c-0.3,0.6-1.3,1-2,0.7c-0.1-0.1-0.2,0-0.3,0c-0.6,0.4-1.3,0.7-1.9,1.1c0.4,0,0.9,0.1,1.3,0.5c-0.7,0.4-1.8,0.5-2.4-0.2
		c0,0-0.1-0.1-0.2,0c-1.3,0.2-2.7,0.2-4,0c-0.1,0-0.2,0-0.2,0.1c-0.4,0.5-0.9,0.6-1.5,0.5c-0.3-0.1-0.6-0.2-0.9-0.3
		c0.4-0.4,0.9-0.6,1.5-0.6c-0.3-0.1-0.6-0.2-0.8-0.4c-0.4-0.2-0.8-0.5-1.2-0.7c-0.1,0-0.2-0.1-0.2,0C4,16.9,3.5,16.8,3,16.4
		c-0.2-0.1-0.3-0.3-0.5-0.4c0.5-0.2,1-0.2,1.4-0.1c-0.4-0.5-0.8-1.1-1.3-1.6c0,0-0.1-0.1-0.2-0.1c-0.6,0.1-1.3-0.3-1.6-1.3
		c0.5,0,0.9,0.2,1.3,0.5c-0.2-0.6-0.4-1.3-0.6-2c0-0.1-0.1-0.1-0.1-0.1c-0.6-0.1-1-0.5-1.1-1.1C0.1,10,0.1,9.7,0,9.5
		c0.6,0.2,1,0.6,1.3,1.2c0-0.3-0.1-0.7-0.1-1c0-0.4,0-0.9,0-1.3c0-0.1,0-0.2-0.1-0.2C0.5,7.8,0.3,7.3,0.4,6.7c0-0.2,0.1-0.5,0.1-0.7
		C1,6.3,1.2,6.8,1.2,7.4c0.1-0.4,0.2-0.8,0.3-1.2c0.1-0.4,0.3-0.7,0.4-1.1c0,0,0-0.1,0-0.1C1.6,4.4,1.7,3.8,2,3.3
		c0.1-0.2,0.2-0.3,0.3-0.5c0.3,0.4,0.2,0.9,0.2,1.4c0.2-0.2,0.3-0.4,0.4-0.5c0.1-0.1,0.2-0.3,0.4-0.4c0.3-0.3,0.6-0.5,0.7-1
		c0.2-0.6,0.8-0.8,1.4-0.9C5.4,2.1,4.9,2.6,4.2,2.8C4.1,2.8,3.9,2.9,3.8,3c-0.5,0.4-1,0.9-1.3,1.5c0,0.1-0.1,0.1-0.1,0.2
		c0,0,0,0,0,0.1c0.5-0.6,1-0.8,1.8-0.5c-0.5,0.6-1,1-1.8,0.9C2.1,5.1,2,5.2,2,5.3C1.7,6,1.5,6.7,1.4,7.4C1.7,7,2.1,6.7,2.7,6.7
		C2.5,7.4,2.1,7.9,1.5,8.1c-0.1,0-0.2,0.1-0.2,0.2c0,0.7,0,1.4,0,2.1c0.2-0.4,0.5-0.8,1-0.9c0,0.7-0.1,1.3-0.7,1.7
		c-0.1,0.1-0.2,0.2-0.1,0.3c0.2,0.7,0.5,1.3,0.7,2c0,0,0.1,0.1,0.1,0.1c-0.1-0.6,0-1.1,0.5-1.5c0.2,0.7,0.3,1.3-0.1,1.9
		c-0.1,0.2-0.1,0.3,0,0.4c0.5,0.6,1,1.2,1.6,1.7C4,15.6,3.9,15,4.3,14.4c0.5,0.6,0.8,1.2,0.6,1.9c0,0.2,0,0.2,0.1,0.3
		c0.6,0.4,1.3,0.8,2,1c0,0,0.1,0,0.1,0c-0.5-0.4-0.8-0.9-0.7-1.6c0.7,0.4,1.2,0.8,1.3,1.6c0,0.2,0.1,0.2,0.3,0.2
		c0.6,0,1.2,0.1,1.8,0.1c0.5,0,1.1,0,1.6,0c0,0,0,0,0,0c0.3,0,0.5-0.1,0.6-0.5c0.2-0.7,0.7-1.1,1.2-1.4c0.2,0.5,0,1-0.7,1.6
		c0.1,0,0.1,0,0.2,0c0.7-0.2,1.4-0.6,2-1c0.1-0.1,0.1-0.1,0.1-0.3c-0.2-0.7,0.1-1.4,0.5-1.9c0.4,0.4,0.4,1-0.1,1.7
		c0.4-0.2,1.4-1.3,1.7-1.9c-0.5-0.6-0.5-1.3-0.2-2.1c0.5,0.4,0.6,0.9,0.5,1.5c0.1-0.1,0.1-0.1,0.1-0.2c0.2-0.6,0.5-1.3,0.7-1.9
		c0-0.1,0-0.2-0.1-0.3c-0.6-0.4-0.7-1-0.7-1.7c0.4,0,0.6,0.2,1,0.9c0.1-0.7,0.1-1.4,0.1-2.1c0-0.1-0.1-0.1-0.2-0.1
		c-0.7-0.2-1-0.7-1.2-1.4c0.6,0,1,0.2,1.3,0.7c-0.1-0.8-0.3-1.5-0.6-2.2c0,0-0.1-0.1-0.1-0.1c-0.8,0.1-1.4-0.3-1.9-0.9
		C16.5,4,17,4.1,17.8,4.7c-0.2-0.3-0.3-0.5-0.5-0.8c-0.2-0.3-0.5-0.5-0.7-0.8c-0.2-0.2-0.5-0.4-0.8-0.4c-0.7-0.2-1-0.7-1.2-1.4
		c0.6-0.1,1.3,0.4,1.5,1.1c0.1,0.2,0.2,0.4,0.3,0.5c0.2,0.2,0.4,0.3,0.6,0.5c0.2,0.2,0.3,0.4,0.5,0.6c-0.1-0.5-0.1-0.9,0.2-1.3
		c0.6,0.5,0.8,1.5,0.5,2.1c0,0.1,0,0.2,0,0.2c0.3,0.7,0.5,1.4,0.7,2.2c0.4-1.1,0.4-1.1,0.7-1.3c0.4,0.6,0.2,1.7-0.4,2.1
		c-0.1,0.1-0.2,0.2-0.2,0.3c0,0.8,0,1.5-0.1,2.2c0.2-0.5,0.6-0.9,1.1-1.1C20,9.7,20,10,20,10.2z"/>
	<path class="st0" d="M4.9,11.5c0.4,0,0.9-0.1,1.3-0.1c0.6-0.1,1.3-0.1,1.9-0.2c0.2,0,0.3,0,0.4,0.2c0.2,0.5,0.6,0.7,1.1,0.8
		c0.3,0,0.5,0,0.8,0c0.9-0.2,1.4-1,1.2-2c-0.1-0.6-0.4-1-1-1.2C9.9,8.9,9.3,9,8.8,9.5c0,0-0.1,0.1-0.2,0.1c-1,0-2.1-0.1-3.2-0.1
		c0.4-2.2,0.8-4.4,1.2-6.7c2.5,0,5,0,7.5,0c0,0.9,0,1.8,0,2.8c-1.7,0-3.4,0-5.1,0C8.9,6.2,8.8,6.8,8.7,7.3C9.1,7.2,9.5,7,9.9,6.9
		C11,6.6,12,6.7,13,7.2c1.1,0.5,1.8,1.4,2,2.6c0.2,1.3,0,2.6-1,3.6c-0.6,0.6-1.4,1-2.2,1.1c-1.4,0.3-2.9,0.4-4.3-0.1
		c-1.3-0.5-2.2-1.4-2.7-2.7C4.9,11.7,4.9,11.6,4.9,11.5C4.9,11.6,4.9,11.6,4.9,11.5z"/>
</g>
</svg>
