<?xml version="1.0" encoding="utf-8"?>
<!-- Generator: Adobe Illustrator 22.0.1, SVG Export Plug-In . SVG Version: 6.00 Build 0)  -->
<svg version="1.1" id="圖層_1" xmlns="http://www.w3.org/2000/svg" xmlns:xlink="http://www.w3.org/1999/xlink" x="0px" y="0px"
	 width="20px" height="20px" viewBox="0 0 20 20" style="enable-background:new 0 0 20 20;" xml:space="preserve">
<style type="text/css">
	.st0{fill:#E04444;}
</style>
<g>
	<g>
		<path class="st0" d="M2.62,13.38l4.03,4.01l-1.16,1.16l-4.03-4.01L2.62,13.38 M2.62,11.96c-0.26,0-0.51,0.1-0.71,0.29l-1.58,1.59
			c-0.39,0.39-0.39,1.02,0,1.41l4.45,4.43c0.2,0.19,0.45,0.29,0.71,0.29c0.26,0,0.51-0.1,0.71-0.29l1.58-1.59
			c0.39-0.39,0.39-1.02,0-1.41l-4.45-4.43C3.13,12.06,2.87,11.96,2.62,11.96L2.62,11.96z"/>
	</g>
	<path class="st0" d="M19.88,9.24c0.76-3.77-4.24-8.46-6.36-9.04c-1.74-0.48-2.95-0.09-4.31,1.4c-0.05,0.06-0.1,0.11-0.15,0.17
		C8.7,1.48,8.23,1.33,7.69,1.35C6.44,1.41,4.73,2.4,3.63,5.34c-1.42,3.81-0.46,5.21-0.29,5.47c0.01,0.01,0.01,0.02,0.02,0.03
		c0.03,0.04,0.06,0.07,0.09,0.1l5.77,5.73c0.17,0.17,0.4,0.25,0.63,0.24C10.21,16.89,18.51,16.04,19.88,9.24z M10.09,15.25
		l-1.3-1.29l-3.41-3.4L4.68,9.87C4.58,9.59,4.17,8.5,5.19,5.81c0.81-2.12,2.04-2.84,2.58-2.83C9.1,3.01,7.92,5.23,7.1,6.41
		C6.85,6.78,6.94,7.29,7.31,7.55C7.69,7.8,8.19,7.71,8.45,7.34c0.2-0.29,0.48-0.72,0.75-1.21c0.28,0.66,0.71,1.28,1.28,1.82
		c1.71,1.6,3.89,1.22,4,1.22c0.45-0.01,0.8-0.39,0.79-0.84c-0.01-0.45-0.39-0.81-0.84-0.79c-0.02,0-1.63,0.35-2.83-0.78
		c-1.2-1.12-1.97-3.19-1.18-4.06c0.95-1.05,1.53-1.25,2.67-0.93c1.37,0.38,5.74,4.43,5.2,7.15C17.3,13.79,11.61,15.06,10.09,15.25z"
		/>
</g>
</svg>
