<?xml version="1.0" encoding="utf-8"?>
<!-- Generator: Adobe Illustrator 16.0.0, SVG Export Plug-In . SVG Version: 6.00 Build 0)  -->
<!DOCTYPE svg PUBLIC "-//W3C//DTD SVG 1.1//EN" "http://www.w3.org/Graphics/SVG/1.1/DTD/svg11.dtd">
<svg version="1.1" id="圖層_1" xmlns="http://www.w3.org/2000/svg" xmlns:xlink="http://www.w3.org/1999/xlink" x="0px" y="0px"
	 width="20px" height="20px" viewBox="140 140 20 20" enable-background="new 140 140 20 20" xml:space="preserve">
<path fill="#E0BF36" d="M159.43,146.703l0.016-0.018l-0.032-0.028C158.032,142.784,154.34,140,150,140c-5.514,0-10,4.486-10,10
	c0,5.25,4.069,9.559,9.217,9.96l0.01,0.031l0.082-0.026c0.229,0.016,0.458,0.035,0.69,0.035c5.514,0,10-4.486,10-10
	C160,148.843,159.793,147.737,159.43,146.703z M149.169,159.017c-0.973-0.089-1.902-0.331-2.763-0.705
	c1.787-0.649,5.117-2.46,6.89-7.15c0.715,0.242,1.548,0.592,2.491,1.081C153.408,157.203,149.759,158.789,149.169,159.017z
	 M143.723,156.517c1.273-0.541,3.972-2.065,6.426-5.901c0.075-0.006,0.17-0.012,0.298-0.012c0.382,0,1.037,0.052,1.946,0.286
	c-2.049,5.335-6.286,6.594-7.162,6.798C144.688,157.35,144.182,156.959,143.723,156.517z M145.467,142.17
	c0.743-0.432,1.552-0.759,2.409-0.966c-0.697,3.284,1.031,7.834,1.473,8.916c-0.613,0.956-1.245,1.755-1.864,2.429
	C146.582,151.348,144.163,147.488,145.467,142.17z M159.034,149.554c-3.163-2.616-6.776-3.025-8.712-3.025
	c-0.48,0-0.863,0.024-1.135,0.049c-0.197-0.773-0.365-1.613-0.458-2.451c0.04,0,0.075-0.001,0.12-0.001
	c1.835,0,6.433,0.308,9.767,3.096C158.855,147.962,158.994,148.745,159.034,149.554z M150.473,149.657
	c-0.11,0-0.207,0.003-0.292,0.008c-0.154-0.391-0.449-1.18-0.739-2.159c1.518-0.101,5.952-0.073,9.497,3.212l0.077,0.071
	c-0.061,0.7-0.2,1.377-0.412,2.023C154.454,150.083,151.741,149.657,150.473,149.657z M157.855,145.511
	c-3.346-2.077-7.245-2.33-8.922-2.33c-0.102,0-0.193,0.001-0.276,0.002c-0.024-0.773,0.047-1.512,0.242-2.167
	c0.361-0.044,0.727-0.074,1.101-0.074C153.36,140.942,156.292,142.786,157.855,145.511z M144.341,142.938
	c-0.923,5.358,1.595,9.155,2.478,10.291c-0.621,0.598-1.214,1.07-1.748,1.438c-0.828-1.177-3.353-5.171-2.744-9.374l0.016-0.11
	C142.882,144.329,143.556,143.569,144.341,142.938z M141.324,147.409c0.25,3.614,2.167,6.664,2.947,7.763
	c-0.551,0.316-0.984,0.505-1.244,0.603c-1.301-1.568-2.085-3.581-2.085-5.774C140.941,149.099,141.078,148.23,141.324,147.409z
	 M151.324,158.95c1.534-0.994,3.665-2.883,5.29-6.256c0.518,0.296,1.063,0.633,1.64,1.016
	C157.008,156.472,154.42,158.494,151.324,158.95z"/>
</svg>
