<?xml version="1.0" encoding="utf-8"?>
<!-- Generator: Adobe Illustrator 22.0.1, SVG Export Plug-In . SVG Version: 6.00 Build 0)  -->
<svg version="1.1" id="圖層_1" xmlns="http://www.w3.org/2000/svg" xmlns:xlink="http://www.w3.org/1999/xlink" x="0px" y="0px"
	 width="50px" height="50px" viewBox="0 0 50 50" style="enable-background:new 0 0 50 50;" xml:space="preserve">
<style type="text/css">
	.st0{fill:#00AA00;}
	.st1{fill:#FFFFFF;stroke:#FFFFFF;stroke-miterlimit:10;}
</style>
<circle class="st0" cx="25" cy="25" r="25"/>
<path class="st1" d="M24.8,13.3H14.4c-1.2,1.5-2.6,2.9-4.1,4.2l-1.5-1.2c2.6-2.1,4.7-4.7,6.1-7.6l1.8,0.7c-0.3,0.6-0.7,1.3-1.2,2.1
	h9.2V13.3z M40.2,25.7h-1.9v-5.1H11.8v5.1H10v-6.9h13.9c-0.1-0.5-0.4-1.2-0.9-2l1.7-0.6c0.5,0.8,0.9,1.7,1.2,2.7h14.4V25.7z
	 M36.9,39.7H16.1v1.5h-1.9V23.3h21.6v6.4H16.1v2.9h20.8V39.7z M33.9,27.9v-2.9H16.1v2.9H33.9z M35,38v-3.6H16.1V38H35z M20.9,17
	l-1.7,0.7c-0.4-0.9-1.1-1.9-2.1-3.1l1.7-0.7C19.7,15,20.4,16,20.9,17z M41.1,13.3H29.3c-0.8,1-1.7,1.9-2.8,2.9L25,15.1
	c2.7-2.6,4.4-4.7,5.1-6.3l1.8,0.7c-0.3,0.6-0.7,1.3-1.2,2.1h10.5V13.3z M35.7,17.2l-1.6,0.6c-0.8-1.6-1.5-2.7-1.9-3.2L34,14
	C34.7,15.1,35.3,16.1,35.7,17.2z"/>
</svg>
