<?xml version="1.0" encoding="utf-8"?>
<!-- Generator: Adobe Illustrator 22.0.1, SVG Export Plug-In . SVG Version: 6.00 Build 0)  -->
<svg version="1.1" id="圖層_1" xmlns="http://www.w3.org/2000/svg" xmlns:xlink="http://www.w3.org/1999/xlink" x="0px" y="0px"
	 width="20px" height="20px" viewBox="0 0 20 20" style="enable-background:new 0 0 20 20;" xml:space="preserve">
<style type="text/css">
	.st0{fill:#65CC56;}
</style>
<path class="st0" d="M17.2,6.8c0-4-3.2-6.8-7.2-6.8S2.9,2.8,2.9,6.8c0,2.7,1.1,3.9,2.8,5.8c0.6,0.6,1.2,1.4,1.2,3
	c0,1.6-1,2.8-1.3,3.4c-0.1,0.2-0.1,0.4,0,0.6C5.8,19.9,6,20,6.2,20h7.5c0.2,0,0.4-0.1,0.6-0.3c0.1-0.2,0.1-0.4,0-0.6
	c-0.3-0.6-1.1-2.2-1.3-3.4c-0.1-0.8,0.6-2.1,1.3-2.8C16.7,10.3,17.2,8.8,17.2,6.8L17.2,6.8z M10.1,1.2c3.1,0,5.8,2.4,5.8,5.5
	c0,0.5,0,0.9-0.3,1.5c-0.5-0.4-1.1-0.6-1.7-0.6c-0.6,0-1.3,0.3-1.7,0.7c-1-2.1-2.3-4.1-3.7-4.6C7.8,3.5,7.3,3.6,6.8,4
	C6.1,4.4,5.5,5.4,6.2,7.4c0,0,0,0,0,0l0,0C6.4,8,6.1,8.6,5.7,8.8C5.3,8.9,4.7,8.5,4.6,7.9C4.5,7.6,4.4,7.2,4.4,6.8
	C4.4,3.7,7,1.2,10.1,1.2z M9.2,9.5L9.1,9.3c-2-3.3-1.6-3.9-1.4-4c0.1-0.1,0.2-0.1,0.3,0C8.7,5.5,10,7.4,11.5,11v0
	c0.1,0.3,0.3,0.6,0.6,0.9c0.3,0.3,0.6,0.5,0.9,0.6c-0.8,1.3-1.5,2.3-1.2,3.7H8.3C9.7,14.5,11.5,12.8,9.2,9.5z M14.4,10.7
	C14.2,10.9,14,11,13.8,11s-0.4-0.1-0.6-0.3s-0.3-0.4-0.3-0.6s0.1-0.4,0.3-0.6s0.4-0.3,0.6-0.3s0.4,0.1,0.6,0.3s0.3,0.4,0.3,0.6
	C14.7,10.4,14.6,10.6,14.4,10.7z M5.5,10.4C5.5,10.4,5.6,10.4,5.5,10.4c0.3,0,0.5,0,0.7-0.1C6.7,10.2,7,9.9,7.3,9.5
	c0.1,0.2,2.9,2.8,0.9,5.6C8,12.1,5.6,10.6,5.5,10.4z M7.6,18.7c0.1-0.3,0.3-0.7,0.4-1.2h4.1c0.1,0.5,0.3,0.9,0.4,1.2
	C12.4,18.7,7.6,18.7,7.6,18.7z"/>
</svg>
