<?xml version="1.0" encoding="utf-8"?>
<!-- Generator: Adobe Illustrator 16.0.0, SVG Export Plug-In . SVG Version: 6.00 Build 0)  -->
<!DOCTYPE svg PUBLIC "-//W3C//DTD SVG 1.1//EN" "http://www.w3.org/Graphics/SVG/1.1/DTD/svg11.dtd">
<svg version="1.1" id="圖層_2" xmlns="http://www.w3.org/2000/svg" xmlns:xlink="http://www.w3.org/1999/xlink" x="0px" y="0px"
	 width="20px" height="20px" viewBox="15 15 20 20" enable-background="new 15 15 20 20" xml:space="preserve">
<g>
	<path fill="#C6914B" d="M32.999,16.994C31.713,15.708,29.904,15,27.904,15c-1.563,0-3.151,0.424-4.565,1.21
		c-0.31,0.149-0.646,0.363-0.987,0.608c0,0,0,0,0,0C21.764,15.741,20.634,15,19.323,15c-1.91,0-3.464,1.554-3.464,3.464
		c0,1.689,1.216,3.095,2.818,3.399c-0.097,0.396-0.162,0.799-0.186,1.209c0,0,0,0,0,0.001c0,0.001,0,0.002,0,0.002s0,0.001,0,0.001
		c0,0.002,0,0.004,0,0.006c0,0.001,0,0.001,0,0.002c0,0.005,0,0.01,0,0.016c0,0.002,0,0.005,0,0.007c0,0,0,0,0,0
		c-0.043,1.095,0.167,2.116,0.638,3.099c0.246,0.576,0.308,1.074,0.186,1.533c-0.228,0.908-0.803,1.637-1.737,2.213
		c-0.494,0.268-0.938,0.58-1.382,0.891l-0.5,0.375c-0.277,0.197-0.452,0.523-0.467,0.871c-0.016,0.348,0.126,0.676,0.357,0.873
		l1.7,1.699C17.5,34.877,17.799,35,18.107,35c0.376,0,0.72-0.184,0.924-0.492l0.538-0.701c0.346-0.447,0.607-0.854,0.81-1.26
		c0.532-0.959,1.195-1.51,2.146-1.787c0.439-0.127,0.995-0.074,1.473,0.148c0.879,0.375,1.747,0.559,2.652,0.559
		c0.015,0,0.028,0,0.042,0c0.061,0.023,0.125,0.035,0.193,0.035c0.01,0,0.021,0.002,0.031,0c1.799-0.094,3.531-0.961,5.146-2.576
		c1.859-1.834,2.931-4.316,2.938-6.808C35.007,20.111,34.296,18.291,32.999,16.994z M16.921,18.464c0-1.324,1.078-2.401,2.402-2.401
		s2.401,1.077,2.401,2.401s-1.077,2.402-2.401,2.402S16.921,19.789,16.921,18.464z M24.43,29.938
		c-0.689-0.32-1.505-0.396-2.199-0.199c-1.228,0.359-2.111,1.088-2.792,2.313c-0.182,0.363-0.407,0.713-0.712,1.105l-0.552,0.723
		l-0.029,0.041c-0.01,0.016-0.076,0.023-0.109-0.008l-1.73-1.729c-0.005-0.006-0.019-0.018-0.017-0.047
		c0.001-0.021,0.01-0.045,0.033-0.061l0.496-0.371c0.425-0.299,0.826-0.578,1.292-0.834c1.189-0.732,1.941-1.699,2.233-2.865
		c0.181-0.68,0.101-1.426-0.247-2.236c-0.235-0.493-0.393-0.977-0.476-1.482l6.016,6.015C25.23,30.227,24.83,30.107,24.43,29.938z
		 M31.313,28.172c-1.284,1.285-2.627,2.029-3.999,2.223l-7.726-7.643c0.038-0.293,0.103-0.582,0.187-0.869
		c1.695-0.224,3.013-1.663,3.013-3.419c0-0.207-0.026-0.406-0.061-0.603c0.383-0.298,0.761-0.544,1.101-0.708
		c1.285-0.714,2.694-1.091,4.077-1.091c1.716,0,3.258,0.598,4.344,1.683c1.095,1.096,1.695,2.647,1.689,4.37
		C33.931,24.326,32.975,26.533,31.313,28.172z M22.572,17.304c0.009,0.025,0.015,0.052,0.024,0.077
		C22.588,17.355,22.582,17.329,22.572,17.304z"/>
	<path fill="#C6914B" d="M19.62,16.849c0-0.212-0.17-0.34-0.34-0.34c-1.063,0-1.956,0.893-1.956,1.955c0,0.212,0.17,0.34,0.34,0.34
		c0.17,0,0.34-0.17,0.297-0.298c0-0.722,0.595-1.317,1.318-1.317C19.493,17.189,19.62,17.019,19.62,16.849z"/>
</g>
</svg>
