<?xml version="1.0" encoding="utf-8"?>
<!-- Generator: Adobe Illustrator 16.0.0, SVG Export Plug-In . SVG Version: 6.00 Build 0)  -->
<!DOCTYPE svg PUBLIC "-//W3C//DTD SVG 1.1//EN" "http://www.w3.org/Graphics/SVG/1.1/DTD/svg11.dtd">
<svg version="1.1" id="圖層_1" xmlns="http://www.w3.org/2000/svg" xmlns:xlink="http://www.w3.org/1999/xlink" x="0px" y="0px"
	 width="50px" height="50px" viewBox="0 0 50 50" enable-background="new 0 0 50 50" xml:space="preserve">
<circle fill="#D85352" cx="25" cy="25" r="25"/>
<g>
	<path fill="#FFFFFF" d="M18.6,23.3c1.2-1.7,2.2-3.5,3-5.4l0-2.6h-4.9l2.1-1l-0.2-0.4c-0.6-1.4-1.7-3.2-3.3-5.3l-0.2-0.3l-2.6,1.3
		l0.3,0.5c1.3,1.8,2.3,3.5,3.2,5.2l0.1,0.2H9.7v2.9h8.5c-2,4.2-5.1,8-9.1,11.4l-0.4,0.3l2,2.1l0.4-0.3c1.1-0.9,2.3-2.1,3.6-3.4v13.6
		h2.9V26.4c1,1.2,2,2.7,2.9,4.2l0.3,0.5l2.2-1.9l-0.2-0.4C21.5,26.8,20.1,24.9,18.6,23.3z"/>
	<path fill="#FFFFFF" d="M33.6,14.2V8.6h-3v5.6h-7.6v19.5h7.6v8.2h3v-8.2h7.7V14.2H33.6z M26,22.5V17h4.6v5.5H26z M26,30.8v-5.4h4.6
		v5.4H26z M38.3,17v5.5h-4.7V17H38.3z M38.3,25.3v5.4h-4.7v-5.4H38.3z"/>
</g>
</svg>
