<?xml version="1.0" encoding="utf-8"?>
<!-- Generator: Adobe Illustrator 16.0.0, SVG Export Plug-In . SVG Version: 6.00 Build 0)  -->
<!DOCTYPE svg PUBLIC "-//W3C//DTD SVG 1.1//EN" "http://www.w3.org/Graphics/SVG/1.1/DTD/svg11.dtd">
<svg version="1.1" id="圖層_1" xmlns="http://www.w3.org/2000/svg" xmlns:xlink="http://www.w3.org/1999/xlink" x="0px" y="0px"
	 width="20px" height="20px" viewBox="140 140 20 20" enable-background="new 140 140 20 20" xml:space="preserve">
<path fill="#489AB7" d="M156.191,160c-1.52,0-3.521-0.418-6.097-1.805c0,0-1.365-0.705-3.169-1.014
	c-2.288-0.373-4.203,0.045-5.655,1.277c-0.331,0.266-0.815,0.242-1.079-0.088c-0.264-0.33-0.242-0.814,0.088-1.078
	c1.805-1.518,4.204-2.068,6.954-1.605c2.025,0.352,3.521,1.121,3.588,1.143c5.523,2.973,7.856,0.969,7.878,0.947
	c0.308-0.287,0.793-0.287,1.078,0.021c0.286,0.309,0.286,0.793-0.021,1.08C159.689,158.967,158.545,160,156.191,160z"/>
<g>
	<path fill="#489AB7" d="M144.744,151.748c-0.582-0.871-0.96-1.857-1.106-2.883c0.573,0.748,1.28,1.389,2.095,1.89
		c1.571,0.968,3.397,1.341,5.204,1.074c-0.012,0.394-0.067,0.785-0.146,1.172c0.008,0.004,0.028,0.014,0.031,0.015
		c0.285,0.153,0.557,0.286,0.825,0.414c0.146-0.606,0.228-1.228,0.224-1.854c-0.011-1.238-0.313-2.462-0.884-3.557
		c0.416-0.844,0.998-1.521,1.719-2.012c0.815,0.932,1.375,2.091,1.597,3.317c0.294,1.634,0.02,3.417-0.85,4.834
		c0.485,0.156,0.932,0.267,1.346,0.343c0.974-0.634,1.81-1.468,2.422-2.465c2.285-3.708,1.126-8.582-2.582-10.865
		c-3.706-2.283-8.581-1.125-10.865,2.583c-0.708,1.149-1.085,2.411-1.157,3.673c0,0-0.01,0.038-0.003,0.052
		c-0.079,1.54,0.31,3.071,1.088,4.403C144.039,151.816,144.388,151.772,144.744,151.748z M156.397,151.53
		c-0.423,0.686-0.96,1.288-1.586,1.786c0.501-1.316,0.648-2.771,0.398-4.157c-0.237-1.322-0.827-2.578-1.683-3.609
		c0.947-0.417,2.065-0.578,3.306-0.454C157.72,147.11,157.638,149.516,156.397,151.53z M156.318,144.136
		c-1.213-0.038-2.345,0.176-3.314,0.631c-1.237,0.579-2.186,1.521-2.822,2.799c-0.867-0.036-1.708-0.234-2.501-0.59
		c-0.023-0.009-0.045-0.02-0.068-0.031c0.171-0.574,0.417-1.124,0.735-1.64c1.241-2.013,3.563-2.783,5.784-3.31
		C155.04,142.555,155.775,143.293,156.318,144.136z M152.946,141.412c-2.041,0.547-4.147,1.398-5.385,3.408
		c-0.325,0.529-0.584,1.089-0.775,1.674c-0.892-0.569-1.643-1.34-2.185-2.24C146.371,141.388,149.906,140.263,152.946,141.412z
		 M144.114,145.194c0.605,0.857,1.383,1.591,2.282,2.145c0.166,0.102,0.336,0.199,0.507,0.288c0.131,0.067,0.266,0.132,0.399,0.193
		c0.918,0.411,1.887,0.636,2.889,0.67c0.387,0.76,0.625,1.58,0.711,2.412c-1.625,0.265-3.273-0.062-4.687-0.932
		c-1.134-0.698-2.033-1.7-2.599-2.899C143.692,146.434,143.855,145.803,144.114,145.194z"/>
</g>
<path fill="#489AB7" d="M156.191,156.186c-1.52,0-3.521-0.418-6.097-1.805c0,0-1.365-0.705-3.169-1.014
	c-2.288-0.373-4.203,0.045-5.655,1.277c-0.331,0.266-0.815,0.242-1.079-0.088c-0.264-0.33-0.242-0.814,0.088-1.078
	c1.805-1.518,4.204-2.068,6.954-1.605c2.025,0.352,3.521,1.121,3.588,1.143c5.523,2.973,7.856,0.969,7.878,0.947
	c0.308-0.287,0.793-0.287,1.078,0.021c0.286,0.309,0.286,0.793-0.021,1.08C159.689,155.152,158.545,156.186,156.191,156.186z"/>
</svg>
