<?xml version="1.0" encoding="utf-8"?>
<!-- Generator: Adobe Illustrator 24.2.3, SVG Export Plug-In . SVG Version: 6.00 Build 0)  -->
<svg version="1.1" id="圖層_1" xmlns="http://www.w3.org/2000/svg" xmlns:xlink="http://www.w3.org/1999/xlink" x="0px" y="0px"
	 width="50px" height="100px" viewBox="0 0 50 100" style="enable-background:new 0 0 50 100;" xml:space="preserve">
<style type="text/css">
	.st0{fill:#2E6AA9;}
	.st1{fill:#FFFFFF;}
</style>
<g>
	<g>
		<circle class="st0" cx="25" cy="75" r="24.5"/>
	</g>
	<g>
		<path class="st1" d="M25,94.87C14.05,94.87,5.13,85.95,5.13,75S14.05,55.13,25,55.13c10.95,0,19.87,8.91,19.87,19.87
			S35.95,94.87,25,94.87z M25,57.03c-9.91,0-17.97,8.06-17.97,17.97c0,9.91,8.06,17.97,17.97,17.97S42.97,84.91,42.97,75
			C42.97,65.09,34.91,57.03,25,57.03z"/>
	</g>
	<g>
		<path class="st1" d="M27.38,84.63c-0.43,0-0.8-0.29-0.91-0.7l-3.65-13.75l-2.39,8.79c-0.11,0.41-0.49,0.7-0.91,0.7h0
			c-0.43,0-0.8-0.29-0.91-0.7l-1.23-4.53l-0.27,0.85c-0.12,0.39-0.49,0.66-0.9,0.66H9.8c-0.52,0-0.95-0.42-0.95-0.95
			c0-0.52,0.42-0.95,0.95-0.95h5.72l1.03-3.27c0.12-0.39,0.49-0.66,0.9-0.66c0.01,0,0.01,0,0.02,0c0.42,0.01,0.78,0.29,0.89,0.7
			l1.16,4.28l2.39-8.83c0.11-0.41,0.49-0.7,0.91-0.7c0,0,0,0,0,0c0.43,0,0.8,0.29,0.91,0.7l3.61,13.61l2.42-9.67
			c0.11-0.42,0.48-0.72,0.92-0.72c0,0,0,0,0.01,0c0.44,0,0.81,0.3,0.91,0.73l1.17,4.91l0.09-0.38c0.11-0.42,0.48-0.72,0.92-0.72
			h6.41c0.52,0,0.95,0.42,0.95,0.95c0,0.52-0.42,0.95-0.95,0.95h-5.67l-0.85,3.42c-0.11,0.42-0.48,0.72-0.92,0.72c0,0,0,0-0.01,0
			c-0.44,0-0.81-0.3-0.92-0.73l-1.17-4.91l-2.37,9.47C28.19,84.33,27.82,84.63,27.38,84.63C27.38,84.63,27.38,84.63,27.38,84.63z"/>
	</g>
</g>
<g>
	<g>
		<circle class="st1" cx="25" cy="25" r="24.5"/>
	</g>
	<g>
		<path d="M25,44.87C14.05,44.87,5.13,35.95,5.13,25S14.05,5.13,25,5.13c10.95,0,19.87,8.91,19.87,19.87S35.95,44.87,25,44.87z
			 M25,7.03C15.09,7.03,7.03,15.09,7.03,25c0,9.91,8.06,17.97,17.97,17.97S42.97,34.91,42.97,25C42.97,15.09,34.91,7.03,25,7.03z"/>
	</g>
	<g>
		<path d="M27.38,34.63c-0.43,0-0.8-0.29-0.91-0.7l-3.65-13.75l-2.39,8.79c-0.11,0.41-0.49,0.7-0.91,0.7h0
			c-0.43,0-0.8-0.29-0.91-0.7l-1.23-4.53l-0.27,0.85c-0.12,0.39-0.49,0.66-0.9,0.66H9.8c-0.52,0-0.95-0.42-0.95-0.95
			c0-0.52,0.42-0.95,0.95-0.95h5.72l1.03-3.27c0.12-0.39,0.49-0.66,0.9-0.66c0.01,0,0.01,0,0.02,0c0.42,0.01,0.78,0.29,0.89,0.7
			l1.16,4.28l2.39-8.83c0.11-0.41,0.49-0.7,0.91-0.7c0,0,0,0,0,0c0.43,0,0.8,0.29,0.91,0.7l3.61,13.61l2.42-9.67
			c0.11-0.42,0.48-0.72,0.92-0.72c0,0,0,0,0.01,0c0.44,0,0.81,0.3,0.91,0.73l1.17,4.91l0.09-0.38c0.11-0.42,0.48-0.72,0.92-0.72
			h6.41c0.52,0,0.95,0.42,0.95,0.95c0,0.52-0.42,0.95-0.95,0.95h-5.67l-0.85,3.42c-0.11,0.42-0.48,0.72-0.92,0.72c0,0,0,0-0.01,0
			c-0.44,0-0.81-0.3-0.92-0.73l-1.17-4.91l-2.37,9.47C28.19,34.33,27.82,34.63,27.38,34.63C27.38,34.63,27.38,34.63,27.38,34.63z"/>
	</g>
</g>
</svg>
