<?xml version="1.0" encoding="utf-8"?>
<!-- Generator: Adobe Illustrator 22.0.1, SVG Export Plug-In . SVG Version: 6.00 Build 0)  -->
<svg version="1.1" id="圖層_1" xmlns="http://www.w3.org/2000/svg" xmlns:xlink="http://www.w3.org/1999/xlink" x="0px" y="0px"
	 width="20px" height="20px" viewBox="0 0 20 20" style="enable-background:new 0 0 20 20;" xml:space="preserve">
<style type="text/css">
	.st0{fill:#6E889C;}
</style>
<g>
	<g>
		<path class="st0" d="M19.4,18.4H0.6c-0.3,0-0.6-0.3-0.6-0.6V5.9c0-0.3,0.3-0.6,0.6-0.6H6V2.2c0-0.3,0.3-0.6,0.6-0.6h6.8
			c0.3,0,0.6,0.3,0.6,0.6V9h5.4C19.7,9,20,9.3,20,9.6v8.2C20,18.2,19.7,18.4,19.4,18.4z M1.2,17.2h17.5v-6.9h-5.4
			c-0.3,0-0.6-0.3-0.6-0.6V2.8H7.2v3.1c0,0.3-0.3,0.6-0.6,0.6H1.2V17.2z"/>
	</g>
	<g>
		<path class="st0" d="M10.152,8.435c-0.221,0-0.4-0.179-0.4-0.4V4.9L9.16,5.04C8.941,5.09,8.73,4.957,8.679,4.742
			c-0.051-0.215,0.083-0.43,0.298-0.481l1.084-0.256c0.12-0.029,0.244,0,0.34,0.076c0.096,0.076,0.152,0.191,0.152,0.313v3.641
			C10.553,8.256,10.373,8.435,10.152,8.435z"/>
	</g>
	<g>
		<path class="st0" d="M5.291,12.19H2.864c-0.221,0-0.4-0.18-0.4-0.4c0-0.116,0.051-0.317,0.14-0.394l1.448-1.239
			c0.693-0.568,0.95-0.898,0.637-1.351C4.593,8.685,4.26,8.265,3.414,8.867L3.223,9.022C3.051,9.16,2.8,9.135,2.66,8.962
			C2.521,8.79,2.549,8.539,2.721,8.399l0.21-0.169c0.938-0.67,1.83-0.628,2.402,0.102c0.799,1.156-0.264,2.026-0.775,2.444
			L3.839,11.39h1.452c0.221,0,0.4,0.18,0.4,0.4S5.512,12.19,5.291,12.19z M2.864,11.7h0.01H2.864z"/>
	</g>
	<g>
		<path class="st0" d="M16.037,15.938c-0.65,0-1.357-0.305-1.746-0.769c-0.142-0.169-0.119-0.422,0.05-0.563
			c0.17-0.142,0.422-0.12,0.563,0.05c0.26,0.309,0.833,0.516,1.256,0.477c0.19-0.021,0.388-0.146,0.489-0.312
			c0.094-0.153,0.104-0.33,0.031-0.526c-0.163-0.432-1.025-0.346-1.034-0.346c-0.155,0.021-0.328-0.064-0.405-0.214
			c-0.076-0.15-0.052-0.331,0.062-0.454l0.856-0.924h-1.424c-0.221,0-0.4-0.18-0.4-0.4s0.18-0.4,0.4-0.4h2.339
			c0.159,0,0.303,0.095,0.366,0.24c0.064,0.146,0.035,0.315-0.072,0.432l-0.91,0.983c0.408,0.106,0.798,0.342,0.971,0.802
			c0.161,0.426,0.126,0.862-0.098,1.227c-0.232,0.377-0.647,0.641-1.085,0.688C16.178,15.936,16.107,15.938,16.037,15.938z"/>
	</g>
</g>
</svg>
