<?xml version="1.0" encoding="utf-8"?>
<!-- Generator: Adobe Illustrator 16.0.0, SVG Export Plug-In . SVG Version: 6.00 Build 0)  -->
<!DOCTYPE svg PUBLIC "-//W3C//DTD SVG 1.1//EN" "http://www.w3.org/Graphics/SVG/1.1/DTD/svg11.dtd">
<svg version="1.1" id="_2891421" xmlns="http://www.w3.org/2000/svg" xmlns:xlink="http://www.w3.org/1999/xlink" x="0px" y="0px"
	 width="50px" height="50px" viewBox="0 0 50 50" enable-background="new 0 0 50 50" xml:space="preserve">
<g>
	<path d="M19,41.6H5.3c-1.7,0-3.1-1.399-3.2-3.1V5.2c0-1.7,1.4-3.1,3.2-3.1h25.2c1.7,0,3.1,1.4,3.2,3.1v12.6c0,0.6,0.5,1.1,1.1,1.1
		c0.601,0,1.101-0.5,1.101-1.1V5.2C35.9,2.3,33.5,0,30.6,0H5.3C2.4,0,0,2.3,0,5.2v33.3c0,2.9,2.4,5.2,5.3,5.2H19l0,0
		c0.6,0,1-0.5,1-1.101C20,42.1,19.5,41.6,19,41.6z"/>
	<path d="M7.4,18.8h21c0.6,0,1.1-0.5,1.1-1.1c0-0.6-0.5-1.1-1.1-1.1h-21c-0.6,0-1.1,0.5-1.1,1.1C6.3,18.3,6.8,18.8,7.4,18.8z"/>
	<path d="M20,25H7.4c-0.6,0-1.1,0.5-1.1,1.1C6.3,26.7,6.8,27.2,7.4,27.2H20c0.6,0,1.1-0.5,1.1-1.101C21,25.5,20.6,25,20,25z"/>
	<path d="M7.4,10.4h10.5c0.6,0,1.1-0.5,1.1-1.1c0-0.6-0.5-1.1-1.1-1.1H7.4c-0.6,0-1.1,0.5-1.1,1.1C6.3,9.9,6.8,10.4,7.4,10.4z"/>
	<path d="M36.3,22.7c-7.6,0-13.7,6.1-13.7,13.7C22.6,44,28.8,50,36.3,50C43.9,50,50,43.9,50,36.3C50,28.8,43.9,22.7,36.3,22.7z
		 M36.3,47.9c-6.399,0-11.6-5.2-11.6-11.601c0-6.399,5.2-11.6,11.6-11.6c6.4,0,11.601,5.2,11.601,11.6
		C47.9,42.7,42.7,47.9,36.3,47.9z"/>
	<path d="M42.6,35.4h-5.1V30c0-0.6-0.5-1.1-1.1-1.1C35.8,28.9,35.3,29.4,35.3,30v5.4H30c-0.6,0-1.1,0.5-1.1,1.1s0.5,1.1,1.1,1.1h5.4
		V42.7c0,0.6,0.5,1,1.1,1l0,0c0.6,0,1-0.5,1-1.101v-5.1h5.1c0.601,0,1.101-0.5,1.101-1.1C43.7,35.8,43.2,35.4,42.6,35.4z"/>
</g>
</svg>
