<?xml version="1.0" encoding="utf-8"?>
<!-- Generator: Adobe Illustrator 22.0.1, SVG Export Plug-In . SVG Version: 6.00 Build 0)  -->
<svg version="1.1" id="圖層_2_1_" xmlns="http://www.w3.org/2000/svg" xmlns:xlink="http://www.w3.org/1999/xlink" x="0px"
	 y="0px" width="26px" height="20px" viewBox="0 0 26 20" style="enable-background:new 0 0 26 20;" xml:space="preserve">
<style type="text/css">
	.st0{fill:#00ABFF;}
	.st1{fill:#FFAA00;}
	.st2{fill:#B0B0B0;}
	.st3{fill:#00CC3A;}
	.st4{fill:#FF4F4F;}
</style>
<g>
	<path class="st0" d="M4.337,4.231c1.817,0,3.295,1.478,3.295,3.295s-1.478,3.295-3.295,3.295S1.042,9.344,1.042,7.526
		S2.52,4.231,4.337,4.231 M4.337,3.189C1.942,3.189,0,5.131,0,7.526s1.942,4.337,4.337,4.337s4.337-1.942,4.337-4.337
		S6.733,3.189,4.337,3.189L4.337,3.189z"/>
	<path class="st1" d="M8.675,8.136c-0.021,0-0.039,0.005-0.06,0.007c-0.053,0.376-0.156,0.735-0.3,1.072
		c0.12-0.013,0.236-0.036,0.36-0.036c1.817,0,3.295,1.478,3.295,3.295s-1.478,3.295-3.295,3.295s-3.295-1.478-3.295-3.295
		c0-0.97,0.43-1.835,1.099-2.44V10.01c0.509-0.44,0.881-1.029,1.046-1.701c-1.834,0.507-3.187,2.17-3.187,4.164
		c0,2.395,1.942,4.337,4.337,4.337s4.337-1.942,4.337-4.337S11.07,8.136,8.675,8.136z"/>
	<path class="st2" d="M12.999,3.189c-2.395,0-4.337,1.942-4.337,4.337c0,0.21,0.033,0.412,0.061,0.613
		c0.375,0.004,0.735,0.06,1.08,0.155C9.744,8.047,9.704,7.792,9.704,7.526c0-1.817,1.478-3.295,3.295-3.295s3.295,1.478,3.295,3.295
		s-1.478,3.295-3.295,3.295c-0.762,0-1.455-0.27-2.014-0.706v0.013c-0.521-0.515-1.217-0.841-1.985-0.918
		c0.659,1.559,2.201,2.653,3.999,2.653c2.395,0,4.337-1.942,4.337-4.337S15.395,3.189,12.999,3.189z"/>
	<path class="st3" d="M17.337,8.136c-0.026,0-0.051,0.008-0.077,0.008c-0.053,0.375-0.152,0.733-0.293,1.072
		c0.122-0.014,0.244-0.038,0.37-0.038c1.817,0,3.295,1.478,3.295,3.295s-1.478,3.295-3.295,3.295s-3.295-1.478-3.295-3.295
		c0-0.97,0.43-1.835,1.099-2.44V10.01c0.507-0.438,0.864-1.028,1.029-1.696c-1.825,0.512-3.17,2.17-3.17,4.159
		c0,2.395,1.942,4.337,4.337,4.337s4.337-1.942,4.337-4.337S19.732,8.136,17.337,8.136z"/>
	<path class="st4" d="M21.661,3.189c-2.395,0-4.337,1.942-4.337,4.337c0,0.21,0.033,0.41,0.061,0.613
		c0.374,0.004,0.736,0.057,1.08,0.155c-0.059-0.249-0.099-0.503-0.099-0.768c0-1.817,1.478-3.295,3.295-3.295
		c1.817,0,3.295,1.478,3.295,3.295s-1.478,3.295-3.295,3.295c-0.84,0-1.598-0.326-2.18-0.844v0.013
		c-0.499-0.432-1.127-0.711-1.817-0.783c0.658,1.56,2.2,2.655,3.999,2.655c2.395,0,4.337-1.942,4.337-4.337
		S24.057,3.189,21.661,3.189z"/>
</g>
</svg>
