<?xml version="1.0" encoding="utf-8"?>
<!-- Generator: Adobe Illustrator 22.0.1, SVG Export Plug-In . SVG Version: 6.00 Build 0)  -->
<svg version="1.1" id="圖層_1" xmlns="http://www.w3.org/2000/svg" xmlns:xlink="http://www.w3.org/1999/xlink" x="0px" y="0px"
	 width="50px" height="50px" viewBox="0 0 50 50" style="enable-background:new 0 0 50 50;" xml:space="preserve">
<style type="text/css">
	.st0{opacity:8.000000e-02;fill:#000000;enable-background:new    ;}
	.st1{opacity:0.56;fill:#000000;enable-background:new    ;}
	.st2{fill:#000000;}
	.st3{opacity:0.48;fill:#000000;enable-background:new    ;}
	.st4{opacity:0.9;fill:#000000;enable-background:new    ;}
	.st5{opacity:0.4;fill:#000000;enable-background:new    ;}
	.st6{opacity:0.8;fill:#000000;enable-background:new    ;}
	.st7{opacity:0.32;fill:#000000;enable-background:new    ;}
	.st8{opacity:0.72;fill:#000000;enable-background:new    ;}
	.st9{opacity:0.24;fill:#000000;enable-background:new    ;}
	.st10{opacity:0.64;fill:#000000;enable-background:new    ;}
	.st11{opacity:0.16;fill:#000000;enable-background:new    ;}
</style>
<g id="圖層_2_1_">
	<g>
		<path class="st0" d="M27,9.7c0,1.1-0.9,2-2,2l0,0c-1.1,0-2-0.9-2-2V2c0-1.1,0.9-2,2-2l0,0c1.1,0,2,0.9,2,2V9.7z"/>
		<path class="st1" d="M27,48c0,1.1-0.9,2-2,2l0,0c-1.1,0-2-0.9-2-2v-7.7c0-1.1,0.9-2,2-2l0,0c1.1,0,2,0.9,2,2V48z"/>
		<path class="st2" d="M19.1,10.8c0.6,0.9,0.3,2.2-0.8,2.8l0,0c-0.9,0.6-2.2,0.3-2.8-0.8l-3.8-6.7c-0.6-0.9-0.3-2.2,0.8-2.8l0,0
			c0.9-0.6,2.2-0.3,2.8,0.8L19.1,10.8z"/>
		<path class="st3" d="M38.3,43.9c0.6,0.9,0.3,2.2-0.8,2.8l0,0c-0.9,0.6-2.2,0.3-2.8-0.8l-3.8-6.6c-0.6-0.9-0.3-2.2,0.8-2.8l0,0
			c0.9-0.6,2.2-0.3,2.8,0.8L38.3,43.9z"/>
		<path class="st4" d="M12.8,15.6c0.9,0.6,1.3,1.8,0.8,2.8l0,0c-0.6,0.9-1.8,1.3-2.8,0.8l-6.7-3.9c-0.9-0.6-1.3-1.8-0.7-2.8l0,0
			c0.6-0.9,1.8-1.3,2.8-0.8L12.8,15.6z"/>
		<path class="st5" d="M45.9,34.8c0.9,0.6,1.3,1.8,0.8,2.8l0,0c-0.6,0.9-1.8,1.3-2.8,0.8l-6.7-3.9c-0.9-0.6-1.3-1.8-0.8-2.8l0,0
			c0.6-0.9,1.8-1.3,2.8-0.8L45.9,34.8z"/>
		<path class="st6" d="M9.7,23c1.1,0,2,0.9,2,2l0,0c0,1.1-0.9,2-2,2H2c-1.1,0-2-0.9-2-2l0,0c0-1.1,0.9-2,2-2H9.7z"/>
		<path class="st7" d="M48,23c1.1,0,2,0.9,2,2l0,0c0,1.1-0.9,2-2,2h-7.7c-1.1,0-2-0.9-2-2l0,0c0-1.1,0.9-2,2-2H48z"/>
		<path class="st8" d="M10.8,30.9c0.9-0.6,2.2-0.3,2.8,0.8l0,0c0.6,0.9,0.3,2.2-0.8,2.8l-6.7,3.8c-0.9,0.6-2.2,0.3-2.8-0.8l0,0
			c-0.6-0.9-0.3-2.2,0.8-2.8L10.8,30.9z"/>
		<path class="st9" d="M43.9,11.8c0.9-0.6,2.2-0.3,2.8,0.8l0,0c0.6,0.9,0.3,2.2-0.8,2.8l-6.6,3.8c-0.9,0.6-2.2,0.3-2.8-0.8l0,0
			c-0.6-0.9-0.3-2.2,0.8-2.8L43.9,11.8z"/>
		<path class="st10" d="M15.6,37.3c0.6-0.9,1.8-1.3,2.8-0.8l0,0c0.9,0.6,1.3,1.8,0.8,2.8l-3.8,6.6c-0.6,0.9-1.8,1.3-2.8,0.8l0,0
			c-0.9-0.6-1.3-1.8-0.8-2.8L15.6,37.3z"/>
		<path class="st11" d="M34.8,4.1c0.6-0.9,1.8-1.3,2.8-0.7l0,0c0.9,0.6,1.3,1.8,0.8,2.8l-3.9,6.6c-0.6,0.9-1.8,1.3-2.8,0.8l0,0
			c-0.9-0.6-1.3-1.8-0.8-2.8L34.8,4.1z"/>
	</g>
</g>
</svg>
