<?xml version="1.0" encoding="utf-8"?>
<!-- Generator: Adobe Illustrator 22.0.1, SVG Export Plug-In . SVG Version: 6.00 Build 0)  -->
<svg version="1.1" id="圖層_1" xmlns="http://www.w3.org/2000/svg" xmlns:xlink="http://www.w3.org/1999/xlink" x="0px" y="0px"
	 width="20px" height="20px" viewBox="0 0 20 20" style="enable-background:new 0 0 20 20;" xml:space="preserve">
<style type="text/css">
	.st0{fill:#FF8800;}
	.st1{fill:none;stroke:#FFB600;stroke-width:1.3;stroke-miterlimit:10;}
</style>
<g>
	<path class="st0" d="M15.7,1.3v0.3L10,3.8L4.3,1.6V1.3H15.7 M17,0H3v2.5l7,2.7l7-2.7V0L17,0z"/>
</g>
<g>
	<g>
		<path class="st0" d="M10,5.7c3.6,0,6.5,2.9,6.5,6.5s-2.9,6.5-6.5,6.5s-6.5-2.9-6.5-6.5S6.4,5.7,10,5.7 M10,4.4
			c-4.3,0-7.8,3.5-7.8,7.8S5.7,20,10,20s7.8-3.5,7.8-7.8S14.3,4.4,10,4.4L10,4.4z"/>
	</g>
	<g>
		<polygon class="st0" points="10,7.8 11.3,10.4 14.2,10.8 12.1,12.8 12.6,15.7 10,14.3 7.4,15.7 7.9,12.8 5.8,10.8 8.7,10.4 		"/>
	</g>
</g>
<g>
	<g>
		<line class="st1" x1="8.2" y1="0.7" x2="8.2" y2="3.9"/>
	</g>
	<g>
		<line class="st1" x1="11.8" y1="0.7" x2="11.8" y2="3.9"/>
	</g>
</g>
</svg>
