<?xml version="1.0" encoding="utf-8"?>
<!-- Generator: Adobe Illustrator 16.0.0, SVG Export Plug-In . SVG Version: 6.00 Build 0)  -->
<!DOCTYPE svg PUBLIC "-//W3C//DTD SVG 1.1//EN" "http://www.w3.org/Graphics/SVG/1.1/DTD/svg11.dtd">
<svg version="1.1" id="圖層_1" xmlns="http://www.w3.org/2000/svg" xmlns:xlink="http://www.w3.org/1999/xlink" x="0px" y="0px"
	 width="50px" height="50px" viewBox="0 0 50 50" enable-background="new 0 0 50 50" xml:space="preserve">
<g>
	
		<rect x="5.3" y="36" transform="matrix(-0.7071 -0.7071 0.7071 -0.7071 -7.8375 73.9062)" fill="#000000" width="12.2" height="5.2"/>
	<g>
		
			<rect x="32.5" y="8.8" transform="matrix(0.7071 0.7071 -0.7071 0.7071 19.3522 -23.9431)" fill="#000000" width="12.2" height="5.2"/>
		<g>
			<path fill="#000000" d="M29.3,20.6c-2.2-2.2-5.6-2.4-8-0.5l8.6,8.6C31.7,26.2,31.5,22.8,29.3,20.6z"/>
			<path fill="#000000" d="M20.1,18.8c3.1-2.5,7.6-2.3,10.4,0.6s3,7.3,0.6,10.4l6.2,6.2l11.2-11.2c2-2,2-5.3,0-7.3L45.9,15l-5,5
				L30,9l5-5l-2.6-2.6c-2-2-5.3-2-7.3,0L14,12.7L20.1,18.8z"/>
			<path fill="#000000" d="M20.7,29.2c2.2,2.2,5.6,2.4,7.9,0.6l-8.6-8.6C18.3,23.7,18.5,27.1,20.7,29.2z"/>
			<path fill="#000000" d="M29.8,31c-3.1,2.4-7.5,2.2-10.3-0.6c-2.8-2.8-3-7.3-0.6-10.3l-6.2-6.2L1.5,25.1c-2,2-2,5.3,0,7.3L4.1,35
				l5-5L20,41l-5,5l2.6,2.6c2,2,5.3,2,7.3,0l11.2-11.2L29.8,31z"/>
		</g>
	</g>
</g>
</svg>
