<?xml version="1.0" encoding="utf-8"?>
<!-- Generator: Adobe Illustrator 24.2.3, SVG Export Plug-In . SVG Version: 6.00 Build 0)  -->
<svg version="1.1" id="圖層_1" xmlns="http://www.w3.org/2000/svg" xmlns:xlink="http://www.w3.org/1999/xlink" x="0px" y="0px"
	 width="50px" height="50px" viewBox="0 0 50 50" style="enable-background:new 0 0 50 50;" xml:space="preserve">
<style type="text/css">
	.st0{fill:#000000;}
</style>
<g>
	<path class="st0" d="M10.21,35.27H5.08c-0.34,0-0.61,0.28-0.61,0.61v13.51c0,0.34,0.28,0.61,0.61,0.61h5.13
		c0.34,0,0.61-0.28,0.61-0.61V35.88C10.82,35.54,10.54,35.27,10.21,35.27z M7.64,39.25c-0.6,0-1.08-0.48-1.08-1.08
		s0.48-1.08,1.08-1.08c0.6,0,1.08,0.48,1.08,1.08S8.24,39.25,7.64,39.25z"/>
	<path class="st0" d="M12.31,37.45c0,0,2.69-1.57,3.79-1.92c1.1-0.35,1.72-0.44,2.62-0.18c0.9,0.26,6.73,2.4,6.73,2.4
		c3.36-0.61,5.54-0.91,6.42-0.86l0.11,0.01c1.77,0.19,2.07,2.41,1.1,3.56l-0.82,0.31c-1.57,0.4-3.37,0.94-6.18,1.52l-4.21-0.82
		l-0.18,0.01c-0.34,0.02-0.49,0.44-0.23,0.67l0.15,0.14c0,0,2.85,0.88,3.66,0.97s1.72-0.07,2.73-0.24c1.01-0.18,5.8-1.35,5.8-1.35
		s7.59-3.86,8.65-4.26c0.04-0.02,0.09-0.03,0.14-0.05c1.38-0.41,2.51,1.16,1.71,2.36l0,0l-7.7,5.65c0,0-7.04,3.66-8.58,3.97
		c-1.54,0.31-2.1,0.31-4.12,0.22s-6.68-0.31-6.68-0.31l-4.92-1.01V37.45z"/>
	<g>
		<path class="st0" d="M23.23,19.35c0.15,0,0.28,0.11,0.3,0.27c0.06,0.54,0.26,0.96,0.6,1.26c0.39,0.34,0.94,0.52,1.67,0.52
			c0.66,0,1.19-0.18,1.59-0.54c0.4-0.36,0.6-0.83,0.6-1.42c0-0.54-0.17-0.97-0.51-1.26c-0.34-0.3-1.15-0.61-2.44-0.94
			c-1.55-0.39-2.68-0.91-3.39-1.58c-0.7-0.66-1.06-1.52-1.06-2.57c0-1.07,0.34-1.98,1.01-2.73c0.63-0.71,1.52-1.23,2.66-1.56
			c0.13-0.04,0.21-0.15,0.21-0.29V6.69c0-0.16,0.13-0.3,0.3-0.3h2.46c0.16,0,0.3,0.13,0.3,0.3v1.84c0,0.14,0.09,0.26,0.23,0.29
			c1.02,0.26,1.81,0.7,2.39,1.35c0.55,0.61,0.89,1.38,1,2.3c0.02,0.18-0.12,0.33-0.3,0.33h-2.63c-0.14,0-0.26-0.1-0.29-0.23
			c-0.07-0.34-0.26-0.63-0.57-0.86c-0.37-0.28-0.84-0.42-1.41-0.42c-0.65,0-1.18,0.16-1.57,0.47c-0.4,0.32-0.59,0.73-0.59,1.25
			c0,0.19,0.04,0.36,0.11,0.5c0.07,0.14,0.19,0.26,0.34,0.37c0.38,0.26,1.12,0.51,2.22,0.74c0.62,0.14,1.09,0.25,1.43,0.34
			c1.19,0.34,2.11,0.87,2.75,1.59c0.64,0.71,0.96,1.56,0.96,2.55c0,1.23-0.35,2.25-1.04,3.08c-0.65,0.78-1.59,1.35-2.81,1.7
			c-0.13,0.04-0.22,0.15-0.22,0.29v2.3c0,0.16-0.13,0.3-0.3,0.3h-2.46c-0.16,0-0.3-0.13-0.3-0.3v-2.15c0-0.14-0.1-0.26-0.23-0.29
			c-1.3-0.29-2.31-0.83-3.03-1.6c-0.7-0.75-1.09-1.67-1.15-2.77c-0.01-0.17,0.13-0.32,0.3-0.32L23.23,19.35z"/>
	</g>
	<path class="st0" d="M37.9,4.77C34.87,1.82,30.73,0,26.16,0C17.42,0,10.24,6.67,9.43,15.19H6.77c-0.54,0-0.86,0.6-0.56,1.05
		l4.19,6.32c0.27,0.4,0.86,0.4,1.12,0l4.19-6.32c0.3-0.45-0.02-1.05-0.56-1.05h-2.33c0.8-6.65,6.47-11.81,13.34-11.81
		c4.94,0,9.25,2.66,11.59,6.63C38.87,9.94,39.51,6.22,37.9,4.77z"/>
	<path class="st0" d="M13.74,28.5c3.03,2.95,7.17,4.77,11.73,4.77c8.74,0,15.92-6.67,16.74-15.19h2.65c0.54,0,0.86-0.6,0.56-1.05
		l-4.19-6.32c-0.27-0.4-0.86-0.4-1.12,0l-4.19,6.32c-0.3,0.45,0.02,1.05,0.56,1.05h2.33c-0.8,6.65-6.47,11.81-13.34,11.81
		c-4.94,0-9.25-2.66-11.59-6.63C12.76,23.33,12.13,27.04,13.74,28.5z"/>
</g>
</svg>
