<?xml version="1.0" encoding="utf-8"?>
<!-- Generator: Adobe Illustrator 22.0.1, SVG Export Plug-In . SVG Version: 6.00 Build 0)  -->
<svg version="1.1" id="圖層_1" xmlns="http://www.w3.org/2000/svg" xmlns:xlink="http://www.w3.org/1999/xlink" x="0px" y="0px"
	 width="20px" height="20px" viewBox="0 0 20 20" style="enable-background:new 0 0 20 20;" xml:space="preserve">
<style type="text/css">
	.st0{fill:#FF8800;}
</style>
<g>
	<g>
		<path class="st0" d="M18,4.8H2c-1.1,0-2,0.9-2,2v11c0,1.1,0.9,2,2,2h16c1.1,0,2-0.9,2-2v-11C20,5.7,19.1,4.8,18,4.8z M15.4,17.3
			c0,0.5-0.5,1-1,1h-12c-0.5,0-1-0.5-1-1V7.2c0-0.5,0.5-1,1-1h12c0.5,0,1,0.5,1,1V17.3z M17.7,15.9c-0.7,0-1.3-0.6-1.3-1.3
			c0-0.7,0.6-1.3,1.3-1.3c0.7,0,1.3,0.6,1.3,1.3C19,15.3,18.4,15.9,17.7,15.9z M17.7,11.2c-0.7,0-1.3-0.6-1.3-1.3
			c0-0.7,0.6-1.3,1.3-1.3c0.7,0,1.3,0.6,1.3,1.3C19,10.7,18.4,11.2,17.7,11.2z"/>
	</g>
	<g>
		<g>
			<path class="st0" d="M8.3,5.9C8,5.9,7.8,5.8,7.6,5.5L5.1,1.4C4.9,1,5,0.6,5.3,0.4c0.4-0.2,0.8-0.1,1,0.3l2.5,4.2
				c0.2,0.4,0.1,0.8-0.3,1C8.5,5.9,8.4,5.9,8.3,5.9z"/>
		</g>
		<g>
			<path class="st0" d="M11.7,5.9c-0.1,0-0.3,0-0.4-0.1c-0.4-0.2-0.5-0.7-0.3-1l2.5-4.2c0.2-0.4,0.7-0.5,1-0.3
				c0.4,0.2,0.5,0.7,0.3,1l-2.5,4.2C12.2,5.8,12,5.9,11.7,5.9z"/>
		</g>
	</g>
</g>
<path class="st0" d="M10.1,11.8l-2.8-1.6c-0.4-0.2-0.9,0.1-0.9,0.5v3.2c0,0.4,0.5,0.7,0.9,0.5l2.8-1.6C10.5,12.5,10.5,12,10.1,11.8z
	"/>
</svg>
